<svg width="28" height="28" viewBox="0 0 28 28" fill="none" xmlns="http://www.w3.org/2000/svg">
<g id="Group 2" opacity="0.5">
<circle id="Ellipse 2" cx="14" cy="14" r="14" fill="#0A0A0A"/>
<path id="Vector" d="M10.3566 7.29031C10.452 7.19895 10.5652 7.12659 10.6896 7.07738C10.8141 7.02818 10.9475 7.00309 11.082 7.00356C11.2166 7.00404 11.3498 7.03005 11.4739 7.08013C11.598 7.13021 11.7106 7.20335 11.8053 7.29539L18.582 13.8653C18.6576 13.9385 18.7174 14.0252 18.7581 14.1207C18.7989 14.2161 18.8196 14.3183 18.8192 14.4215C18.8188 14.5247 18.7973 14.6268 18.7559 14.7219C18.7144 14.8171 18.6539 14.9034 18.5778 14.976L11.7516 21.4983C11.3491 21.8829 10.7025 21.8806 10.3029 21.4932C9.90331 21.1058 9.90567 20.4835 10.3082 20.0989L16.2554 14.4086L10.3432 8.6767C9.95174 8.29721 9.95413 7.66702 10.3566 7.29031Z" fill="white"/>
</g>
</svg>
