<svg width="28" height="28" viewBox="0 0 28 28" fill="none" xmlns="http://www.w3.org/2000/svg">
<g id="Group 1" opacity="0.5">
<circle id="Ellipse 1" cx="14" cy="14" r="14" fill="#0E0D0C"/>
<path id="Vector" d="M16.691 21.7064C16.5937 21.7995 16.4781 21.8733 16.3509 21.9237C16.2237 21.9741 16.0872 22 15.9495 22C15.8117 22 15.6753 21.9741 15.5481 21.9237C15.4208 21.8733 15.3052 21.7995 15.2079 21.7064L8.24504 15.0637C8.16736 14.9897 8.10574 14.9019 8.06369 14.8052C8.02164 14.7085 8 14.6048 8 14.5001C8 14.3954 8.02164 14.2917 8.06369 14.195C8.10574 14.0983 8.16736 14.0105 8.24504 13.9365L15.2079 7.29377C15.6185 6.90208 16.2804 6.90208 16.691 7.29377C17.1016 7.68546 17.1016 8.31696 16.691 8.70866L10.6247 14.5041L16.6994 20.2995C17.1016 20.6832 17.1016 21.3227 16.691 21.7064Z" fill="white"/>
</g>
</svg>
