<svg width="49" height="52" viewBox="0 0 49 52" fill="none" xmlns="http://www.w3.org/2000/svg">
<g filter="url(#filter0_d)">
<path d="M29.5722 18.5171C29.7205 17.8436 29.8941 17.2535 29.759 16.6267C29.5431 15.6238 29.297 14.6259 29.1158 13.616C28.994 12.9369 29.0167 12.23 28.876 11.5565C28.6955 10.6918 28.7699 9.84789 28.8798 8.99201C28.9757 8.2447 28.9511 7.47025 29.1373 6.74818C29.386 5.78563 29.2799 4.82624 29.3083 3.86496C29.3134 3.69707 29.2339 3.50014 29.1316 3.36191C28.9643 3.13595 28.9265 2.91188 28.9959 2.65121C29.1941 1.90389 29.5185 1.23232 30.0796 0.680042C30.5612 0.206028 31.864 -0.2541 32.5425 0.163108C32.7255 0.276089 32.9673 0.296918 33.144 0.41621C33.7607 0.834049 33.736 1.42483 33.452 2.13175C33.3775 2.31795 33.3239 2.5357 33.3403 2.732C33.4192 3.65036 33.7657 4.45764 34.3521 5.18034C34.5724 5.45237 34.7093 5.81214 34.8147 6.15361C35.0243 6.83149 35.2136 7.51758 35.3588 8.21188C35.5406 9.07975 35.6858 9.94951 35.4958 10.8496C35.3556 11.5123 35.3361 12.1997 35.2237 12.8693C34.994 14.232 34.9353 15.603 34.982 16.9802C35.0016 17.5571 35.0495 18.1334 35.0773 18.7102C35.0887 18.9514 35.107 19.1963 35.0798 19.4348C34.9681 20.4031 35.2111 21.3082 35.5418 22.1994C35.8019 22.8987 36.096 23.5867 36.3226 24.2968C36.4634 24.7367 36.8092 24.9602 37.1135 25.236C37.3628 25.4626 37.5654 25.6955 37.6998 26.025C37.7964 26.2623 38.0703 26.4377 38.2887 26.612C38.7413 26.9742 39.0689 27.3952 39.2197 27.9772C39.3005 28.2909 39.5404 28.5617 39.7013 28.8564C40.02 29.4396 40.1374 30.0639 39.9348 30.7001C39.8036 31.1135 39.2222 31.3616 38.8581 30.9317C38.384 30.3719 37.9649 29.7742 37.7099 29.0761C37.6708 28.9694 37.5723 28.8785 37.5528 28.7712C37.3824 27.8491 36.6634 27.5183 35.9098 27.2128C35.5829 27.0803 35.2483 26.9509 34.9492 26.7679C34.7232 26.6296 34.5465 26.4093 34.3514 26.2219C34.2612 26.1354 34.1817 26.0382 34.0914 25.9517C33.9342 25.8028 33.8162 25.7447 33.6458 25.982C33.3353 26.4131 32.9029 26.3904 32.3847 25.9644C32.0028 25.6507 31.4051 25.6923 31.1015 26.0609C31.0529 26.1203 31.0251 26.2017 31.0024 26.2768C30.8213 26.8859 30.6521 27.4981 30.4628 28.1047C30.3485 28.4701 30.2103 28.828 30.0721 29.1853C30.0285 29.2976 29.9597 29.4043 29.8846 29.5002C29.6416 29.8108 29.4428 30.1213 29.3582 30.5328C29.2017 31.2921 28.835 31.9599 28.3483 32.5816C28.0775 32.9275 27.921 33.3895 27.8074 33.8244C27.6162 34.5522 27.3952 35.2439 26.8253 35.7792C26.6391 35.9534 26.5116 36.1882 26.3431 36.3838C25.9631 36.8257 25.3635 36.7158 25.135 36.1686C24.7563 35.2616 24.897 34.8337 25.657 34.2176C26.4845 33.5473 26.9717 32.6574 26.9843 31.5837C26.9963 30.5739 27.2438 29.6643 27.8383 28.8476C27.9021 28.7599 27.9482 28.6387 27.9519 28.5307C27.9797 27.7853 28.0005 27.0393 28.01 26.2938C28.0132 26.0502 27.9734 25.8337 27.6742 25.7264C27.5177 25.6702 27.3612 25.4853 27.3044 25.3231C27.2583 25.1912 27.3536 25.0056 27.399 24.8472C27.6446 24.002 27.8939 23.1582 28.1419 22.3143C28.1804 22.1836 28.212 22.0498 28.2593 21.9223C28.4487 21.4073 28.366 21.0513 27.8756 20.8373C27.2084 20.5457 26.5267 20.244 25.775 20.2585C25.6115 20.2617 25.4152 20.3507 25.2947 20.4643C24.6951 21.0292 24.0917 21.5935 23.5406 22.2044C23.309 22.4607 23.2036 22.8312 23.0401 23.1493C22.9404 23.3444 22.859 23.5514 22.7365 23.7313C22.496 24.0847 22.5339 24.4464 22.7485 24.762C23.1001 25.2789 23.5141 25.7529 23.8771 26.2623C24.2204 26.7439 24.5833 27.2229 24.8421 27.7506C25.0883 28.2511 24.9576 28.7984 24.767 29.3109C24.3138 30.5265 23.8518 31.7396 23.4068 32.9584C23.2352 33.4293 23.0767 33.9084 22.9568 34.395C22.8855 34.6847 22.8659 34.9978 22.883 35.297C22.912 35.8076 23.2049 36.0992 23.6801 36.3195C24.009 36.4716 24.2766 36.8004 24.5095 37.099C24.6698 37.3041 24.4319 37.6386 24.1535 37.6424C23.6069 37.65 23.0597 37.6449 22.5131 37.643C22.4512 37.643 22.3824 37.6405 22.3288 37.6153C22.0687 37.4928 21.8219 37.3369 21.5537 37.2391C20.8493 36.9835 20.5337 36.2816 20.8449 35.5848C20.9339 35.3853 21.0393 35.1833 21.1788 35.018C21.4881 34.6519 21.5991 34.2246 21.6149 33.7663C21.6421 32.9799 21.6635 32.1922 21.6686 31.4051C21.673 30.7222 21.7841 30.0658 22.0984 29.4567C22.2227 29.2156 22.1495 29.0546 21.9943 28.8659C21.5354 28.3086 20.9206 27.95 20.3431 27.5455C20.0913 27.3694 19.818 27.2027 19.5295 27.1087C19.3951 27.0645 19.1527 27.1554 19.0422 27.2671C18.3972 27.9204 17.7679 28.5901 17.1506 29.2698C16.7523 29.7079 16.2663 30.0506 15.721 30.1844C15.4288 30.2564 15.0033 30.0475 14.7231 29.8461C14.1973 29.4693 13.9392 28.9 13.8243 28.2568C13.7725 27.9658 13.6381 27.6856 13.5163 27.411C13.3484 27.0317 13.1723 26.6549 12.9722 26.2926C12.8277 26.0306 12.6453 26.0022 12.4136 26.1758C12.0292 26.4636 11.648 26.7552 11.2737 27.0557C10.912 27.346 10.4936 27.2116 10.3869 26.7597C10.2064 25.9991 10.5239 25.152 11.1771 24.7273C11.8026 24.3202 12.4635 23.9856 13.202 23.824C13.6987 23.7155 13.9998 23.9276 14.0225 24.4439C14.0477 25.0302 14.2478 25.4979 14.7521 25.8552C15.0576 26.0717 15.3669 26.3424 15.413 26.7767C15.4193 26.8341 15.4881 26.9282 15.5291 26.9288C15.6017 26.9301 15.7178 26.8922 15.7431 26.8373C15.9621 26.3607 16.1761 25.8817 16.3686 25.3944C16.51 25.0365 16.664 24.6736 16.7296 24.2987C16.8319 23.713 16.9032 23.1159 16.919 22.5219C16.9537 21.1763 17.3961 20.0326 18.4388 19.1489C19.5522 18.2047 20.6631 17.2579 21.7752 16.3124C21.9103 16.1975 22.0441 16.0814 22.1798 15.9678C22.4948 15.7052 22.6665 15.3972 22.6198 14.9598C22.5522 14.321 22.6753 13.7101 23.042 13.166C23.5602 12.3978 24.4546 12.1971 25.2372 12.6958C25.6829 12.9798 26.1644 12.9937 26.6618 12.9798C26.9477 12.9716 27.2387 12.9817 27.4262 13.2506C27.4918 13.3452 27.5985 13.4898 27.5676 13.5561C27.5139 13.6716 27.3795 13.765 27.2583 13.8294C27.0317 13.9499 26.7862 14.0358 26.5558 14.15C26.4037 14.2251 26.3601 14.3381 26.5065 14.4706C26.7647 14.7048 26.8878 14.9629 26.689 15.3032C26.6618 15.3492 26.7022 15.4647 26.747 15.519C26.9793 15.7974 27.2147 16.0745 27.4653 16.3358C27.6648 16.544 27.8749 16.7479 28.1041 16.9215C28.5964 17.2951 29.1101 17.6423 29.3475 18.252C29.362 18.2899 29.3935 18.3221 29.4207 18.3543C29.444 18.3865 29.4743 18.4142 29.5722 18.5171ZM30.5177 7.88935C30.6736 7.76879 30.7594 7.69116 30.8554 7.63056C31.3035 7.3478 31.7794 7.19695 32.2742 7.48476C32.8013 7.79088 33.1112 8.24786 33.127 8.88093C33.1295 8.98255 33.1756 9.15423 33.2336 9.16937C33.3775 9.20661 33.5517 9.20283 33.6887 9.14981C33.7392 9.13024 33.7537 8.91943 33.7266 8.81024C33.5726 8.19673 33.4457 7.58196 33.4886 6.94321C33.4962 6.83086 33.4735 6.71094 33.44 6.60301C33.144 5.6493 32.5974 4.77007 32.6163 3.72042C32.6201 3.49446 32.4163 3.54622 32.2862 3.63332C31.8015 3.95648 31.2663 4.12311 30.6894 4.1452C30.4691 4.15341 30.3959 4.24619 30.3984 4.45574C30.4097 5.45111 30.411 6.44648 30.4236 7.44184C30.4255 7.56934 30.4754 7.69684 30.5177 7.88935Z" fill="#23A952"/>
<path d="M5.88343 41.2792L5.73826 41.9773H4.92152L5.06669 41.2792H5.88343ZM4 41.2792H4.62802L4.48159 41.9773H4V42.4141H4.39007L4.20576 43.2921H4.64696L4.83 42.4141H5.64737L5.46496 43.2921H5.90426L6.08604 42.4141H6.79864V41.9773H6.1763L6.32084 41.2792H6.79864V40.8399H6.41173L6.59477 39.955H6.15863L5.97495 40.8399H5.15821L5.34251 39.955H4.90574L4.72017 40.8399H4V41.2792Z" fill="white"/>
<path d="M16.4639 39.5505V43.2921H17.3974V41.1032C17.3974 40.9473 17.4075 40.8438 17.4277 40.7914C17.4479 40.739 17.4864 40.7125 17.5432 40.7125C17.605 40.7125 17.6442 40.7377 17.6625 40.7888C17.6801 40.84 17.689 40.9542 17.689 41.1335V43.2921H18.6225V41.1777C18.6225 40.8892 18.6099 40.691 18.5846 40.5825C18.5594 40.4739 18.4893 40.378 18.3744 40.2946C18.2596 40.2113 18.1207 40.1697 17.9572 40.1697C17.8512 40.1697 17.7508 40.188 17.658 40.2252C17.5646 40.2624 17.4782 40.318 17.398 40.3918V39.5505H16.4639ZM16.1016 40.715C16.0448 40.5578 15.9299 40.4278 15.7569 40.3243C15.5846 40.2208 15.3763 40.1697 15.1327 40.1697C14.8878 40.1697 14.6795 40.2214 14.5085 40.3256C14.3374 40.4297 14.2257 40.5477 14.1733 40.6803C14.1209 40.8128 14.0944 41.0091 14.0944 41.2698V42.1408C14.0944 42.44 14.1266 42.6704 14.1904 42.8332C14.2541 42.9961 14.3633 43.1223 14.5173 43.2119C14.6713 43.3022 14.8802 43.347 15.1434 43.347C15.3498 43.347 15.5234 43.3142 15.6635 43.2485C15.8036 43.1829 15.9173 43.0857 16.0044 42.9576C16.0915 42.8288 16.1432 42.7032 16.159 42.5808C16.1754 42.4583 16.1842 42.2746 16.1855 42.0297H15.3549V42.3952C15.3549 42.5536 15.3435 42.6615 15.3214 42.719C15.2993 42.7758 15.2564 42.8042 15.1933 42.8042C15.1396 42.8042 15.0986 42.7771 15.0708 42.7221C15.0431 42.6672 15.0292 42.5852 15.0292 42.476V41.0293C15.0292 40.8955 15.0387 40.809 15.057 40.7705C15.0753 40.732 15.1119 40.7125 15.1655 40.7125C15.2192 40.7125 15.2564 40.7346 15.2766 40.7781C15.2968 40.8223 15.3069 40.9056 15.3069 41.0287V41.3822H16.1874C16.1868 41.095 16.1584 40.8722 16.1016 40.715ZM12.8542 40.2252V42.2892C12.8542 42.5404 12.8478 42.6887 12.8346 42.7354C12.8213 42.7815 12.7803 42.8048 12.7109 42.8048C12.6459 42.8048 12.6067 42.7827 12.5916 42.7379C12.5771 42.6931 12.5695 42.5517 12.5695 42.3125V40.2252H11.636V42.2936C11.636 42.5568 11.641 42.7329 11.6524 42.8219C11.6638 42.9109 11.6903 42.9954 11.7344 43.0775C11.7786 43.1589 11.8468 43.2246 11.9389 43.2738C12.0311 43.323 12.1479 43.3476 12.288 43.3476C12.4111 43.3476 12.5203 43.3218 12.6149 43.27C12.7096 43.2182 12.7891 43.1406 12.8542 43.0371L12.8377 43.2921H13.7877V40.2252H12.8542V40.2252ZM10.409 42.4854C10.409 42.618 10.4001 42.7045 10.3825 42.7442C10.3648 42.784 10.3282 42.8042 10.2726 42.8042C10.219 42.8042 10.1824 42.7821 10.1641 42.7386C10.1458 42.6944 10.1363 42.6003 10.1363 42.4552V41.071C10.1363 40.9138 10.1458 40.8147 10.1641 40.7737C10.1824 40.7327 10.2196 40.7125 10.2752 40.7125C10.3307 40.7125 10.3667 40.7327 10.3837 40.7737C10.4008 40.8147 10.409 40.9132 10.409 41.071V42.4854V42.4854ZM11.2977 40.8172C11.2674 40.7112 11.2118 40.6077 11.1304 40.5073C11.049 40.407 10.9329 40.3256 10.7826 40.2637C10.6324 40.2019 10.4525 40.1703 10.243 40.1703C9.99303 40.1703 9.78853 40.2189 9.62821 40.3161C9.46789 40.4133 9.3568 40.5421 9.29558 40.7017C9.23372 40.8621 9.20343 41.0849 9.20343 41.3695V42.1553C9.20343 42.416 9.22047 42.6111 9.25455 42.7411C9.28864 42.8711 9.34481 42.9822 9.42434 43.0737C9.50387 43.1652 9.61495 43.234 9.75823 43.2795C9.90151 43.3249 10.0763 43.3476 10.2827 43.3476C10.4677 43.3476 10.6311 43.3211 10.7738 43.2681C10.9164 43.2151 11.0332 43.1324 11.1241 43.0207C11.215 42.909 11.2743 42.789 11.3021 42.6603C11.3299 42.5315 11.3437 42.3296 11.3437 42.0537V41.3026C11.3425 41.0849 11.3273 40.9233 11.2977 40.8172ZM6.90973 39.5505V40.2991H7.48536V43.2921H8.45864V40.2991H9.03617V39.5505H6.90973Z" fill="#23A952"/>
<path d="M29.9893 40.2252L29.8397 42.2961L29.533 40.2252H28.6853L29.1966 42.7903C29.2351 42.9797 29.2546 43.087 29.2546 43.1116C29.2546 43.1627 29.2338 43.1955 29.1921 43.2101C29.1505 43.2246 29.0571 43.2322 28.9119 43.2322V43.7219H29.4781C29.7369 43.7219 29.9249 43.7024 30.043 43.6632C30.161 43.6241 30.2532 43.5629 30.3194 43.4796C30.3857 43.3963 30.433 43.2909 30.4614 43.1627C30.4898 43.0346 30.5252 42.7954 30.5675 42.4438L30.8345 40.2252H29.9893V40.2252ZM27.6388 42.3883C27.6388 42.57 27.63 42.6849 27.6123 42.7329C27.5946 42.7809 27.5561 42.8042 27.4981 42.8042C27.4413 42.8042 27.4028 42.7809 27.3838 42.7348C27.3643 42.6887 27.3548 42.5833 27.3548 42.4179V41.0969C27.3548 40.9258 27.363 40.8192 27.38 40.7769C27.3971 40.7346 27.4337 40.7131 27.4911 40.7131C27.5498 40.7131 27.589 40.7371 27.6092 40.7857C27.6294 40.8343 27.6395 40.9378 27.6395 41.0962V42.3883H27.6388ZM26.4207 39.5505V43.2921H27.2942L27.3542 43.0605C27.4331 43.1564 27.5195 43.2277 27.6142 43.2757C27.7089 43.3237 27.8111 43.3477 27.9203 43.3477C28.0731 43.3477 28.2044 43.3073 28.3154 43.2265C28.4265 43.1457 28.4966 43.0504 28.5269 42.9399C28.5572 42.8295 28.5717 42.6622 28.5717 42.4375V41.0552C28.5717 40.8286 28.5667 40.6809 28.5566 40.6115C28.5465 40.5421 28.5168 40.4714 28.4676 40.3988C28.4183 40.3262 28.3464 40.27 28.2523 40.2303C28.1583 40.1905 28.0472 40.1703 27.9197 40.1703C27.8086 40.1703 27.7057 40.1924 27.611 40.2366C27.5164 40.2808 27.4305 40.3477 27.3535 40.4367V39.5505H26.4207ZM25.152 41.9887C25.152 42.1629 25.1425 42.2747 25.1242 42.3239C25.1059 42.3731 25.0655 42.3977 25.0043 42.3977C24.9506 42.3977 24.9147 42.3775 24.8983 42.3365C24.8818 42.2955 24.873 42.2065 24.873 42.0695V41.0388C24.873 40.9094 24.8844 40.8229 24.9065 40.7788C24.9285 40.7346 24.967 40.7131 25.0207 40.7131C25.0762 40.7131 25.1122 40.7327 25.128 40.7712C25.1444 40.8097 25.152 40.8993 25.152 41.0394V41.9887ZM25.2189 40.2252L25.152 40.4569C25.0762 40.3609 24.9904 40.2896 24.8945 40.2416C24.7979 40.1937 24.6912 40.1697 24.5745 40.1697C24.3605 40.1697 24.2008 40.2334 24.096 40.3616C23.9912 40.4897 23.9389 40.6992 23.9389 40.9902V42.1042C23.9389 42.3075 23.9591 42.4646 23.9988 42.5745C24.0386 42.6849 24.1131 42.7739 24.2216 42.8415C24.3302 42.9096 24.4684 42.9431 24.6363 42.9431C24.7335 42.9431 24.8263 42.9248 24.9147 42.8875C25.003 42.8503 25.0876 42.7954 25.1678 42.7228V42.9544C25.1678 43.087 25.1564 43.1741 25.133 43.2157C25.1097 43.2574 25.063 43.2782 24.9923 43.2782C24.8938 43.2782 24.8446 43.2107 24.8446 43.075H23.9389C23.9452 43.371 24.038 43.5692 24.2185 43.6702C24.399 43.7712 24.6376 43.8217 24.9349 43.8217C25.1766 43.8217 25.3773 43.7945 25.537 43.7396C25.6967 43.6847 25.821 43.6058 25.91 43.5017C25.9997 43.3975 26.0514 43.2991 26.0659 43.2056C26.0804 43.1122 26.088 42.9065 26.088 42.5877V40.2259H25.2189V40.2252ZM22.6973 40.2252V42.2892C22.6973 42.5404 22.691 42.6887 22.6778 42.7354C22.6645 42.7815 22.6235 42.8048 22.5541 42.8048C22.489 42.8048 22.4499 42.7828 22.4348 42.7379C22.4202 42.6931 22.4127 42.5517 22.4127 42.3125V40.2252H21.4792V42.2936C21.4792 42.5568 21.4842 42.7329 21.4956 42.8219C21.5069 42.9109 21.5334 42.9955 21.5776 43.0775C21.6218 43.1589 21.69 43.2246 21.7821 43.2738C21.8743 43.323 21.991 43.3477 22.1312 43.3477C22.2543 43.3477 22.3634 43.3218 22.4581 43.27C22.5528 43.2183 22.6323 43.1406 22.6973 43.0371L22.6809 43.2921H23.6308V40.2252H22.6973V40.2252ZM20.177 40.2461C20.2193 40.2833 20.2408 40.3609 20.2408 40.4796V40.6854C20.2408 40.8501 20.2187 40.9479 20.1752 40.9776C20.131 41.0079 20.0546 41.0224 19.9454 41.0224V40.1905C20.0571 40.1905 20.1348 40.2094 20.177 40.2461ZM18.9715 43.2921H19.9448V41.605C20.0786 41.605 20.1619 41.629 20.1935 41.6769C20.225 41.7249 20.2408 41.8486 20.2408 42.0487V43.2921H21.1446V42.305C21.1446 42.0032 21.1364 41.8183 21.1207 41.7514C21.1042 41.6845 21.0632 41.6107 20.9969 41.5305C20.9307 41.4503 20.8013 41.3866 20.6088 41.3386C20.8215 41.3184 20.9641 41.2585 21.0361 41.1581C21.108 41.0577 21.1446 40.8621 21.1446 40.5711C21.1446 40.2524 21.0935 40.0201 20.9913 39.8743C20.889 39.7285 20.7565 39.6382 20.5936 39.6029C20.4308 39.5675 20.1202 39.5499 19.6607 39.5499H18.9715V43.2921Z" fill="white"/>
<path d="M44.0387 39.5505V43.2921H45V39.5505H44.0387ZM42.7839 42.4646C42.7839 42.6186 42.7751 42.714 42.7574 42.7499C42.7397 42.7859 42.7012 42.8042 42.6432 42.8042C42.5813 42.8042 42.5403 42.7809 42.5195 42.7348C42.4986 42.6887 42.4885 42.5858 42.4885 42.4274C42.4885 42.2885 42.5005 42.1825 42.5245 42.1087C42.5485 42.0348 42.635 41.9433 42.7846 41.8335V42.4646H42.7839ZM42.4879 41.0918C42.4879 40.9208 42.4955 40.8147 42.5113 40.7743C42.5264 40.7333 42.5662 40.7131 42.6293 40.7131C42.6848 40.7131 42.7246 40.7371 42.7486 40.7857C42.7726 40.8343 42.7846 40.9385 42.7846 41.0988C42.7846 41.2269 42.7738 41.3115 42.7524 41.3531C42.7309 41.3948 42.5668 41.4756 42.26 41.5955C41.9735 41.7066 41.7942 41.8038 41.7217 41.8865C41.6491 41.9692 41.6131 42.1263 41.6131 42.3554V42.6073C41.6131 42.9172 41.6813 43.1179 41.8176 43.2094C41.9539 43.301 42.1035 43.347 42.267 43.347C42.392 43.347 42.4993 43.3199 42.5895 43.265C42.6798 43.2101 42.753 43.128 42.8104 43.0182V43.2915H43.7187V41.7533C43.7187 41.2465 43.7023 40.9119 43.6701 40.7491C43.6379 40.5863 43.5413 40.4493 43.381 40.3376C43.2207 40.2259 42.9827 40.1697 42.6672 40.1697C42.404 40.1697 42.1894 40.2189 42.0246 40.3174C41.8599 40.4158 41.7501 40.5295 41.6951 40.6582C41.6402 40.787 41.6131 40.97 41.6131 41.2073V41.4131H42.4892V41.0918H42.4879ZM39.9594 40.2252V43.2921H40.8929V42.0809C40.8929 41.7836 40.9024 41.5936 40.9207 41.5109C40.939 41.4282 40.9882 41.3639 41.0684 41.3178C41.1485 41.2717 41.2741 41.2484 41.4452 41.2484V40.1691C41.1877 40.1861 40.9914 40.3388 40.8557 40.6279L40.8929 40.2246H39.9594V40.2252ZM38.5658 39.8162V40.2991H38.3644V40.7844H38.5658V42.3422C38.5658 42.6471 38.574 42.8408 38.591 42.9235C38.6081 43.0062 38.651 43.0794 38.7204 43.1432C38.7898 43.2069 38.87 43.2479 38.9609 43.2656C39.0518 43.2833 39.2033 43.2921 39.416 43.2921H39.7928V42.7973C39.64 42.7973 39.5536 42.7859 39.5327 42.7626C39.5119 42.7392 39.5018 42.6269 39.5018 42.4249V40.7838H39.7536V40.2984H39.5018V39.8156H38.5658V39.8162ZM36.0423 40.2252V43.2921H36.9758V41.2187C36.9758 40.9877 36.984 40.8457 37.0011 40.7927C37.0181 40.7396 37.0598 40.7131 37.1261 40.7131C37.1892 40.7131 37.2277 40.7365 37.2416 40.7826C37.2554 40.8286 37.2624 40.9574 37.2624 41.1688V43.2927H38.1959V41.1436C38.1959 40.8753 38.1814 40.6841 38.1517 40.5692C38.1227 40.4543 38.057 40.359 37.9554 40.2839C37.8538 40.2088 37.7225 40.1709 37.5628 40.1709C37.4347 40.1709 37.3223 40.1993 37.2245 40.2555C37.1267 40.3117 37.044 40.3963 36.9758 40.5093L36.9922 40.2265H36.0423V40.2252ZM34.5281 41.314V41.0899C34.5281 40.9176 34.5357 40.8116 34.5515 40.7718C34.5666 40.7327 34.607 40.7131 34.6714 40.7131C34.7238 40.7131 34.7585 40.7365 34.7755 40.7826C34.7926 40.8286 34.8008 40.9315 34.8008 41.0899V41.314H34.5281V41.314ZM35.7368 41.4062C35.7368 41.1089 35.7027 40.8779 35.6339 40.7138C35.5652 40.5497 35.4459 40.4177 35.2754 40.3186C35.105 40.2195 34.8892 40.1697 34.6272 40.1697C34.4133 40.1697 34.2233 40.2107 34.0585 40.2934C33.8938 40.3761 33.7751 40.4947 33.7025 40.6494C33.63 40.804 33.594 41.0155 33.594 41.2837V42.1781C33.594 42.4059 33.6104 42.5801 33.6426 42.6994C33.6748 42.8187 33.7328 42.9279 33.8168 43.0277C33.9007 43.1267 34.0181 43.205 34.169 43.2624C34.3198 43.3193 34.494 43.3477 34.6916 43.3477C34.8948 43.3477 35.064 43.3186 35.1991 43.2612C35.3341 43.2031 35.4452 43.1166 35.533 43.0011C35.6207 42.8856 35.6769 42.7771 35.7002 42.6755C35.7242 42.5738 35.7362 42.428 35.7362 42.2387V42.0121H34.8519V42.416C34.8519 42.5688 34.8399 42.6717 34.8159 42.7247C34.792 42.7777 34.7446 42.8042 34.6739 42.8042C34.6171 42.8042 34.5786 42.784 34.5584 42.7443C34.5382 42.7045 34.5281 42.6149 34.5281 42.476V41.8126H35.7368V41.4062ZM33.3011 40.8242C33.3011 40.4752 33.2721 40.2176 33.2134 40.0523C33.1547 39.8869 33.0322 39.7487 32.846 39.6382C32.6598 39.5278 32.4232 39.4722 32.1366 39.4722C31.9258 39.4722 31.739 39.5082 31.5761 39.5795C31.4133 39.6515 31.2864 39.7493 31.1949 39.8743C31.1034 39.9993 31.0478 40.1287 31.0295 40.2637C31.0112 40.3988 31.0017 40.6008 31.0017 40.8703V41.9635C31.0017 42.3302 31.032 42.6048 31.092 42.7872C31.152 42.9696 31.2744 43.1129 31.4593 43.2157C31.6443 43.3186 31.8791 43.3704 32.1644 43.3704C32.4383 43.3704 32.6693 43.3092 32.8568 43.1873C33.0442 43.0655 33.1648 42.9235 33.2197 42.7613C33.2746 42.5991 33.3017 42.3245 33.3017 41.9376V41.7918H32.3285V42.262C32.3285 42.4672 32.3171 42.5978 32.295 42.6534C32.2729 42.7089 32.2256 42.7367 32.153 42.7367C32.0773 42.7367 32.0293 42.7089 32.0072 42.6534C31.9851 42.5978 31.975 42.4792 31.975 42.2974V40.5604C31.975 40.371 31.9857 40.2473 32.0072 40.1905C32.0287 40.1337 32.0798 40.1053 32.16 40.1053C32.2306 40.1053 32.2767 40.1287 32.2975 40.1754C32.3184 40.2221 32.3285 40.3401 32.3285 40.5295V41.1796H33.3017V40.8242H33.3011Z" fill="#E52522"/>
</g>
<defs>
<filter id="filter0_d" x="0" y="0" width="49" height="51.8217" filterUnits="userSpaceOnUse" color-interpolation-filters="sRGB">
<feFlood flood-opacity="0" result="BackgroundImageFix"/>
<feColorMatrix in="SourceAlpha" type="matrix" values="0 0 0 0 0 0 0 0 0 0 0 0 0 0 0 0 0 0 127 0"/>
<feOffset dy="4"/>
<feGaussianBlur stdDeviation="2"/>
<feColorMatrix type="matrix" values="0 0 0 0 0 0 0 0 0 0 0 0 0 0 0 0 0 0 0.25 0"/>
<feBlend mode="normal" in2="BackgroundImageFix" result="effect1_dropShadow"/>
<feBlend mode="normal" in="SourceGraphic" in2="effect1_dropShadow" result="shape"/>
</filter>
</defs>
</svg>
