<svg xmlns="http://www.w3.org/2000/svg" viewBox="0 0 32 40" x="0px" y="0px">
    <g>
        <path fill="white"
            d="M26.653,12.653H5.347a3.347,3.347,0,0,0,0,6.694H26.653a3.347,3.347,0,1,0,0-6.694Zm0,4.694H5.347a1.347,1.347,0,0,1,0-2.694H26.653a1.347,1.347,0,1,1,0,2.694ZM5.347,9.906H26.653a3.347,3.347,0,1,0,0-6.694H5.347a3.347,3.347,0,1,0,0,6.694Zm0-4.694H26.653a1.347,1.347,0,1,1,0,2.694H5.347a1.347,1.347,0,1,1,0-2.694ZM26.653,22.094H5.347a3.347,3.347,0,1,0,0,6.694H26.653a3.347,3.347,0,1,0,0-6.694Zm0,4.694H5.347a1.347,1.347,0,1,1,0-2.694H26.653a1.347,1.347,0,1,1,0,2.694Z" />
    </g>
</svg>