<svg xmlns="http://www.w3.org/2000/svg" xmlns:xlink="http://www.w3.org/1999/xlink" version="1.1" x="0px" y="0px"
    viewBox="0 0 64 80" enable-background="new 0 0 64 64" xml:space="preserve">
    <path fill-rule="evenodd" clip-rule="evenodd"
        d="M20.959,3.994h22.082c9.326,0,16.951,7.625,16.951,16.951v22.109  c0,9.298-7.625,16.951-16.951,16.951H20.959c-9.326,0-16.951-7.653-16.951-16.951V20.945C4.008,11.619,11.633,3.994,20.959,3.994  L20.959,3.994z M20.165,21.455c-0.567,0-1.021-0.453-1.021-1.021c0-0.538,0.454-0.992,1.021-0.992h23.698  c0.539,0,0.992,0.454,0.992,0.992c0,0.567-0.454,1.021-0.992,1.021H20.165z M20.165,32.992c-0.567,0-1.021-0.454-1.021-0.992  c0-0.567,0.454-0.992,1.021-0.992h23.698c0.539,0,0.992,0.425,0.992,0.992c0,0.538-0.454,0.992-0.992,0.992H20.165z M20.165,44.558  c-0.567,0-1.021-0.454-1.021-1.021c0-0.539,0.454-0.992,1.021-0.992h23.698c0.539,0,0.992,0.453,0.992,0.992  c0,0.566-0.454,1.021-0.992,1.021H20.165z" />
   
   </svg>