<svg width="396" height="36" viewBox="0 0 396 36" fill="none" xmlns="http://www.w3.org/2000/svg">
<path d="M29.0781 35H20.8984L8.80469 13.7656V35H0.578125V0.875H8.80469L20.875 22.1094V0.875H29.0781V35ZM55.4453 20.5391H42.5078V28.6719H57.7891V35H34.2812V0.875H57.8359V7.22656H42.5078V14.4219H55.4453V20.5391ZM87.5781 22.2734L91.4922 0.875H99.6484L92.4062 35H83.875L79.3047 15.5469L74.8281 35H66.3203L59.0547 0.875H67.2344L71.1484 22.2734L75.8359 0.875H82.8203L87.5781 22.2734ZM142.422 23.4453C142.312 25.8203 141.672 27.9219 140.5 29.75C139.328 31.5625 137.68 32.9688 135.555 33.9688C133.445 34.9688 131.031 35.4688 128.312 35.4688C123.828 35.4688 120.297 34.0078 117.719 31.0859C115.141 28.1641 113.852 24.0391 113.852 18.7109V17.0234C113.852 13.6797 114.43 10.7578 115.586 8.25781C116.758 5.74219 118.438 3.80469 120.625 2.44531C122.812 1.07031 125.344 0.382812 128.219 0.382812C132.359 0.382812 135.688 1.47656 138.203 3.66406C140.719 5.83594 142.148 8.83594 142.492 12.6641H134.289C134.227 10.5859 133.703 9.09375 132.719 8.1875C131.734 7.28125 130.234 6.82812 128.219 6.82812C126.172 6.82812 124.672 7.59375 123.719 9.125C122.766 10.6562 122.266 13.1016 122.219 16.4609V18.875C122.219 22.5156 122.672 25.1172 123.578 26.6797C124.5 28.2422 126.078 29.0234 128.312 29.0234C130.203 29.0234 131.648 28.5781 132.648 27.6875C133.648 26.7969 134.18 25.3828 134.242 23.4453H142.422ZM175.211 18.6406C175.211 21.9688 174.594 24.9141 173.359 27.4766C172.125 30.0391 170.367 32.0156 168.086 33.4062C165.82 34.7812 163.234 35.4688 160.328 35.4688C157.422 35.4688 154.844 34.8047 152.594 33.4766C150.344 32.1328 148.586 30.2188 147.32 27.7344C146.07 25.25 145.414 22.3984 145.352 19.1797V17.2578C145.352 13.9141 145.961 10.9688 147.18 8.42188C148.414 5.85938 150.172 3.88281 152.453 2.49219C154.75 1.10156 157.359 0.40625 160.281 0.40625C163.172 0.40625 165.75 1.09375 168.016 2.46875C170.281 3.84375 172.039 5.80469 173.289 8.35156C174.555 10.8828 175.195 13.7891 175.211 17.0703V18.6406ZM166.844 17.2109C166.844 13.8203 166.273 11.25 165.133 9.5C164.008 7.73438 162.391 6.85156 160.281 6.85156C156.156 6.85156 153.977 9.94531 153.742 16.1328L153.719 18.6406C153.719 21.9844 154.273 24.5547 155.383 26.3516C156.492 28.1484 158.141 29.0469 160.328 29.0469C162.406 29.0469 164.008 28.1641 165.133 26.3984C166.258 24.6328 166.828 22.0938 166.844 18.7812V17.2109ZM187.68 28.6719H202V35H179.453V0.875H187.68V28.6719ZM213.695 28.6719H228.016V35H205.469V0.875H213.695V28.6719ZM252.648 20.5391H239.711V28.6719H254.992V35H231.484V0.875H255.039V7.22656H239.711V14.4219H252.648V20.5391ZM285.953 23.4453C285.844 25.8203 285.203 27.9219 284.031 29.75C282.859 31.5625 281.211 32.9688 279.086 33.9688C276.977 34.9688 274.562 35.4688 271.844 35.4688C267.359 35.4688 263.828 34.0078 261.25 31.0859C258.672 28.1641 257.383 24.0391 257.383 18.7109V17.0234C257.383 13.6797 257.961 10.7578 259.117 8.25781C260.289 5.74219 261.969 3.80469 264.156 2.44531C266.344 1.07031 268.875 0.382812 271.75 0.382812C275.891 0.382812 279.219 1.47656 281.734 3.66406C284.25 5.83594 285.68 8.83594 286.023 12.6641H277.82C277.758 10.5859 277.234 9.09375 276.25 8.1875C275.266 7.28125 273.766 6.82812 271.75 6.82812C269.703 6.82812 268.203 7.59375 267.25 9.125C266.297 10.6562 265.797 13.1016 265.75 16.4609V18.875C265.75 22.5156 266.203 25.1172 267.109 26.6797C268.031 28.2422 269.609 29.0234 271.844 29.0234C273.734 29.0234 275.18 28.5781 276.18 27.6875C277.18 26.7969 277.711 25.3828 277.773 23.4453H285.953ZM315.93 7.22656H305.688V35H297.461V7.22656H287.406V0.875H315.93V7.22656ZM328.188 35H319.984V0.875H328.188V35ZM362.805 18.6406C362.805 21.9688 362.188 24.9141 360.953 27.4766C359.719 30.0391 357.961 32.0156 355.68 33.4062C353.414 34.7812 350.828 35.4688 347.922 35.4688C345.016 35.4688 342.438 34.8047 340.188 33.4766C337.938 32.1328 336.18 30.2188 334.914 27.7344C333.664 25.25 333.008 22.3984 332.945 19.1797V17.2578C332.945 13.9141 333.555 10.9688 334.773 8.42188C336.008 5.85938 337.766 3.88281 340.047 2.49219C342.344 1.10156 344.953 0.40625 347.875 0.40625C350.766 0.40625 353.344 1.09375 355.609 2.46875C357.875 3.84375 359.633 5.80469 360.883 8.35156C362.148 10.8828 362.789 13.7891 362.805 17.0703V18.6406ZM354.438 17.2109C354.438 13.8203 353.867 11.25 352.727 9.5C351.602 7.73438 349.984 6.85156 347.875 6.85156C343.75 6.85156 341.57 9.94531 341.336 16.1328L341.312 18.6406C341.312 21.9844 341.867 24.5547 342.977 26.3516C344.086 28.1484 345.734 29.0469 347.922 29.0469C350 29.0469 351.602 28.1641 352.727 26.3984C353.852 24.6328 354.422 22.0938 354.438 18.7812V17.2109ZM395.547 35H387.367L375.273 13.7656V35H367.047V0.875H375.273L387.344 22.1094V0.875H395.547V35Z" fill="#FF7A00"/>
</svg>
