<svg width="22" height="31" viewBox="0 0 22 31" fill="none" xmlns="http://www.w3.org/2000/svg">
<g id="Group">
<path id="Vector" d="M21.4338 3.20344H17.3628C17.0958 2.30248 16.2616 1.66846 15.2939 1.66846H13.5587C13.2584 0.700754 12.3574 0 11.323 0C10.2885 0 9.38754 0.700754 9.08722 1.66846H7.35202C6.38431 1.66846 5.55008 2.30248 5.28313 3.20344H1.21209C0.945132 3.20344 0.711548 3.43703 0.711548 3.70398V30.4995C0.711548 30.7664 0.945132 31 1.21209 31H21.4338C21.7008 31 21.9344 30.7664 21.9344 30.4995V3.70398C21.9344 3.43703 21.7008 3.20344 21.4338 3.20344ZM6.21747 3.80409C6.21747 3.77072 6.21747 3.73735 6.21747 3.73735C6.25084 3.13671 6.75137 2.66954 7.35202 2.66954H9.48765C9.7546 2.66954 9.95482 2.46932 9.98819 2.20237C10.0549 1.53498 10.6222 1.00108 11.323 1.00108C12.0237 1.00108 12.591 1.53498 12.6577 2.20237C12.6911 2.46932 12.8913 2.66954 13.1583 2.66954H15.2939C15.8945 2.66954 16.3951 3.13671 16.4284 3.73735C16.4284 3.77072 16.4284 3.80409 16.4284 3.80409V4.20452H6.21747V3.80409ZM20.9333 29.9989H1.71262V4.20452H5.18302V4.70506C5.18302 4.97201 5.41661 5.2056 5.68356 5.2056H16.929C17.1959 5.2056 17.4295 4.97201 17.4295 4.70506V4.20452H20.8999V29.9989H20.9333Z" fill="black"/>
<path id="Vector_2" d="M16.5953 25.4273H9.42095C9.15399 25.4273 8.92041 25.6609 8.92041 25.9279C8.92041 26.1948 9.15399 26.4284 9.42095 26.4284H16.5953C16.8623 26.4284 17.0959 26.1948 17.0959 25.9279C17.0959 25.6609 16.8623 25.4273 16.5953 25.4273Z" fill="black"/>
<path id="Vector_3" d="M18.4974 22.4241H9.42095C9.15399 22.4241 8.92041 22.6577 8.92041 22.9246C8.92041 23.1916 9.15399 23.4252 9.42095 23.4252H18.4974C18.7643 23.4252 18.9979 23.1916 18.9979 22.9246C18.9979 22.6577 18.7643 22.4241 18.4974 22.4241Z" fill="black"/>
<path id="Vector_4" d="M9.42095 19.4209H16.5953C16.8623 19.4209 17.0959 19.1873 17.0959 18.9203C17.0959 18.6534 16.8623 18.4198 16.5953 18.4198H9.42095C9.15399 18.4198 8.92041 18.6534 8.92041 18.9203C8.92041 19.1873 9.15399 19.4209 9.42095 19.4209Z" fill="black"/>
<path id="Vector_5" d="M18.4974 15.4166H9.42095C9.15399 15.4166 8.92041 15.6501 8.92041 15.9171C8.92041 16.1841 9.15399 16.4176 9.42095 16.4176H18.4974C18.7643 16.4176 18.9979 16.1841 18.9979 15.9171C18.9979 15.6501 18.7643 15.4166 18.4974 15.4166Z" fill="black"/>
<path id="Vector_6" d="M9.42095 12.4133H16.5953C16.8623 12.4133 17.0959 12.1798 17.0959 11.9128C17.0959 11.6458 16.8623 11.4123 16.5953 11.4123H9.42095C9.15399 11.4123 8.92041 11.6458 8.92041 11.9128C8.92041 12.1798 9.15399 12.4133 9.42095 12.4133Z" fill="black"/>
<path id="Vector_7" d="M8.92041 8.9096C8.92041 9.17655 9.15399 9.41013 9.42095 9.41013H18.4974C18.7643 9.41013 18.9979 9.17655 18.9979 8.9096C18.9979 8.64264 18.7643 8.40906 18.4974 8.40906H9.42095C9.15399 8.40906 8.92041 8.64264 8.92041 8.9096Z" fill="black"/>
<path id="Vector_8" d="M7.45212 8.60924C7.21854 8.4424 6.91821 8.50914 6.75137 8.70935L5.14965 10.9451L4.549 10.1109C4.38215 9.87727 4.08183 9.8439 3.84825 10.0107C3.61466 10.1776 3.58129 10.4779 3.74814 10.7115L4.74921 12.113C4.84932 12.2465 4.9828 12.3132 5.14965 12.3132C5.31649 12.3132 5.44997 12.2465 5.55008 12.113L7.55223 9.31C7.71908 9.07641 7.68571 8.77609 7.45212 8.60924Z" fill="black"/>
<path id="Vector_9" d="M7.45212 15.6168C7.21854 15.4499 6.91821 15.5167 6.75137 15.7169L5.14965 17.9526L4.549 17.1184C4.38215 16.8848 4.08183 16.8514 3.84825 17.0183C3.61466 17.1851 3.58129 17.4855 3.74814 17.719L4.74921 19.1205C4.84932 19.254 4.9828 19.3208 5.14965 19.3208C5.31649 19.3208 5.44997 19.254 5.55008 19.1205L7.55223 16.3175C7.71908 16.0839 7.68571 15.7836 7.45212 15.6168Z" fill="black"/>
<path id="Vector_10" d="M7.45212 22.6243C7.21854 22.4575 6.91821 22.5242 6.75137 22.7245L5.14965 24.9602L4.549 24.126C4.38215 23.8924 4.08183 23.859 3.84825 24.0259C3.61466 24.1927 3.58129 24.493 3.74814 24.7266L4.74921 26.1281C4.84932 26.2616 4.9828 26.3283 5.14965 26.3283C5.31649 26.3283 5.44997 26.2616 5.55008 26.1281L7.55223 23.3251C7.71908 23.0915 7.68571 22.7912 7.45212 22.6243Z" fill="black"/>
</g>
</svg>
