<svg width="40" height="39" viewBox="0 0 40 39" fill="none" xmlns="http://www.w3.org/2000/svg">
<g id="Group 20">
<path id="Vector" d="M21.4422 16.4532H17.5581C16.5864 16.4579 15.6426 16.1286 14.8846 15.5206C14.1266 14.9126 13.6005 14.0627 13.3942 13.1132L12.8116 10.4929L14.0011 10.2284L14.5837 12.8487C14.731 13.527 15.1069 14.1341 15.6483 14.5684C16.1898 15.0027 16.864 15.2378 17.5581 15.2344H21.4422C22.1363 15.2378 22.8105 15.0027 23.3519 14.5684C23.8934 14.1341 24.2692 13.527 24.4166 12.8487L24.9991 10.2284L26.1886 10.4929L25.6061 13.1132C25.3998 14.0627 24.8737 14.9126 24.1157 15.5206C23.3577 16.1286 22.4139 16.4579 21.4422 16.4532V16.4532Z" fill="black"/>
<path id="Vector_2" d="M25.3928 10.9688C25.2839 10.9687 25.1753 10.9595 25.068 10.9414C21.3832 10.3061 17.617 10.3061 13.9323 10.9414C13.4922 11.027 13.0359 10.9444 12.6538 10.7098C12.2717 10.4752 11.9916 10.1057 11.8689 9.67448L11.6209 8.64464C11.5715 8.4407 11.5651 8.22872 11.602 8.02216C11.6389 7.8156 11.7184 7.61897 11.8354 7.44478C11.9812 7.231 12.1694 7.04945 12.3883 6.91139C12.6071 6.77334 12.852 6.68173 13.1078 6.64224C17.3383 5.91221 21.6626 5.91221 25.8931 6.64224C26.1489 6.68217 26.3939 6.77429 26.6127 6.91287C26.8314 7.05146 27.0194 7.23355 27.1648 7.44783C27.2821 7.62259 27.3616 7.81988 27.3983 8.0271C27.4351 8.23433 27.4282 8.44693 27.3781 8.65134L27.1343 9.67266C27.0296 10.0517 26.8015 10.3849 26.4861 10.6197C26.1706 10.8545 25.7859 10.9773 25.3928 10.9688V10.9688ZM19.5001 9.24548C21.4355 9.24592 23.3673 9.41146 25.2745 9.7403C25.4113 9.77094 25.5545 9.75152 25.6782 9.68555C25.8019 9.61957 25.8978 9.51143 25.9485 9.38077L26.1923 8.35885C26.2022 8.31647 26.2029 8.27247 26.1944 8.22979C26.1859 8.18712 26.1683 8.14676 26.1429 8.11144C26.0886 8.03784 26.02 7.9759 25.9413 7.92932C25.8626 7.88274 25.7753 7.85245 25.6846 7.84027C21.5914 7.13459 17.4076 7.13459 13.3143 7.84027V7.84027C13.2237 7.85245 13.1364 7.88274 13.0577 7.92932C12.979 7.9759 12.9104 8.03784 12.8561 8.11144C12.831 8.14622 12.8135 8.18591 12.8048 8.22791C12.7961 8.26992 12.7963 8.31329 12.8055 8.35519L13.0529 9.38442C13.1043 9.51351 13.2 9.62009 13.3228 9.68507C13.4457 9.75006 13.5876 9.7692 13.7232 9.73908C15.6313 9.41075 17.564 9.24562 19.5001 9.24548V9.24548Z" fill="black"/>
<path id="Vector_3" d="M13.4039 7.3674L12.1901 7.25771L12.4161 4.80071L13.6264 4.9494L13.6099 5.10052L13.4039 7.3674Z" fill="black"/>
<path id="Vector_4" d="M25.5939 7.36739L25.388 5.09808C25.2959 4.03668 24.8083 3.04866 24.0217 2.33007C23.2352 1.61148 22.2072 1.21482 21.1419 1.2188H17.8585C17.0081 1.21619 16.1765 1.4689 15.4713 1.94421C14.7661 2.41952 14.2198 3.09555 13.9031 3.88481L12.7733 3.42778C13.1804 2.41304 13.8827 1.54386 14.7894 0.93274C15.696 0.321623 16.7652 -0.00329222 17.8585 5.28778e-05H21.1419C22.5122 -0.0059754 23.8347 0.50363 24.8467 1.42766C25.8586 2.35168 26.486 3.62253 26.6043 4.98778L26.8127 7.2577L25.5939 7.36739Z" fill="black"/>
<path id="Vector_5" d="M22.547 7.31255H21.3282V6.0938C21.3282 5.93219 21.264 5.77719 21.1498 5.66291C21.0355 5.54863 20.8805 5.48443 20.7189 5.48443H18.2814C18.1198 5.48443 17.9648 5.54863 17.8505 5.66291C17.7362 5.77719 17.672 5.93219 17.672 6.0938V7.31255H16.4532V6.0938C16.4532 5.60895 16.6459 5.14396 16.9887 4.80112C17.3315 4.45828 17.7965 4.26568 18.2814 4.26568H20.7189C21.2037 4.26568 21.6687 4.45828 22.0115 4.80112C22.3544 5.14396 22.547 5.60895 22.547 6.0938V7.31255Z" fill="black"/>
<path id="Vector_6" d="M18.8907 0.609428H17.672V4.87505H18.8907V0.609428Z" fill="black"/>
<path id="Vector_7" d="M21.3282 0.609428H20.1095V4.87505H21.3282V0.609428Z" fill="black"/>
<path id="Vector_8" d="M17.6691 9.68918L16.4564 9.81046L17.0658 15.9043L18.2785 15.783L17.6691 9.68918Z" fill="black"/>
<path id="Vector_9" d="M21.3318 9.68938L20.7218 15.7831L21.9345 15.9045L22.5444 9.81077L21.3318 9.68938Z" fill="black"/>
<path id="Vector_10" d="M19.5002 12.1875C16.0542 12.1875 14.4814 12.1875 13.134 11.5142L13.6788 10.4234C14.769 10.9688 16.2516 10.9688 19.5002 10.9688C22.7487 10.9688 24.2313 10.9688 25.3215 10.4234L25.8663 11.5142C24.519 12.1875 22.9462 12.1875 19.5002 12.1875Z" fill="black"/>
<path id="Vector_11" d="M19.5002 14.625C16.1127 14.625 15.0907 14.625 13.7434 13.9517L14.2882 12.8609C15.3784 13.4063 16.1699 13.4063 19.5002 13.4063C22.8304 13.4063 23.622 13.4063 24.7121 12.8609L25.2569 13.9517C23.9096 14.625 22.8877 14.625 19.5002 14.625Z" fill="black"/>
<path id="Vector_12" d="M19.5001 19.5C18.6923 19.4991 17.9179 19.1777 17.3467 18.6066C16.7755 18.0354 16.4542 17.2609 16.4532 16.4532V15.8438H17.672V16.4532C17.672 16.938 17.8646 17.403 18.2074 17.7458C18.5503 18.0887 19.0153 18.2813 19.5001 18.2813C19.985 18.2813 20.45 18.0887 20.7928 17.7458C21.1356 17.403 21.3282 16.938 21.3282 16.4532V15.8438H22.547V16.4532C22.546 17.2609 22.2247 18.0354 21.6535 18.6066C21.0823 19.1777 20.3079 19.4991 19.5001 19.5V19.5Z" fill="black"/>
<path id="Vector_13" d="M3.047 23.1563H1.82825C1.82825 18.352 6.74163 14.625 10.9689 14.625C13.1665 14.4901 15.3611 14.9323 17.335 15.9078L16.7902 16.9986C14.985 16.1086 12.9771 15.7103 10.9689 15.8438C7.3053 15.8438 3.047 19.0381 3.047 23.1563Z" fill="black"/>
<path id="Vector_14" d="M4.26574 28.0313C2.74231 28.0313 1.82825 26.2086 1.82825 23.1563H3.047C3.047 25.2403 3.57106 26.8125 4.26574 26.8125V28.0313Z" fill="black"/>
<path id="Vector_15" d="M12.797 31.6875H10.3595V30.4688H12.797C12.9586 30.4688 13.1136 30.4046 13.2279 30.2903C13.3422 30.176 13.4064 30.021 13.4064 29.8594C13.4064 29.6978 13.3422 29.5428 13.2279 29.4285C13.1136 29.3142 12.9586 29.25 12.797 29.25H9.75012V28.0313H12.797C13.2818 28.0313 13.7468 28.2239 14.0897 28.5667C14.4325 28.9096 14.6251 29.3745 14.6251 29.8594C14.6251 30.3442 14.4325 30.8092 14.0897 31.1521C13.7468 31.4949 13.2818 31.6875 12.797 31.6875Z" fill="black"/>
<path id="Vector_16" d="M12.1876 34.125H10.3595C8.39487 34.125 7.31262 33.0428 7.31262 31.0781V28.0313C7.31262 27.3848 7.56943 26.7648 8.02655 26.3077C8.48367 25.8506 9.10365 25.5938 9.75012 25.5938H12.1876C12.6725 25.5938 13.1375 25.7864 13.4803 26.1292C13.8231 26.4721 14.0157 26.937 14.0157 27.4219C14.0157 27.9067 13.8231 28.3717 13.4803 28.7146C13.1375 29.0574 12.6725 29.25 12.1876 29.25H10.3595V28.0313H12.1876C12.3492 28.0313 12.5042 27.9671 12.6185 27.8528C12.7328 27.7385 12.797 27.5835 12.797 27.4219C12.797 27.2603 12.7328 27.1053 12.6185 26.991C12.5042 26.8767 12.3492 26.8125 12.1876 26.8125H9.75012C9.42689 26.8125 9.11689 26.9409 8.88833 27.1695C8.65977 27.398 8.53137 27.708 8.53137 28.0313V31.0781C8.53137 32.3767 9.06092 32.9063 10.3595 32.9063H12.1876C12.3492 32.9063 12.5042 32.8421 12.6185 32.7278C12.7328 32.6135 12.797 32.4585 12.797 32.2969C12.797 32.1353 12.7328 31.9803 12.6185 31.866C12.5042 31.7517 12.3492 31.6875 12.1876 31.6875H9.75012V30.4688H12.1876C12.6725 30.4688 13.1375 30.6614 13.4803 31.0042C13.8231 31.3471 14.0157 31.812 14.0157 32.2969C14.0157 32.7817 13.8231 33.2467 13.4803 33.5896C13.1375 33.9324 12.6725 34.125 12.1876 34.125V34.125Z" fill="black"/>
<path id="Vector_17" d="M9.75012 26.8125H8.53137V26.2032C8.53128 26.1086 8.55319 26.0154 8.59536 25.9308L9.51307 24.0959C9.61132 23.8938 9.74871 23.7131 9.91727 23.5643C10.0858 23.4156 10.2822 23.3018 10.4951 23.2295C10.7079 23.1572 10.933 23.1279 11.1573 23.1431C11.3816 23.1584 11.6006 23.2181 11.8016 23.3186C12.0027 23.4191 12.1818 23.5585 12.3287 23.7287C12.4755 23.8989 12.5871 24.0966 12.657 24.3102C12.7269 24.5239 12.7537 24.7493 12.7359 24.9734C12.7181 25.1975 12.656 25.4158 12.5532 25.6157L12.1267 26.4755L11.0359 25.9308L11.4661 25.0709C11.5232 24.9568 11.5326 24.8247 11.4922 24.7037C11.4519 24.5827 11.3651 24.4827 11.251 24.4256C11.1369 24.3686 11.0048 24.3592 10.8838 24.3995C10.7628 24.4399 10.6627 24.5266 10.6057 24.6407L9.75256 26.347L9.75012 26.8125Z" fill="black"/>
<path id="Vector_18" d="M3.68688 34.7344C2.88806 34.7338 2.11083 34.475 1.47119 33.9964C0.969034 33.6268 0.571082 33.1335 0.316045 32.5645C0.0610077 31.9955 -0.0424333 31.3702 0.0157829 30.7494C0.0739991 30.1286 0.291891 29.5334 0.648265 29.0218C1.00464 28.5101 1.48736 28.0994 2.04949 27.8296L3.99766 26.8735C4.08122 26.833 4.17293 26.8121 4.26578 26.8125H6.09391V28.0313H4.40716L2.58635 28.9252C2.21194 29.103 1.89009 29.3749 1.65228 29.7143C1.41447 30.0538 1.26885 30.4491 1.22966 30.8617C1.19048 31.2743 1.25907 31.69 1.42873 32.0682C1.59839 32.4463 1.86331 32.774 2.19757 33.019C2.51316 33.2551 2.88013 33.4132 3.2685 33.4803C3.65686 33.5475 4.0556 33.5218 4.43214 33.4053L8.35529 32.2207L8.70751 33.3877L4.78497 34.5723C4.42887 34.6799 4.05888 34.7345 3.68688 34.7344V34.7344Z" fill="black"/>
<path id="Vector_19" d="M19.5001 21.3282C18.2076 21.3267 16.9685 20.8126 16.0546 19.8987C15.1407 18.9848 14.6266 17.7456 14.6251 16.4532V15.8438H15.8439V16.4532C15.8448 17.4226 16.2304 18.352 16.9158 19.0374C17.6013 19.7229 18.5307 20.1084 19.5001 20.1094V21.3282Z" fill="black"/>
<path id="Vector_20" d="M37.172 23.1563H35.9532C35.9532 19.0381 31.6949 15.8438 28.0314 15.8438V14.625C32.2586 14.625 37.172 18.352 37.172 23.1563Z" fill="black"/>
<path id="Vector_21" d="M22.2099 17.0016L21.6652 15.9108C23.2546 15.1003 25.0091 14.666 26.793 14.6415L26.8327 15.8602C25.224 15.8763 23.6412 16.2671 22.2099 17.0016Z" fill="black"/>
<path id="Vector_22" d="M34.7345 28.0313V26.8125C35.4292 26.8125 35.9532 25.2403 35.9532 23.1563H37.172C37.172 26.2086 36.261 28.0313 34.7345 28.0313Z" fill="black"/>
<path id="Vector_23" d="M28.6407 31.6875H26.2032C25.7184 31.6875 25.2534 31.4949 24.9106 31.1521C24.5677 30.8092 24.3751 30.3442 24.3751 29.8594C24.3751 29.3745 24.5677 28.9096 24.9106 28.5667C25.2534 28.2239 25.7184 28.0313 26.2032 28.0313H29.2501V29.25H26.2032C26.0416 29.25 25.8866 29.3142 25.7724 29.4285C25.6581 29.5428 25.5939 29.6978 25.5939 29.8594C25.5939 30.021 25.6581 30.176 25.7724 30.2903C25.8866 30.4046 26.0416 30.4688 26.2032 30.4688H28.6407V31.6875Z" fill="black"/>
<path id="Vector_24" d="M28.6407 34.125H26.8126C26.3278 34.125 25.8628 33.9324 25.5199 33.5896C25.1771 33.2467 24.9845 32.7817 24.9845 32.2969C24.9845 31.812 25.1771 31.3471 25.5199 31.0042C25.8628 30.6614 26.3278 30.4688 26.8126 30.4688H29.2501V31.6875H26.8126C26.651 31.6875 26.496 31.7517 26.3817 31.866C26.2674 31.9803 26.2032 32.1353 26.2032 32.2969C26.2032 32.4585 26.2674 32.6135 26.3817 32.7278C26.496 32.8421 26.651 32.9063 26.8126 32.9063H28.6407C29.9393 32.9063 30.4689 32.3767 30.4689 31.0781V28.0313C30.4689 27.708 30.3405 27.398 30.1119 27.1695C29.8833 26.9409 29.5733 26.8125 29.2501 26.8125H26.8126C26.651 26.8125 26.496 26.8767 26.3817 26.991C26.2674 27.1053 26.2032 27.2603 26.2032 27.4219C26.2032 27.5835 26.2674 27.7385 26.3817 27.8528C26.496 27.9671 26.651 28.0313 26.8126 28.0313H28.6407V29.25H26.8126C26.3278 29.25 25.8628 29.0574 25.5199 28.7146C25.1771 28.3717 24.9845 27.9067 24.9845 27.4219C24.9845 26.937 25.1771 26.4721 25.5199 26.1292C25.8628 25.7864 26.3278 25.5938 26.8126 25.5938H29.2501C29.8966 25.5938 30.5166 25.8506 30.9737 26.3077C31.4308 26.7648 31.6876 27.3848 31.6876 28.0313V31.0781C31.6876 33.0428 30.6054 34.125 28.6407 34.125Z" fill="black"/>
<path id="Vector_25" d="M30.4688 26.8125H29.25V26.347L28.3969 24.6407C28.3693 24.5832 28.3306 24.5317 28.2829 24.4892C28.2352 24.4468 28.1795 24.4143 28.1191 24.3936C28.0587 24.3729 27.9948 24.3645 27.9312 24.3688C27.8675 24.373 27.8053 24.3899 27.7482 24.4185C27.6911 24.4471 27.6403 24.4867 27.5987 24.5351C27.5571 24.5835 27.5255 24.6397 27.5059 24.7005C27.4862 24.7612 27.4789 24.8252 27.4842 24.8888C27.4896 24.9524 27.5076 25.0143 27.5371 25.0709L27.9673 25.9308L26.8765 26.4755L26.45 25.6157C26.3472 25.4158 26.2851 25.1975 26.2673 24.9734C26.2495 24.7493 26.2763 24.5239 26.3462 24.3102C26.4161 24.0966 26.5277 23.8989 26.6745 23.7287C26.8214 23.5585 27.0005 23.4191 27.2016 23.3186C27.4026 23.2181 27.6217 23.1584 27.8459 23.1431C28.0702 23.1279 28.2953 23.1572 28.5081 23.2295C28.721 23.3018 28.9174 23.4156 29.0859 23.5643C29.2545 23.7131 29.3919 23.8938 29.4901 24.0959L30.4078 25.9308C30.449 26.0156 30.4698 26.1089 30.4688 26.2032V26.8125Z" fill="black"/>
<path id="Vector_26" d="M35.3134 34.7344C34.9417 34.7339 34.5721 34.6789 34.2165 34.5711L30.2927 33.3877L30.6449 32.2207L34.5681 33.4053C34.9446 33.5218 35.3434 33.5475 35.7317 33.4803C36.1201 33.4132 36.4871 33.2551 36.8027 33.019C37.1369 32.774 37.4018 32.4463 37.5715 32.0682C37.7412 31.69 37.8098 31.2743 37.7706 30.8617C37.7314 30.4491 37.5858 30.0538 37.348 29.7143C37.1102 29.3749 36.7883 29.103 36.4139 28.9252L34.5931 28.0313H32.9063V26.8125H34.7345C34.8273 26.8121 34.919 26.833 35.0026 26.8735L36.9526 27.8296C37.5147 28.0994 37.9974 28.5101 38.3538 29.0218C38.7102 29.5334 38.9281 30.1286 38.9863 30.7494C39.0445 31.3702 38.9411 31.9955 38.686 32.5645C38.431 33.1335 38.033 33.6268 37.5309 33.9964C36.8907 34.4753 36.1128 34.7342 35.3134 34.7344V34.7344Z" fill="black"/>
<path id="Vector_27" d="M19.5001 21.3282V20.1094C20.4695 20.1084 21.3989 19.7229 22.0844 19.0374C22.7699 18.352 23.1554 17.4226 23.1564 16.4532V15.8438H24.3751V16.4532C24.3737 17.7456 23.8596 18.9848 22.9457 19.8987C22.0317 20.8126 20.7926 21.3267 19.5001 21.3282Z" fill="black"/>
<path id="Vector_28" d="M13.1566 27.0928L12.4375 26.1093C14.4915 24.6141 16.9598 23.795 19.5001 23.7657C22.0403 23.7948 24.5084 24.6137 26.5622 26.1087L25.8431 27.0922C23.9986 25.7487 21.7819 25.0121 19.5001 24.9844C17.2181 25.012 15.0011 25.7489 13.1566 27.0928V27.0928Z" fill="black"/>
<path id="Vector_29" d="M19.5001 35.9531C16.96 35.924 14.4919 35.1051 12.4381 33.6101L13.1572 32.6266C15.0017 33.9701 17.2184 34.7067 19.5001 34.7344C21.7822 34.7068 23.9992 33.9699 25.8437 32.626L26.5628 33.6095C24.5088 35.1047 22.0405 35.9238 19.5001 35.9531V35.9531Z" fill="black"/>
<path id="Vector_30" d="M15.3564 28.0185L15.1127 26.8253L15.1809 26.8125C16.5983 26.4743 18.0445 26.2702 19.5002 26.2031C20.997 26.2209 22.4852 26.4331 23.9273 26.8345L23.6043 28.0093C22.2669 27.6394 20.8877 27.442 19.5002 27.4219C18.1276 27.4903 16.7644 27.6853 15.4277 28.0045L15.3564 28.0185Z" fill="black"/>
<path id="Vector_31" d="M20.1095 25.5938H18.8907V28.6406H20.1095V25.5938Z" fill="black"/>
<path id="Vector_32" d="M22.547 25.5938H21.3282V28.6406H22.547V25.5938Z" fill="black"/>
<path id="Vector_33" d="M17.672 25.5938H16.4532V28.6406H17.672V25.5938Z" fill="black"/>
<path id="Vector_34" d="M8.53135 22.5469C8.47846 22.547 8.4258 22.54 8.37474 22.5262C8.29122 22.5041 8.21336 22.4644 8.14633 22.4099C8.0793 22.3554 8.02464 22.2872 7.98596 22.2099L5.54846 17.3349L6.63924 16.7902L8.76779 21.0479L9.57399 20.5104L7.37658 16.1162L8.46737 15.5714L10.9049 20.4464C10.9712 20.5792 10.9868 20.7318 10.9486 20.8753C10.9105 21.0188 10.8212 21.1434 10.6977 21.2258L8.86955 22.4445C8.76929 22.5111 8.65168 22.5467 8.53135 22.5469V22.5469Z" fill="black"/>
<path id="Vector_35" d="M4.8751 24.9844C4.82221 24.9845 4.76955 24.9775 4.71849 24.9637C4.63497 24.9415 4.55711 24.9019 4.49008 24.8474C4.42305 24.7928 4.36839 24.7247 4.32971 24.6474L2.50159 20.9912L3.59237 20.4464L5.11154 23.4853L5.91774 22.9479L3.72034 18.5537L4.81112 18.0089L7.24861 22.8839C7.31497 23.0167 7.33054 23.1692 7.29239 23.3128C7.25424 23.4563 7.165 23.5809 7.04143 23.6633L5.2133 24.882C5.11304 24.9486 4.99543 24.9842 4.8751 24.9844Z" fill="black"/>
<path id="Vector_36" d="M30.4689 22.5469C30.3485 22.5469 30.2308 22.5113 30.1307 22.4445L28.3025 21.2258C28.179 21.1434 28.0897 21.0188 28.0516 20.8753C28.0134 20.7318 28.029 20.5792 28.0954 20.4464L30.5329 15.5714L31.6236 16.1162L29.4262 20.5104L30.2324 21.0479L32.361 16.7902L33.4518 17.3349L31.0143 22.2099C30.9756 22.2872 30.9209 22.3554 30.8539 22.4099C30.7869 22.4644 30.709 22.5041 30.6255 22.5262C30.5744 22.54 30.5218 22.547 30.4689 22.5469V22.5469Z" fill="black"/>
<path id="Vector_37" d="M34.1251 24.9844C34.0048 24.9844 33.8871 24.9488 33.7869 24.882L31.9588 23.6633C31.8352 23.5809 31.746 23.4563 31.7078 23.3128C31.6697 23.1692 31.6852 23.0167 31.7516 22.8839L34.1891 18.0089L35.2799 18.5537L33.0825 22.9479L33.8887 23.4853L35.4079 20.4464L36.4986 20.9912L34.6705 24.6474C34.6318 24.7247 34.5772 24.7928 34.5101 24.8474C34.4431 24.9019 34.3653 24.9415 34.2817 24.9637C34.2307 24.9775 34.178 24.9845 34.1251 24.9844V24.9844Z" fill="black"/>
<path id="Vector_38" d="M27.422 39H11.5783C11.4424 39 11.3105 38.9546 11.2034 38.871C11.0963 38.7874 11.0202 38.6705 10.9872 38.5387L10.2255 35.4918L11.4083 35.1963L12.0542 37.7813H26.9461L28.0497 33.3676L29.2318 33.6637L28.0131 38.5387C27.9801 38.6705 27.904 38.7874 27.7969 38.871C27.6898 38.9546 27.5579 39 27.422 39Z" fill="black"/>
</g>
</svg>
