<svg width="48" height="26" viewBox="0 0 48 26" fill="none" xmlns="http://www.w3.org/2000/svg">
<g id="Group 21">
<path id="Vector" d="M25 9.5H23V16.5H25V9.5Z" fill="black"/>
<path id="Vector_2" d="M43 0H5C2.24316 0 0 2.24316 0 5V21C0 23.7568 2.24316 26 5 26H43C45.7568 26 48 23.7568 48 21V5C48 2.24316 45.7568 0 43 0ZM24 9C26.2056 9 28 10.7944 28 13C28 15.2056 26.2056 17 24 17C21.7944 17 20 15.2056 20 13C20 10.7944 21.7944 9 24 9ZM2 7.09033C4.83313 7.56866 7 10.0328 7 13C7 15.9672 4.83313 18.4313 2 18.9097V7.09033ZM43 24H5C3.3457 24 2 22.6543 2 21V20.9305C5.93994 20.4359 9 17.0718 9 13C9 8.92822 5.93994 5.56409 2 5.06946V5C2 3.3457 3.3457 2 5 2H23V7.09033C20.1669 7.56866 18 10.0328 18 13C18 16.3086 20.6914 19 24 19C27.3086 19 30 16.3086 30 13C30 10.0328 27.8331 7.56866 25 7.09033V2H43C44.6543 2 46 3.3457 46 5V5.06946C42.0601 5.56409 39 8.92822 39 13C39 17.0718 42.0601 20.4359 46 20.9305V21C46 22.6543 44.6543 24 43 24ZM46 7.09033V18.9097C43.1669 18.4313 41 15.9672 41 13C41 10.0328 43.1669 7.56866 46 7.09033Z" fill="black"/>
</g>
</svg>
