<svg width="37" height="38" viewBox="0 0 37 38" fill="none" xmlns="http://www.w3.org/2000/svg">
<path id="Vector" d="M19.4582 18.1311V11.0149C19.4582 10.4919 19.0291 10.0674 18.5003 10.0674C17.9715 10.0674 17.5423 10.4919 17.5423 11.0149V18.1316C15.6029 18.5651 14.1496 20.2797 14.1496 22.3264C14.1496 24.6991 16.101 26.6298 18.5003 26.6298C20.5695 26.6298 22.3029 25.1918 22.7412 23.274H28.7185C29.2473 23.274 29.6765 22.8495 29.6765 22.3264C29.6765 21.8034 29.2473 21.3789 28.7185 21.3789H22.7412C22.3729 19.7656 21.0887 18.4959 19.4582 18.1311ZM18.5003 24.7346C17.1577 24.7346 16.0656 23.6544 16.0656 22.3264C16.0656 20.9984 17.1577 19.9182 18.5003 19.9182C19.8429 19.9182 20.935 20.9984 20.935 22.3264C20.935 23.6544 19.8429 24.7346 18.5003 24.7346ZM36.7195 8.14381L34.3495 5.79954L34.349 5.79907C34.349 5.79859 34.3485 5.79859 34.348 5.79859L31.682 3.16106C31.3079 2.79104 30.7015 2.79104 30.3274 3.16106C29.9533 3.53061 29.9533 4.13089 30.3274 4.50091L32.3171 6.46899L28.5374 10.2071C26.8581 8.84405 24.8904 7.81832 22.7407 7.22704V3.31646C22.7407 1.48814 21.2362 0 19.3878 0H17.6122C15.7638 0 14.2593 1.48814 14.2593 3.31646V7.22704C12.1101 7.81832 10.1419 8.84405 8.46262 10.2071L4.68293 6.46899L6.67265 4.50091C7.04673 4.13089 7.04673 3.53061 6.67265 3.16106C6.29856 2.79104 5.69216 2.79104 5.31807 3.16106L2.65203 5.79859C2.65155 5.79859 2.65107 5.79859 2.65107 5.79907L2.65059 5.79954L0.280567 8.14381C-0.0935222 8.51383 -0.0935222 9.11411 0.280567 9.48365C0.46785 9.6689 0.712613 9.76129 0.957854 9.76129C1.2031 9.76129 1.44786 9.6689 1.63514 9.48365L3.32836 7.80884L7.05823 11.4982C4.33279 14.3143 2.65299 18.1287 2.65299 22.3259C2.65299 30.9686 9.76211 38 18.4998 38C27.2375 38 34.3466 30.9686 34.3466 22.3259C34.3466 18.1287 32.6668 14.3143 29.9413 11.4982L33.6712 7.80884L35.3644 9.48365C35.5517 9.6689 35.7965 9.76129 36.0417 9.76129C36.287 9.76129 36.5317 9.6689 36.719 9.48365C37.0936 9.11411 37.0936 8.51383 36.7195 8.14381ZM16.1753 3.31599C16.1753 2.53235 16.82 1.89465 17.6122 1.89465H19.3878C20.1801 1.89465 20.8248 2.53235 20.8248 3.31599V6.82196C20.0656 6.71109 19.2896 6.65187 18.4998 6.65187C17.7099 6.65187 16.934 6.71109 16.1748 6.82196V3.31599H16.1753ZM32.4311 22.3264C32.4311 29.9239 26.1818 36.1054 18.5003 36.1054C10.8188 36.1054 4.56941 29.9239 4.56941 22.3264C4.56941 14.7284 10.8188 8.54747 18.5003 8.54747C26.1818 8.54747 32.4311 14.7279 32.4311 22.3264Z" fill="black"/>
</svg>
