<svg width="32" height="24" viewBox="0 0 32 24" fill="none" xmlns="http://www.w3.org/2000/svg">
<g id="Group">
<path id="Vector" d="M8.52742 0C4.31423 0 0.794888 3.37504 0.863788 7.60232C0.919248 11.005 3.42911 14.2716 6.19767 17.0439C8.96624 19.8163 12.1294 22.1381 13.8 23.3587L14.3518 23.7266L14.9036 23.3587C16.5729 22.139 19.7864 19.7608 22.5672 16.9826C22.8433 16.7068 23.096 16.4082 23.3642 16.1243L22.6285 14.4689L22.5059 14.1624C22.0706 14.6638 21.6387 15.1525 21.1571 15.6338C20.4045 16.3856 19.6475 17.1275 18.8886 17.7796C17.1918 19.2381 15.5465 20.3973 14.3518 21.2742C12.8826 20.195 10.7994 18.6179 8.71134 16.6761C8.34766 16.3378 7.96734 15.9938 7.60778 15.6338C4.98036 13.0027 2.86464 9.99308 2.82568 7.60232C2.77471 4.47566 5.37284 1.96189 8.52742 1.96189C10.6961 1.96189 12.5274 3.12921 13.4934 4.90472L14.3518 6.49876L15.2101 4.90472C16.1761 3.12921 18.0074 1.96189 20.1761 1.96189C20.5869 1.96189 21.2756 2.07367 21.6207 2.17647C24.0845 2.79466 25.8779 4.94592 25.8779 7.60232L27.4106 5.27258C26.4071 2.2236 23.5646 0 20.1761 0C17.7361 0 15.7464 1.28249 14.3518 3.06545C12.9571 1.28249 10.9674 0 8.52742 0ZM21.4636 4.37976L18.333 11.6832L16.4401 8.83999L13.9916 13.7332H10.6732V15.6951H15.2024L16.6815 12.7408L18.7085 15.7871L21.4636 9.35729L24.2417 15.8331L26.5599 12.166L27.5984 15.6951H31.3344V13.7332H29.0659L27.219 7.45671L24.5751 11.6372L21.4636 4.37976Z" fill="black"/>
</g>
</svg>
