<svg width="38" height="36" viewBox="0 0 38 36" fill="none" xmlns="http://www.w3.org/2000/svg">
<g id="Group">
<path id="Vector" d="M37.7383 11.2045C37.9913 7.25254 37.1973 3.90454 35.5383 2.24054C33.7853 0.49254 30.1613 -0.29746 25.9303 0.10154C25.848 0.0909032 25.7644 0.101223 25.6873 0.13154C24.2203 0.290224 22.7692 0.571541 21.3493 0.97254C21.2847 0.963984 21.219 0.968423 21.1562 0.985596C21.0933 1.00277 21.0345 1.03233 20.9833 1.07254C16.6977 2.30706 12.7886 4.59298 9.61127 7.72254C6.51969 10.8713 4.25539 14.7362 3.02027 18.9725C2.9427 19.0722 2.90684 19.198 2.92027 19.3235C2.51001 20.761 2.22198 22.2306 2.05927 23.7165C2.02971 23.7812 2.01404 23.8514 2.01327 23.9225C2.01615 23.9455 2.02049 23.9682 2.02627 23.9905C1.62627 28.2505 2.41727 31.9045 4.18027 33.6625C5.63527 35.1145 8.38027 35.9095 11.6903 35.9095C12.6362 35.9049 13.581 35.8421 14.5193 35.7215C14.5393 35.7215 14.5553 35.7385 14.5743 35.7385C14.6468 35.7381 14.7184 35.721 14.7833 35.6885C16.3736 35.4698 17.9411 35.1094 19.4673 34.6115C19.4743 34.6115 19.4813 34.6185 19.4883 34.6185C19.5938 34.6161 19.6956 34.5792 19.7783 34.5135C23.6618 33.2241 27.1959 31.057 30.1063 28.1805C33.324 24.8949 35.6426 20.8369 36.8393 16.3965C36.9096 16.2998 36.942 16.1806 36.9303 16.0615C37.3356 14.5406 37.6014 12.9858 37.7243 11.4165C37.7439 11.3477 37.7487 11.2754 37.7383 11.2045ZM25.6813 1.08154C29.6636 4.23445 33.3728 7.71781 36.7693 11.4945C36.677 12.7067 36.4932 13.9101 36.2193 15.0945C32.0502 10.1776 27.4142 5.67659 22.3763 1.65454C23.4636 1.38833 24.5678 1.19688 25.6813 1.08154V1.08154ZM27.8683 0.96454C31.0393 0.96454 33.5963 1.72054 34.8283 2.94854C36.0753 4.19354 36.8343 6.80554 36.8203 10.0365C33.8129 6.80088 30.587 3.77543 27.1653 0.98154C27.4013 0.97354 27.6383 0.96454 27.8683 0.96454ZM14.7283 34.7315C10.4864 31.4472 6.56674 27.7666 3.02227 23.7395C3.14595 22.5592 3.3555 21.3894 3.64927 20.2395C8.25599 25.1496 13.2015 29.7305 18.4493 33.9485C17.2307 34.3039 15.9867 34.5657 14.7283 34.7315V34.7315ZM4.89227 32.9545C3.54927 31.6175 2.78227 28.6975 2.92227 25.1335C6.10541 28.6627 9.5738 31.9237 13.2923 34.8835C9.46427 35.1455 6.30327 34.3635 4.89227 32.9545ZM29.4023 27.4745C26.6412 30.2301 23.2858 32.3168 19.5933 33.5745C14.0235 29.1491 8.79382 24.3119 3.94827 19.1035C5.16522 15.0441 7.37624 11.3527 10.3808 8.36404C13.3854 5.37536 17.0885 3.18395 21.1543 1.98854C22.9193 3.28854 28.4963 7.66954 35.9133 16.2595C34.7409 20.4945 32.4987 24.3566 29.4023 27.4745ZM24.4023 8.10354C24.4924 8.20087 24.5403 8.33004 24.5352 8.46263C24.5301 8.59522 24.4726 8.72037 24.3753 8.81054C24.2779 8.90071 24.1488 8.94853 24.0162 8.94346C23.8836 8.9384 23.7584 8.88088 23.6683 8.78354C23.2678 8.35338 22.8438 7.94576 22.3983 7.56254C22.1313 7.78354 21.7903 8.07254 21.3983 8.41254C21.8731 8.88257 22.316 9.38368 22.7243 9.91254C22.7672 9.96432 22.7993 10.0242 22.8186 10.0887C22.8378 10.1532 22.8439 10.2209 22.8364 10.2877C22.8288 10.3546 22.8079 10.4192 22.7748 10.4778C22.7417 10.5364 22.6971 10.5877 22.6437 10.6286C22.5903 10.6696 22.5292 10.6993 22.4641 10.7161C22.3989 10.7328 22.331 10.7363 22.2645 10.7262C22.198 10.7161 22.1342 10.6927 22.0769 10.6573C22.0197 10.622 21.9701 10.5755 21.9313 10.5205C21.5359 10.0096 21.1059 9.52649 20.6443 9.07454C20.2783 9.39954 19.8893 9.74954 19.4653 10.1405C19.7986 10.4945 20.1763 10.9019 20.5983 11.3625C20.6874 11.4609 20.7338 11.5907 20.7272 11.7233C20.7206 11.8559 20.6617 11.9804 20.5633 12.0695C20.4649 12.1587 20.3351 12.205 20.2025 12.1985C20.0699 12.1919 19.9454 12.1329 19.8563 12.0345C19.4433 11.5785 19.0673 11.1755 18.7343 10.8235C18.3423 11.1935 17.9343 11.5805 17.5173 11.9945C18.0433 12.5435 18.5073 13.0215 18.6733 13.1765C18.7637 13.2684 18.8151 13.3916 18.8169 13.5204C18.8186 13.6493 18.7706 13.7738 18.6828 13.8681C18.5949 13.9624 18.4741 14.0191 18.3454 14.0265C18.2168 14.0338 18.0903 13.9912 17.9923 13.9075C17.8083 13.7365 17.3263 13.2395 16.8103 12.7005C16.3313 13.1825 15.8433 13.6825 15.3443 14.2105C15.696 14.6273 16.0692 15.0255 16.4623 15.4035C16.5612 15.4919 16.621 15.6159 16.6285 15.7483C16.636 15.8807 16.5906 16.0106 16.5023 16.1095C16.414 16.2085 16.29 16.2683 16.1576 16.2758C16.0252 16.2833 15.8952 16.2379 15.7963 16.1495C15.3974 15.7698 15.0189 15.3692 14.6623 14.9495C14.3063 15.3369 13.9499 15.7335 13.5933 16.1395C13.9423 16.5105 14.3233 16.8975 14.7193 17.2655C14.8165 17.3558 14.8738 17.4811 14.8787 17.6137C14.8836 17.7462 14.8356 17.8753 14.7453 17.9725C14.655 18.0697 14.5297 18.1271 14.3972 18.132C14.2646 18.1368 14.1355 18.0888 14.0383 17.9985C13.6493 17.6365 13.2763 17.2605 12.9383 16.8985C12.6123 17.2805 12.2863 17.6665 11.9633 18.0635C12.299 18.4575 12.6736 18.8166 13.0813 19.1355C13.1692 19.196 13.2354 19.2829 13.2704 19.3837C13.3053 19.4845 13.3071 19.5938 13.2755 19.6957C13.2439 19.7976 13.1805 19.8867 13.0947 19.95C13.0088 20.0133 12.9049 20.0475 12.7983 20.0475C12.6932 20.0486 12.5905 20.016 12.5053 19.9545C12.0757 19.6285 11.68 19.2599 11.3243 18.8545C11.0203 19.2419 10.7203 19.6342 10.4243 20.0315C10.7103 20.3595 11.0183 20.6945 11.3323 21.0045C11.3833 21.0495 11.4247 21.1043 11.4538 21.1657C11.4829 21.2272 11.4992 21.2939 11.5017 21.3618C11.5041 21.4298 11.4927 21.4975 11.4681 21.5609C11.4435 21.6243 11.4062 21.682 11.3585 21.7305C11.3109 21.7789 11.2538 21.8172 11.1909 21.8429C11.1279 21.8686 11.0604 21.8811 10.9924 21.8798C10.9244 21.8785 10.8574 21.8634 10.7955 21.8353C10.7336 21.8072 10.678 21.7668 10.6323 21.7165C10.3453 21.4335 10.0673 21.1335 9.80427 20.8375C9.71841 20.9313 9.59963 20.9883 9.47274 20.9966C9.34585 21.0049 9.22067 20.9638 9.12335 20.882C9.02602 20.8001 8.96408 20.6839 8.95047 20.5574C8.93685 20.431 8.97261 20.3042 9.05027 20.2035C9.08227 20.1575 9.11727 20.1145 9.15027 20.0695C8.59127 19.3865 8.20127 18.8475 8.17427 18.8095C8.09984 18.7016 8.07077 18.5688 8.09332 18.4397C8.11587 18.3105 8.18823 18.1954 8.29482 18.1191C8.40142 18.0428 8.53372 18.0114 8.66323 18.0317C8.79274 18.052 8.90911 18.1223 8.98727 18.2275C8.99327 18.2355 9.30427 18.6665 9.76827 19.2425C10.0609 18.8532 10.3573 18.4702 10.6573 18.0935C10.0733 17.4015 9.61027 16.7935 9.57227 16.7395C9.53287 16.687 9.50421 16.6272 9.48791 16.5636C9.47162 16.5 9.46801 16.4338 9.47729 16.3688C9.48658 16.3038 9.50858 16.2413 9.54203 16.1848C9.57549 16.1283 9.61974 16.0789 9.67227 16.0395C9.7248 16.0001 9.78457 15.9715 9.84818 15.9552C9.91179 15.9389 9.97798 15.9353 10.043 15.9446C10.108 15.9539 10.1705 15.9758 10.227 16.0093C10.2835 16.0428 10.3329 16.087 10.3723 16.1395C10.5663 16.3965 10.9083 16.8315 11.2953 17.2975C11.6133 16.9105 11.9333 16.5325 12.2533 16.1595C11.6613 15.4965 11.2603 14.9975 11.2303 14.9595C11.1879 14.9084 11.1562 14.8492 11.1369 14.7856C11.1177 14.722 11.1113 14.6553 11.1181 14.5892C11.125 14.5231 11.145 14.459 11.1769 14.4007C11.2087 14.3424 11.2519 14.2911 11.3039 14.2497C11.3559 14.2083 11.4156 14.1777 11.4795 14.1596C11.5435 14.1415 11.6104 14.1364 11.6763 14.1445C11.7423 14.1526 11.8059 14.1737 11.8636 14.2067C11.9213 14.2397 11.9718 14.2838 12.0123 14.3365C12.0193 14.3445 12.3783 14.7905 12.9173 15.3995C13.2819 14.9855 13.6456 14.5822 14.0083 14.1895C13.4553 13.5345 13.0003 12.9705 12.9613 12.9225C12.9197 12.8714 12.8886 12.8126 12.8698 12.7495C12.851 12.6863 12.8449 12.6201 12.8518 12.5545C12.8587 12.489 12.8785 12.4255 12.91 12.3676C12.9416 12.3098 12.9842 12.2587 13.0355 12.2174C13.0869 12.1761 13.1459 12.1453 13.2091 12.1269C13.2724 12.1084 13.3387 12.1027 13.4042 12.11C13.4696 12.1172 13.5331 12.1373 13.5907 12.1692C13.6484 12.201 13.6992 12.244 13.7403 12.2955C13.7493 12.3065 14.1713 12.8285 14.6933 13.4495C15.1793 12.9355 15.6543 12.4495 16.1213 11.9815C15.6033 11.4365 15.1703 10.9815 15.1293 10.9345C15.0382 10.838 14.9891 10.7092 14.993 10.5765C14.9968 10.4439 15.0532 10.3181 15.1498 10.227C15.2463 10.1359 15.3751 10.0869 15.5078 10.0908C15.6404 10.0946 15.7662 10.151 15.8573 10.2475C16.1193 10.5265 16.4683 10.8945 16.8293 11.2745C17.2493 10.8635 17.6523 10.4745 18.0423 10.1075C17.5233 9.57754 17.2133 9.27954 17.2073 9.27454C17.1105 9.1837 17.0537 9.05813 17.0495 8.92545C17.0453 8.79277 17.0939 8.66384 17.1848 8.56704C17.2756 8.47024 17.4012 8.41348 17.5339 8.40926C17.6665 8.40504 17.7955 8.4537 17.8923 8.54454C17.9153 8.56754 18.2363 8.87554 18.7683 9.41954C19.1753 9.04454 19.5523 8.70454 19.9073 8.38854C19.4203 7.96454 19.0773 7.71454 19.0693 7.70954C19.0158 7.67146 18.9703 7.62321 18.9354 7.56754C18.9005 7.51188 18.877 7.44989 18.8661 7.38513C18.8552 7.32036 18.8571 7.25407 18.8718 7.19006C18.8865 7.12604 18.9137 7.06555 18.9518 7.01204C18.9899 6.95853 19.0381 6.91304 19.0938 6.87817C19.1494 6.84331 19.2114 6.81974 19.2762 6.80883C19.341 6.79792 19.4072 6.79988 19.4713 6.81458C19.5353 6.82929 19.5958 6.85646 19.6493 6.89454C19.6833 6.91854 20.0943 7.21354 20.6663 7.72154C21.0283 7.40754 21.3473 7.13654 21.6103 6.92154C21.0403 6.48354 20.6533 6.24454 20.6453 6.23954C20.5365 6.16842 20.4597 6.05776 20.4312 5.931C20.4026 5.80424 20.4245 5.67134 20.4922 5.56045C20.5599 5.44956 20.6682 5.36939 20.794 5.33693C20.9198 5.30447 21.0533 5.32226 21.1663 5.38654C21.5934 5.65986 22.0059 5.95526 22.4023 6.27154L22.4913 6.20154C22.588 6.1257 22.7094 6.08854 22.832 6.0973C22.9546 6.10605 23.0695 6.16009 23.1545 6.24889C23.2394 6.3377 23.2883 6.45494 23.2916 6.57778C23.2949 6.70063 23.2523 6.82031 23.1723 6.91354C23.6008 7.28952 24.0103 7.68668 24.3993 8.10354H24.4023ZM37.5023 23.0305C36.1329 25.7108 34.3569 28.1628 32.2373 30.2995C32.1912 30.3474 32.1361 30.3855 32.0751 30.4118C32.0142 30.4381 31.9486 30.452 31.8822 30.4526C31.8158 30.4533 31.7499 30.4408 31.6885 30.4157C31.627 30.3906 31.5711 30.3536 31.5241 30.3067C31.4771 30.2598 31.4399 30.2041 31.4147 30.1427C31.3894 30.0813 31.3767 30.0154 31.3772 29.9491C31.3776 29.8827 31.3913 29.817 31.4175 29.756C31.4436 29.695 31.4816 29.6397 31.5293 29.5935C33.5759 27.5292 35.2912 25.1609 36.6143 22.5725C36.6427 22.5114 36.6831 22.4567 36.7332 22.4116C36.7833 22.3665 36.842 22.332 36.9058 22.3102C36.9695 22.2884 37.0371 22.2797 37.1043 22.2846C37.1715 22.2895 37.237 22.308 37.2969 22.3389C37.3568 22.3698 37.4098 22.4125 37.4528 22.4644C37.4958 22.5163 37.5278 22.5763 37.547 22.6409C37.5662 22.7055 37.5721 22.7734 37.5644 22.8403C37.5567 22.9073 37.5356 22.972 37.5023 23.0305V23.0305ZM4.10327 11.5545C2.75815 13.7754 1.7083 16.1622 0.980269 18.6545C0.949978 18.7584 0.886818 18.8496 0.80027 18.9145C0.713722 18.9795 0.608455 19.0145 0.500269 19.0145C0.452915 19.0142 0.405823 19.0075 0.36027 18.9945C0.297124 18.9762 0.238226 18.9455 0.186946 18.9043C0.135666 18.8632 0.0930134 18.8123 0.0614305 18.7546C0.0298475 18.6969 0.00995509 18.6335 0.00289204 18.5682C-0.00417102 18.5028 0.00173392 18.4366 0.0202694 18.3735C0.771944 15.7962 1.85677 13.3281 3.24727 11.0315C3.28128 10.9753 3.32603 10.9264 3.37896 10.8875C3.4319 10.8486 3.49197 10.8205 3.55577 10.8048C3.61956 10.7891 3.68582 10.7861 3.75077 10.796C3.81571 10.8059 3.87806 10.8285 3.93427 10.8625C3.99048 10.8966 4.03943 10.9413 4.07834 10.9942C4.11725 11.0472 4.14536 11.1072 4.16105 11.171C4.17675 11.2348 4.17972 11.3011 4.16981 11.366C4.15989 11.431 4.13728 11.4933 4.10327 11.5495V11.5545ZM30.5603 31.3105C30.5603 31.4094 30.5309 31.5061 30.476 31.5883C30.4211 31.6706 30.343 31.7346 30.2516 31.7725C30.1602 31.8103 30.0597 31.8202 29.9627 31.8009C29.8657 31.7816 29.7766 31.734 29.7067 31.6641C29.6368 31.5942 29.5892 31.5051 29.5699 31.4081C29.5506 31.3111 29.5605 31.2106 29.5983 31.1192C29.6362 31.0278 29.7003 30.9497 29.7825 30.8948C29.8647 30.8399 29.9614 30.8105 30.0603 30.8105C30.1929 30.8105 30.3201 30.8632 30.4138 30.957C30.5076 31.0508 30.5603 31.1779 30.5603 31.3105ZM4.78527 8.90754C4.78527 8.80865 4.81459 8.71198 4.86953 8.62976C4.92448 8.54753 5.00256 8.48344 5.09393 8.4456C5.18529 8.40776 5.28582 8.39786 5.38281 8.41715C5.47981 8.43644 5.5689 8.48406 5.63882 8.55399C5.70875 8.62391 5.75637 8.713 5.77566 8.80999C5.79495 8.90699 5.78505 9.00752 5.74721 9.09888C5.70937 9.19024 5.64528 9.26833 5.56305 9.32327C5.48083 9.37822 5.38416 9.40754 5.28527 9.40754C5.15266 9.40754 5.02548 9.35486 4.93172 9.26109C4.83795 9.16733 4.78527 9.04015 4.78527 8.90754Z" fill="black"/>
</g>
</svg>
