<svg width="47" height="28" viewBox="0 0 47 28" fill="none" xmlns="http://www.w3.org/2000/svg">
<g id="Group">
<g id="Group_2">
<g id="Group_3">
<g id="Group_4">
<path id="Vector" d="M23.2905 10.744C21.5073 10.744 19.8331 9.62454 19.1991 7.94041C18.5353 6.18694 19.0505 4.20561 20.477 2.98709C21.8541 1.8082 23.9047 1.63979 25.47 2.54129C27.0253 3.43289 27.9169 5.25571 27.6296 7.03891C27.2829 9.17874 25.4304 10.7143 23.2905 10.744C22.0126 10.7638 22.0126 12.7451 23.2905 12.7253C26.0149 12.6956 28.4123 10.9817 29.3138 8.40602C30.1756 5.94918 29.3435 3.04653 27.3027 1.42184C25.2322 -0.232566 22.29 -0.490139 19.9916 0.896791C17.6933 2.29363 16.5441 4.99814 17.0493 7.6333C17.614 10.5558 20.3284 12.7154 23.2806 12.7154C24.5685 12.7253 24.5685 10.744 23.2905 10.744Z" fill="black"/>
</g>
</g>
<g id="Group_5">
<g id="Group_6">
<path id="Vector_2" d="M14.8996 26.1785C14.8996 24.752 14.8897 23.3353 14.8996 21.9088C14.9194 19.2835 16.6927 17.114 19.0604 16.0044C20.269 15.4298 21.6064 15.2119 22.9438 15.2119C24.192 15.2119 25.3907 15.2713 26.5993 15.6577C29.0661 16.4502 31.1762 18.4414 31.6022 21.0469C31.731 21.8493 31.6616 22.8103 31.6616 23.6622C31.6616 24.5043 31.6616 25.3464 31.6616 26.1884C31.6616 27.4664 33.6429 27.4664 33.6429 26.1884C33.6429 24.5836 33.7519 22.9391 33.6231 21.3441C33.3557 18.174 31.196 15.4893 28.3231 14.2113C22.9042 11.804 14.6222 13.6764 13.1362 20.1454C12.8885 21.2252 12.9282 22.3149 12.9282 23.4146C12.9282 24.3359 12.9282 25.2572 12.9282 26.1785C12.9183 27.4565 14.8996 27.4565 14.8996 26.1785Z" fill="black"/>
</g>
</g>
</g>
<g id="Group_7">
<g id="Group_8">
<g id="Group_9">
<g id="Group_10">
<path id="Vector_3" d="M8.23238 14.1122C6.94452 14.1122 5.74582 13.3098 5.2703 12.1111C4.76506 10.8431 5.14151 9.38678 6.1718 8.50508C7.16246 7.65311 8.63855 7.50451 9.76791 8.13854C10.9072 8.77256 11.561 10.0505 11.4025 11.3483C11.2044 12.9334 9.79763 14.0924 8.23238 14.1122C6.95443 14.1321 6.95443 16.1134 8.23238 16.0936C10.4713 16.054 12.4427 14.6373 13.1461 12.5074C13.7999 10.5359 13.1164 8.2277 11.5016 6.92992C9.80754 5.57271 7.39032 5.36467 5.53778 6.51385C3.67533 7.66302 2.76392 9.85239 3.18 11.9922C3.64561 14.35 5.85479 16.0837 8.23238 16.0837C9.50043 16.0936 9.51034 14.1122 8.23238 14.1122Z" fill="black"/>
</g>
</g>
<g id="Group_11">
<g id="Group_12">
<path id="Vector_4" d="M1.98133 26.3271C1.98133 25.5049 1.98133 24.6925 1.98133 23.8703C1.98133 22.9291 1.97142 22.0574 2.37759 21.2153C2.95218 19.9968 4.02209 19.0755 5.25052 18.5504C6.44922 18.0353 7.7569 17.9758 9.03485 18.0452C10.8379 18.1343 12.5121 18.9566 13.6513 20.3633C13.9882 20.7794 14.7014 20.7101 15.0482 20.3633C15.4643 19.9473 15.385 19.3826 15.0482 18.9665C12.8489 16.2323 8.78719 15.4595 5.50809 16.3809C2.34787 17.2625 0 19.9274 0 23.266C0 24.2864 0 25.3166 0 26.337C0 27.6051 1.98133 27.6051 1.98133 26.3271Z" fill="black"/>
</g>
</g>
</g>
<g id="Group_13">
<g id="Group_14">
<g id="Group_15">
<path id="Vector_5" d="M38.408 14.142C37.1201 14.142 35.9214 13.3395 35.4459 12.1408C34.9407 10.8728 35.3171 9.4165 36.3474 8.53481C37.3381 7.68284 38.8142 7.53424 39.9435 8.16826C41.0828 8.80229 41.7366 10.0802 41.5781 11.378C41.38 12.9532 39.9831 14.1122 38.408 14.142C37.13 14.1618 37.13 16.1431 38.408 16.1233C40.6469 16.0837 42.6183 14.667 43.3217 12.5371C43.9755 10.5657 43.292 8.25742 41.6772 6.95965C39.9831 5.60245 37.5659 5.39441 35.7134 6.54358C33.8509 7.69275 32.9395 9.88211 33.3556 12.0219C33.8212 14.3797 36.0304 16.1134 38.408 16.1134C39.6859 16.1233 39.6859 14.142 38.408 14.142Z" fill="black"/>
</g>
</g>
<g id="Group_16">
<g id="Group_17">
<path id="Vector_6" d="M33.0286 20.4228C34.0292 19.1547 35.4657 18.3523 37.0706 18.1145C38.2792 17.9362 39.6562 17.9956 40.8153 18.3424C42.113 18.7287 43.3216 19.5411 44.0349 20.6902C44.5996 21.5918 44.7284 22.4834 44.7284 23.5335C44.7284 24.4746 44.7284 25.4157 44.7284 26.3469C44.7284 27.6249 46.7097 27.6249 46.7097 26.3469C46.7097 24.1774 46.9871 21.8592 45.8677 19.8977C44.1637 16.896 40.6171 15.7964 37.3479 16.0936C35.1487 16.2917 33.0088 17.2626 31.6219 19.016C31.295 19.4321 31.2157 20.0067 31.6219 20.4129C31.9686 20.7695 32.6918 20.8488 33.0286 20.4228Z" fill="black"/>
</g>
</g>
</g>
</g>
</g>
</svg>
