<svg width="50" height="29" viewBox="0 0 50 29" fill="none" xmlns="http://www.w3.org/2000/svg">
<g id="Group">
<path id="Compound Path" d="M49.9825 23.9907V21.5136C49.9782 19.3743 49.2853 17.2931 48.0065 15.5781C46.7276 13.863 44.9307 12.6051 42.8815 11.9905C44.1562 11.3521 45.1781 10.302 45.7817 9.01041C46.3853 7.7188 46.5352 6.26128 46.2071 4.87385C45.8791 3.48643 45.0923 2.25036 43.9743 1.3658C42.8562 0.481244 41.4723 0 40.0466 0C38.6209 0 37.237 0.481244 36.1189 1.3658C35.0008 2.25036 34.2141 3.48643 33.886 4.87385C33.558 6.26128 33.7079 7.7188 34.3115 9.01041C34.9151 10.302 35.937 11.3521 37.2117 11.9905C35.6829 12.4371 34.2843 13.2457 33.1345 14.3476C31.9846 15.4496 31.1173 16.8125 30.6061 18.3209C29.7624 17.741 28.8339 17.2953 27.8537 16.9998C29.1284 16.3613 30.1503 15.3113 30.7539 14.0197C31.3575 12.7281 31.5074 11.2705 31.1793 9.88312C30.8513 8.4957 30.0646 7.25962 28.9465 6.37506C27.8284 5.49051 26.4445 5.00926 25.0188 5.00926C23.5931 5.00926 22.2092 5.49051 21.0911 6.37506C19.973 7.25962 19.1863 8.4957 18.8583 9.88312C18.5302 11.2705 18.6801 12.7281 19.2837 14.0197C19.8873 15.3113 20.9092 16.3613 22.1839 16.9998C21.2037 17.2953 20.2752 17.741 19.4315 18.3209C18.9203 16.8125 18.053 15.4496 16.9031 14.3476C15.7533 13.2457 14.3547 12.4371 12.8259 11.9905C14.1006 11.3521 15.1225 10.302 15.7261 9.01041C16.3297 7.7188 16.4796 6.26128 16.1516 4.87385C15.8235 3.48643 15.0368 2.25036 13.9187 1.3658C12.8006 0.481244 11.4167 0 9.991 0C8.56533 0 7.1814 0.481244 6.06332 1.3658C4.94524 2.25036 4.15849 3.48643 3.83046 4.87385C3.50243 6.26128 3.65234 7.7188 4.25591 9.01041C4.85948 10.302 5.88137 11.3521 7.15609 11.9905C5.09666 12.5953 3.28758 13.8489 1.99816 15.5649C0.708733 17.2808 0.00790618 19.3672 0 21.5136V23.9907H1.10094V21.5136C1.12616 19.3986 1.90699 17.3624 3.30235 15.7727C4.69771 14.1831 6.61559 13.145 8.7095 12.8458C10.8034 12.5467 12.9353 13.0063 14.7199 14.1417C16.5045 15.277 17.8243 17.0132 18.4407 19.0365C17.3688 19.9671 16.5093 21.1171 15.9205 22.4087C15.3316 23.7003 15.0272 25.1034 15.0278 26.5229V29H16.1287V26.5229C16.3043 24.3001 17.3113 22.2252 18.9488 20.712C20.5863 19.1987 22.7341 18.3583 24.9638 18.3583C27.1934 18.3583 29.3412 19.1987 30.9787 20.712C32.6162 22.2252 33.6232 24.3001 33.7988 26.5229V29H34.8997V26.5229C34.9003 25.1034 34.5959 23.7003 34.007 22.4087C33.4182 21.1171 32.5587 19.9671 31.4868 19.0365C32.1032 17.0132 33.423 15.277 35.2076 14.1417C36.9922 13.0063 39.1241 12.5467 41.218 12.8458C43.3119 13.145 45.2298 14.1831 46.6252 15.7727C48.0205 17.3624 48.8013 19.3986 48.8266 21.5136V23.9907H49.9825ZM4.78908 6.37574C4.78908 5.34145 5.09578 4.33039 5.6704 3.47041C6.24502 2.61043 7.06175 1.94016 8.0173 1.54436C8.97286 1.14855 10.0243 1.04499 11.0387 1.24677C12.0532 1.44855 12.985 1.94661 13.7163 2.67796C14.4477 3.40931 14.9457 4.34111 15.1475 5.35552C15.3493 6.36994 15.2457 7.42141 14.8499 8.37696C14.4541 9.33252 13.7838 10.1493 12.9239 10.7239C12.0639 11.2985 11.0528 11.6052 10.0185 11.6052C9.32717 11.6125 8.64123 11.4826 8.00039 11.223C7.35956 10.9635 6.77656 10.5794 6.28511 10.0931C5.79367 9.60679 5.40354 9.02784 5.1373 8.38976C4.87106 7.75168 4.73399 7.06714 4.73403 6.37574H4.78908ZM19.8169 11.385C19.806 10.3461 20.1048 9.32752 20.6752 8.45915C21.2456 7.59079 22.0618 6.91202 23.0195 6.50941C23.9773 6.1068 25.0333 5.9986 26.0528 6.19862C27.0723 6.39864 28.0092 6.89781 28.7438 7.63246C29.4785 8.36711 29.9776 9.30394 30.1777 10.3235C30.3777 11.343 30.2695 12.399 29.8669 13.3567C29.4643 14.3145 28.7855 15.1306 27.9171 15.7011C27.0488 16.2715 26.0302 16.5703 24.9913 16.5594C23.6138 16.5595 22.292 16.0161 21.3128 15.0472C20.3337 14.0784 19.7763 12.7624 19.7618 11.385H19.8169ZM34.8447 6.37574C34.8447 5.34145 35.1514 4.33039 35.726 3.47041C36.3006 2.61043 37.1173 1.94016 38.0729 1.54436C39.0284 1.14855 40.0799 1.04499 41.0943 1.24677C42.1087 1.44855 43.0405 1.94661 43.7719 2.67796C44.5032 3.40931 45.0013 4.34111 45.2031 5.35552C45.4049 6.36994 45.3013 7.42141 44.9055 8.37696C44.5097 9.33252 43.8394 10.1493 42.9794 10.7239C42.1195 11.2985 41.1084 11.6052 40.0741 11.6052C39.3828 11.6125 38.6968 11.4826 38.056 11.223C37.4151 10.9635 36.8321 10.5794 36.3407 10.0931C35.8492 9.60679 35.4591 9.02784 35.1929 8.38976C34.9266 7.75168 34.7896 7.06714 34.7896 6.37574H34.8447Z" fill="black"/>
</g>
</svg>
