<svg width="29" height="32" viewBox="0 0 29 32" fill="none" xmlns="http://www.w3.org/2000/svg">
<g id="Group">
<path id="Vector" fill-rule="evenodd" clip-rule="evenodd" d="M18.2074 11.6699C18.0883 11.6782 17.9761 11.7287 17.891 11.8125L14.5785 15.0762L11.4047 12.1855C11.3391 12.1257 11.2588 12.0843 11.1719 12.0658C11.0851 12.0473 10.9949 12.0522 10.9106 12.0801L4.184 14.3281C4.08278 14.3623 3.99516 14.428 3.934 14.5156L0.0902503 19.9746C0.0360175 20.0522 0.00490711 20.1435 0.00053422 20.238C-0.00383867 20.3326 0.0187055 20.4264 0.065547 20.5087C0.112389 20.5909 0.181604 20.6581 0.26515 20.7025C0.348697 20.747 0.443144 20.7669 0.537516 20.7598L3.9965 20.5039C4.10243 20.4957 4.20299 20.454 4.28361 20.3848L5.2133 19.5898L5.50822 31.3203C5.51126 31.4499 5.56447 31.5731 5.65665 31.6642C5.74883 31.7553 5.87277 31.8071 6.00236 31.8086L22.2074 32C22.3342 32.0014 22.4568 31.9545 22.5503 31.8689C22.6439 31.7833 22.7014 31.6655 22.7113 31.5391L23.5707 20.0977L24.2445 21.0078C24.2952 21.0763 24.3625 21.1308 24.4401 21.166C24.5177 21.2012 24.603 21.216 24.6879 21.209L27.8266 20.9531C27.9089 20.9464 27.9883 20.9195 28.0576 20.8746C28.127 20.8298 28.1842 20.7684 28.224 20.696C28.2639 20.6237 28.2852 20.5426 28.286 20.46C28.2869 20.3774 28.2673 20.2958 28.2289 20.2227L25.0258 14.1211C24.9667 14.0084 24.8668 13.9225 24.7465 13.8809L18.4047 11.6973C18.3414 11.6751 18.2743 11.666 18.2074 11.6703V11.6699ZM18.3715 12.7422L24.2328 14.7617L26.9926 20.0176L24.8832 20.1895L23.5766 18.4219C23.5158 18.3399 23.4313 18.2784 23.3346 18.2459C23.2378 18.2133 23.1334 18.2111 23.0354 18.2396C22.9373 18.2681 22.8504 18.3259 22.7862 18.4053C22.7219 18.4846 22.6836 18.5818 22.6762 18.6836L21.7504 30.9961L6.4965 30.8145L6.18791 18.5156C6.18575 18.4211 6.15684 18.3292 6.10454 18.2505C6.05224 18.1717 5.97868 18.1094 5.89241 18.0708C5.80613 18.0322 5.71067 18.0187 5.61709 18.0321C5.52351 18.0455 5.43565 18.0852 5.36369 18.1465L3.75822 19.5176L1.51603 19.6855L4.65666 15.2246L10.9496 13.123L14.2543 16.1348C14.349 16.2208 14.473 16.2673 14.6009 16.2646C14.7287 16.262 14.8507 16.2105 14.9418 16.1207L18.3715 12.7418V12.7422Z" fill="black"/>
<path id="Vector_2" fill-rule="evenodd" clip-rule="evenodd" d="M14.0278 15.8243L13.8344 31.4297L14.8344 31.4438L15.0278 15.8364L14.0278 15.8243V15.8243Z" fill="black"/>
<path id="Vector_3" fill-rule="evenodd" clip-rule="evenodd" d="M5.46527 14.3575L5.19379 18.3985L6.18988 18.4665L6.46332 14.4236L5.46527 14.3576V14.3575Z" fill="black"/>
<path id="Vector_4" fill-rule="evenodd" clip-rule="evenodd" d="M22.9008 13.963L22.6957 19.2755L23.6957 19.3144L23.9008 14.0019L22.9008 13.963Z" fill="black"/>
<path id="Vector_5" fill-rule="evenodd" clip-rule="evenodd" d="M10.2426 12.8868L9.31683 13.2618L10.6469 16.5489L13.436 15.0469L12.9614 14.1661L11.1547 15.1387L10.2426 12.8868Z" fill="black"/>
<path id="Vector_6" fill-rule="evenodd" clip-rule="evenodd" d="M19.184 12.4649L18.0336 15.0762L16.1352 14.1563L15.6977 15.0567L18.5317 16.4297L20.1 12.8672L19.184 12.4649Z" fill="black"/>
<path id="Vector_7" fill-rule="evenodd" clip-rule="evenodd" d="M8.90863 13.4317L7.90863 13.4438L8.13519 31.4282L9.13519 31.4141L8.90863 13.4317Z" fill="black"/>
<path id="Vector_8" fill-rule="evenodd" clip-rule="evenodd" d="M11.2153 15.379L10.8539 31.1837L11.8539 31.2047L12.2153 15.4019L11.2153 15.378V15.379Z" fill="black"/>
<path id="Vector_9" fill-rule="evenodd" clip-rule="evenodd" d="M17.1938 15.461L16.561 31.3555L17.559 31.3965L18.1938 15.5001L17.1938 15.461Z" fill="black"/>
<path id="Vector_10" fill-rule="evenodd" clip-rule="evenodd" d="M20.9106 13.2071L19.0981 31.5079L20.0942 31.6078L21.9047 13.305L20.9106 13.2071V13.2071Z" fill="black"/>
<path id="Vector_11" fill-rule="evenodd" clip-rule="evenodd" d="M18.8531 5.23471C18.4027 5.23471 18.1861 5.78849 18.5132 6.09799C18.5132 6.09799 18.7059 6.28684 18.9078 6.53744C19.1096 6.78804 19.1574 6.9413 19.1684 7.0079C19.1922 7.1533 19.1238 7.40713 19.0082 7.55673C18.9864 7.58473 18.7313 7.7714 18.5004 7.8829C18.2695 7.9945 18.0688 8.0665 18.0688 8.0665C17.8782 8.1345 17.7472 8.30991 17.7367 8.51181C17.7367 8.51181 17.7193 8.89029 17.6488 9.34189C17.5784 9.79349 17.4209 10.3245 17.309 10.4845C16.7747 11.2483 15.8524 11.8884 14.977 12.0157C14.6316 12.0657 14.1431 11.8372 13.6176 11.5704C13.1172 11.3165 12.6561 11.0238 12.3988 10.6622C12.3082 10.5349 12.1495 10.118 12.057 9.76767C11.9646 9.41737 11.9125 9.12704 11.9125 9.12704C11.8851 8.96794 11.7825 8.83201 11.6371 8.76181C11.6371 8.76181 11.0986 8.48922 10.9613 8.39072C10.6016 8.13242 10.3172 7.94199 10.2406 7.77939C10.1475 7.58159 10.1321 7.28994 10.1918 7.15634C10.1584 7.23134 10.2698 7.08039 10.3949 6.99619C10.52 6.91219 10.6352 6.85361 10.6352 6.85361C11.2386 6.55561 10.7817 5.65183 10.184 5.96103C10.184 5.96103 10.0207 6.04311 9.83829 6.16611C9.65591 6.28871 9.43099 6.41129 9.27969 6.75009C9.05674 7.24949 9.13229 7.77597 9.33438 8.20517C9.597 8.76297 10.0908 8.99742 10.3774 9.20322C10.617 9.37522 10.8218 9.46195 10.9828 9.53915C11.0075 9.66595 11.0206 9.75933 11.0902 10.0235C11.1945 10.4188 11.3194 10.8727 11.5824 11.2423C12.0052 11.8365 12.6198 12.1866 13.1645 12.463C13.668 12.7186 14.3252 13.1197 15.1215 13.004C16.3472 12.8259 17.4451 12.0347 18.1293 11.0567C18.4552 10.5908 18.5559 10.0048 18.6352 9.49619C18.6874 9.16109 18.6893 9.04595 18.7016 8.88095C18.7938 8.84295 18.8097 8.84293 18.934 8.78293C19.2176 8.64593 19.5461 8.49532 19.7992 8.16782C20.0789 7.80592 20.2375 7.33813 20.1567 6.84543C20.0778 6.36483 19.9273 6.21093 19.6851 5.91013C19.4429 5.60943 19.2144 5.3829 19.2144 5.3829C19.1191 5.2869 18.9887 5.23284 18.8531 5.23434L18.8531 5.23471Z" fill="black"/>
<path id="Vector_12" fill-rule="evenodd" clip-rule="evenodd" d="M15.3187 0.0137166C14.2237 -0.0662834 13.1261 0.210895 12.1684 0.656295C11.3598 1.03219 10.5778 1.58859 10.0297 2.34959C9.52112 3.05579 9.12781 3.9395 9.13125 4.877C9.13275 5.3108 9.30098 5.68902 9.44766 6.01762C9.59433 6.34622 9.74258 6.60356 9.74258 6.60356C9.77864 6.66625 9.82788 6.72032 9.88689 6.76213C9.9459 6.80394 10.0133 6.8325 10.0844 6.84575H10.0824C10.0857 6.84635 10.0908 6.84515 10.0941 6.84575C10.0961 6.84576 10.098 6.84576 10.1 6.84575C10.1283 6.85156 10.1571 6.85491 10.1859 6.85576C10.1898 6.85656 10.1957 6.85496 10.1996 6.85576C10.7455 6.96816 11.3738 7.16207 12.1 7.00017C12.1125 6.99731 12.1249 6.99396 12.1371 6.99016C12.4943 6.88146 12.6843 6.6381 12.8207 6.4843C12.9571 6.3305 13.043 6.26394 13.0609 6.25774C13.2402 6.19574 13.5071 6.22071 13.8617 6.27971C14.2163 6.33871 14.6537 6.43147 15.1371 6.29167C15.5434 6.17407 15.8923 5.92325 16.1937 5.70195C16.2295 5.67595 16.2227 5.67692 16.2562 5.65092L16.9242 6.79155C16.9903 6.90375 17.0975 6.98567 17.223 7.02006L18.0785 7.25444C18.199 7.28774 18.3275 7.27469 18.4388 7.21794C18.5502 7.16119 18.6362 7.06483 18.6801 6.9478L18.9769 6.15092L19.6098 5.98308C19.6978 5.95979 19.7777 5.91285 19.8411 5.84746C19.9044 5.78206 19.9487 5.70057 19.9691 5.61186C19.9691 5.61186 20.0457 5.27538 20.1019 4.85808C20.1582 4.44068 20.2187 3.95824 20.0941 3.49864C19.8442 2.57624 19.2549 1.75673 18.518 1.18413C17.6009 0.471527 16.4415 0.0966049 15.3188 0.0142049L15.3187 0.0137166ZM15.2465 1.0117C16.1953 1.0817 17.1805 1.4099 17.9047 1.9727C18.4744 2.4153 18.944 3.08331 19.1273 3.75981C19.1662 3.90301 19.1611 4.3559 19.1117 4.7227C19.0838 4.9298 19.0695 4.9762 19.0453 5.0977L18.4711 5.25004C18.3941 5.27042 18.3231 5.30888 18.264 5.36223C18.2049 5.41557 18.1594 5.4822 18.1312 5.55669L17.9027 6.16801L17.684 6.10905L16.8285 4.64812C16.7912 4.58478 16.7405 4.53041 16.6798 4.48894C16.6191 4.44746 16.5501 4.41988 16.4775 4.40813C16.405 4.39637 16.3307 4.40074 16.2601 4.42094C16.1894 4.44114 16.1241 4.47675 16.0687 4.52507C16.0687 4.52507 15.8668 4.69971 15.6019 4.89421C15.3371 5.08861 14.9856 5.29276 14.8578 5.32976C14.6689 5.38476 14.3873 5.35069 14.0258 5.29069C13.6642 5.23069 13.2172 5.14607 12.7347 5.31267C12.3865 5.43277 12.2057 5.67255 12.0726 5.82255C11.9473 5.96385 11.8796 6.01197 11.8597 6.02177C11.4737 6.10177 11.0082 5.99076 10.5004 5.88896C10.4525 5.79796 10.4314 5.76586 10.3617 5.60966C10.2367 5.32966 10.1316 4.96534 10.1312 4.87334C10.1288 4.22824 10.4264 3.51314 10.8422 2.93584C11.2589 2.35724 11.9031 1.88424 12.5902 1.56474C13.4245 1.17674 14.3711 0.948047 15.2465 1.01195L15.2465 1.0117Z" fill="black"/>
<path id="Vector_13" fill-rule="evenodd" clip-rule="evenodd" d="M12.367 2.04696C12.3386 2.04896 12.3118 2.06063 12.2909 2.07998L9.76157 4.32809C9.73671 4.3501 9.72161 4.38112 9.71959 4.41427C9.71758 4.44742 9.72881 4.47998 9.75083 4.50485C9.77284 4.52971 9.80383 4.54482 9.83698 4.54684C9.87013 4.54885 9.90272 4.5376 9.92759 4.51559L12.4569 2.26748C12.4773 2.2505 12.4917 2.22743 12.4982 2.20168C12.5046 2.17594 12.5027 2.14881 12.4927 2.12423C12.4827 2.09965 12.4651 2.0789 12.4425 2.06497C12.4199 2.05103 12.3935 2.04468 12.367 2.04678L12.367 2.04696Z" fill="black"/>
<path id="Vector_14" fill-rule="evenodd" clip-rule="evenodd" d="M11.8983 3.18585C11.8658 3.18502 11.8343 3.19681 11.8104 3.21881L9.66585 5.14667C9.65186 5.15701 9.64018 5.17013 9.63157 5.18524C9.62296 5.20036 9.61759 5.21713 9.61582 5.23444C9.61405 5.25174 9.61591 5.26916 9.62129 5.28571C9.62666 5.30225 9.63543 5.31754 9.64703 5.33051C9.65863 5.34347 9.67281 5.35385 9.68867 5.36102C9.70452 5.36819 9.72169 5.37198 9.73909 5.37213C9.75649 5.37228 9.77372 5.36877 9.7897 5.36188C9.80567 5.35499 9.82003 5.34485 9.83186 5.33209L11.9783 3.40643C11.998 3.38996 12.0121 3.36784 12.0187 3.34308C12.0254 3.31832 12.0243 3.29211 12.0155 3.26801C12.0068 3.2439 11.9909 3.22311 11.9699 3.20837C11.9489 3.19364 11.9239 3.18566 11.8983 3.18561L11.8983 3.18585Z" fill="black"/>
<path id="Vector_15" fill-rule="evenodd" clip-rule="evenodd" d="M11.8905 3.96139C11.8623 3.96284 11.8354 3.97377 11.8143 3.99239L9.86116 5.62911C9.84744 5.63925 9.83594 5.65209 9.82737 5.66683C9.8188 5.68157 9.81333 5.698 9.81131 5.71493C9.80928 5.73186 9.81075 5.749 9.81561 5.76534C9.82047 5.78169 9.82862 5.79682 9.83956 5.8099C9.85051 5.82298 9.86401 5.83373 9.87924 5.84139C9.89448 5.84906 9.91112 5.85346 9.92814 5.85445C9.94517 5.85545 9.96221 5.85297 9.97824 5.84713C9.99426 5.84129 10.0089 5.83223 10.0213 5.82052L11.9744 4.1838C11.9951 4.16732 12.01 4.14472 12.017 4.11923C12.024 4.09374 12.0228 4.06657 12.0135 4.04183C12.0041 4.0171 11.9872 3.99604 11.9651 3.98153C11.943 3.96702 11.9169 3.95987 11.8904 3.96114L11.8905 3.96139Z" fill="black"/>
<path id="Vector_16" fill-rule="evenodd" clip-rule="evenodd" d="M11.8592 5.00201C11.8354 5.00288 11.8124 5.01048 11.7928 5.02399L9.99982 6.21344C9.98477 6.22187 9.97163 6.23337 9.96122 6.24713C9.95081 6.26089 9.94337 6.27662 9.93935 6.2934C9.93533 6.31017 9.93483 6.32756 9.93788 6.34454C9.94092 6.36152 9.94745 6.37769 9.95705 6.39203C9.96665 6.40636 9.97911 6.41863 9.99365 6.42792C10.0082 6.4372 10.0245 6.44331 10.0415 6.44598C10.0586 6.44866 10.076 6.4478 10.0927 6.44342C10.1094 6.43904 10.125 6.4313 10.1385 6.42059L11.9315 5.23297C11.9547 5.21821 11.9724 5.19619 11.9818 5.17035C11.9912 5.14451 11.9919 5.11627 11.9837 5.09003C11.9754 5.06378 11.9588 5.04102 11.9363 5.02521C11.9138 5.00939 11.8867 5.00136 11.8592 5.0025L11.8592 5.00201Z" fill="black"/>
</g>
</svg>
