<svg width="14" height="14" viewBox="0 0 14 14" fill="none" xmlns="http://www.w3.org/2000/svg">
<path id="Vector" d="M9.07871 9.95025C8.13906 10.5887 6.98986 10.9627 5.74602 10.9627C2.57557 10.9627 0 8.50576 0 5.48135C0 2.45693 2.57557 0 5.74602 0C8.91647 0 11.492 2.45693 11.492 5.48135C11.492 6.99678 10.8498 8.36389 9.80879 9.35698L13.8648 13.2262C14.0473 13.4003 14.0473 13.6905 13.858 13.8646C13.6688 14.0451 13.3713 14.0451 13.1888 13.871L9.07871 9.95025ZM5.74602 10.3178C8.54467 10.3178 10.816 8.15108 10.816 5.48135C10.816 2.81161 8.54467 0.644864 5.74602 0.644864C2.94737 0.644864 0.676002 2.81161 0.676002 5.48135C0.676002 8.15108 2.94737 10.3178 5.74602 10.3178Z" fill="white"/>
</svg>
