<svg width="26.25" height="17.5" viewBox="0 0 15 10" fill="none" xmlns="http://www.w3.org/2000/svg">
<path id="Vector" d="M1.28049 0C0.570732 0 0 0.568049 0 1.26194V8.52066C0 9.21454 0.570732 9.78783 1.28049 9.78783H13.7195C14.4293 9.78783 15 9.21454 15 8.52066V1.26194C15 0.568049 14.4293 0 13.7195 0H1.28049ZM1.28049 0.349565H13.7195C13.9482 0.349565 14.153 0.436962 14.314 0.573292L8.1 6.06321C7.75427 6.36908 7.2622 6.36908 6.91646 6.06321L0.691463 0.568044C0.85061 0.435209 1.05549 0.349565 1.28049 0.349565ZM0.468293 0.847702L5.12195 4.9481L0.605488 9.14288C0.457317 8.98033 0.365854 8.76186 0.365854 8.52066V1.26194C0.365854 1.10988 0.404268 0.971798 0.468293 0.847702ZM14.5317 0.85294C14.5939 0.977036 14.6341 1.11162 14.6341 1.26194V8.52066C14.6341 8.76186 14.5427 8.98033 14.3945 9.14288L9.90183 4.9481L14.5317 0.85294ZM9.63293 5.18406L14.1037 9.35787C13.9866 9.41205 13.8585 9.44001 13.7213 9.44001H1.28049C1.14695 9.44001 1.02256 9.40856 0.909146 9.35787L5.39085 5.19105L6.67134 6.3219C7.14878 6.74312 7.86951 6.74312 8.34695 6.3219L9.63293 5.18406Z" fill="#07A358"/>
</svg>
