<svg width="50" height="42" viewBox="0 0 50 42" fill="none" xmlns="http://www.w3.org/2000/svg">
<path id="Logo" d="M49.3115 31.9754C49.0603 31.7243 48.7952 31.4588 48.6696 31.1704C48.3407 30.4184 47.637 29.9104 46.7917 29.4584C46.4807 29.292 46.2295 29.0638 45.9684 28.8528C45.6175 28.5702 45.3524 28.2028 44.9298 28.0048C44.1762 27.6546 43.7815 27.1667 43.4905 26.5942C43.3649 26.3488 43.1536 26.1264 43.02 25.8824C42.4219 24.7947 41.7661 23.7141 41.6604 22.5259C41.5807 21.6205 41.5867 20.7121 41.5209 19.8066C41.3694 17.6728 41.5687 15.5576 42.0731 13.4525C42.4219 11.9959 42.7529 10.5452 42.113 9.06137C41.483 7.60485 41.0365 6.13541 39.6191 4.89414C38.7579 4.14077 38.4469 3.15062 39.0489 2.13034C39.4456 1.45732 39.2543 0.824488 38.5486 0.523139C37.9884 0.284929 37.3405 0.0711148 36.7066 0.0237599C33.7263 -0.195795 32.0019 1.13301 31.358 2.90236C31.2683 3.15062 31.3381 3.49215 31.5155 3.71601C31.7647 4.03027 31.7906 4.3388 31.8185 4.67315C31.9241 5.97039 31.6431 7.2461 31.4058 8.52325C31.1168 10.0831 30.6902 11.6257 31.1188 13.2186C31.5095 14.6693 31.5813 16.1632 32.3069 17.5709C32.5122 17.9684 32.6139 18.4104 32.6378 18.8351C32.6677 19.356 32.6617 19.897 32.2989 20.3146C31.5135 19.8095 30.7819 19.3374 30.0483 18.8681C29.5818 18.5682 29.0954 18.2812 28.6488 17.967C28.296 17.7187 27.987 17.4389 27.658 17.172C27.6979 17.1634 27.7378 17.1562 27.7776 17.1476C27.6241 16.7343 27.4687 16.321 27.2972 15.8604C27.6142 15.3883 28.7704 15.7011 29.0714 15.0496C28.7804 14.5158 28.1524 14.3895 27.4647 14.3981C26.5197 14.4096 25.6546 14.3049 24.7794 13.9935C23.4697 13.5271 21.9765 13.8744 21.1991 14.754C20.7864 15.2189 20.4615 15.7413 20.5711 16.311C20.7246 17.1117 20.2083 17.6312 19.3451 18.0416C19.1517 18.1334 18.9624 18.2324 18.781 18.3372C16.9609 19.3761 15.1388 20.4151 13.3227 21.4583C12.005 22.216 11.3392 23.2363 11.09 24.4101C11.0103 24.7861 10.9963 25.1721 10.9943 25.5538C10.9943 26.9084 10.2228 28.1081 9.52909 29.3192C9.39154 29.5603 9.21213 29.8473 8.93303 29.8746C8.37685 29.434 7.97815 29.015 7.44588 28.7223C6.75812 28.3434 6.40328 27.8871 6.28566 27.2873C6.13814 26.5454 5.69159 26.2871 4.73471 26.5066C3.63629 26.7592 2.56976 27.0993 1.52716 27.4595C0.33903 27.8713 -0.00784031 28.6161 0.000133712 29.5388C0.00611423 30.1874 0.803517 30.5734 1.65076 30.1716C2.14913 29.9348 2.62159 29.6708 3.12196 29.434C3.41302 29.2963 3.73198 29.1901 4.02901 29.0738C4.21042 29.1929 4.34797 29.2417 4.39781 29.3207C4.88821 30.097 5.65571 30.7772 5.875 31.6525C5.96072 31.9955 6.18798 32.3385 6.44913 32.6369C7.30235 33.617 8.68983 33.8854 10.1192 33.3616C10.4979 33.2224 10.8667 33.0488 11.1857 32.8464C11.7818 32.4662 12.33 32.0472 12.9121 31.6554C13.6557 31.1531 14.4132 30.6609 15.2066 30.1386C16.8911 30.8518 18.6932 31.3268 19.8575 32.5523C18.8846 33.7204 18.9504 35.0162 18.9683 36.3091C18.9743 36.6908 18.9464 37.074 18.9265 37.4557C18.8946 38.0454 18.6414 38.5649 18.1291 39.0442C17.8161 39.3369 17.5849 39.7043 17.4513 40.0645C17.2639 40.5725 17.549 41.0675 18.1371 41.3144C18.8388 41.61 19.6441 41.8453 20.4415 41.9386C21.3486 42.0448 22.2975 41.9888 23.2245 41.9515C23.4597 41.9415 23.7727 41.7693 23.8803 41.6114C23.9641 41.4894 23.8624 41.2125 23.7069 41.112C23.2484 40.8121 22.756 40.5208 22.2138 40.3113C21.5599 40.0587 21.1652 39.7201 21.1811 39.1891C21.1911 38.8347 21.2071 38.4587 21.3745 38.1344C22.2796 36.3895 23.1707 34.6373 24.1933 32.9268C24.913 31.7214 24.6977 30.7169 23.4856 29.7655C22.6783 29.1327 21.9307 28.4611 21.1572 27.8053C20.7944 27.4982 20.5273 27.1251 20.7366 26.752C21.0655 26.1594 21.3944 25.5194 21.9646 25.0515C22.9673 24.2322 24.1375 23.5161 25.2758 22.7871C25.4911 22.6494 25.9137 22.5647 26.1908 22.612C27.2853 22.7972 28.3757 23.0095 29.4343 23.2822C30.1659 23.4716 30.3313 23.7658 30.1041 24.314C29.6496 25.4117 29.1691 26.5052 28.6548 27.5901C28.3558 28.2186 28.3099 28.3319 29.0395 28.6591C29.5838 28.9031 29.7213 29.2173 29.6974 29.6206C29.6655 30.1687 29.5977 30.7169 29.5897 31.2651C29.5838 31.7128 29.3844 32.0787 29.0316 32.4547C28.3318 33.1966 27.9172 34.0303 27.9471 34.9444C27.981 35.9331 27.4766 36.7669 26.5576 37.4729C26.1071 37.8187 25.5728 38.1086 25.0944 38.4372C24.1415 39.0901 24.3428 40.2998 25.4752 40.7834C26.0592 41.0331 26.4161 41.0044 26.8866 40.6428C27.1816 40.4161 27.4088 40.1377 27.7338 39.9396C28.7266 39.3341 29.191 38.5247 29.4761 37.6551C29.6655 37.0797 30.0483 36.6061 30.5446 36.1455C30.9673 35.7537 31.3181 35.3161 31.6271 34.8712C32.1335 34.1379 32.2311 33.2569 33.1781 32.68C33.2698 32.624 33.3076 32.5135 33.3515 32.4246C33.8339 31.4574 34.3363 30.4959 34.7808 29.5216C35.0998 28.8242 35.967 28.54 36.88 28.8887C37.1431 28.9892 37.3844 29.1212 37.6555 29.2116C38.1718 29.3838 38.6761 29.4211 39.1207 29.0868C39.2303 29.0035 39.3799 28.9476 39.6251 28.8184C39.9261 29.0121 40.1553 29.1786 40.4125 29.3207C40.8271 29.5517 41.2298 29.8086 41.6923 29.9779C42.3701 30.2261 43.1097 30.3869 43.7995 30.6222C44.6208 30.902 45.2866 31.2665 45.6395 31.9438C46.1159 32.8622 46.8256 33.7074 47.7825 34.4249C48.4403 34.9186 49.3354 34.8698 49.774 34.2901C49.9395 34.0719 50.0212 33.7835 49.9953 33.5352C49.9335 32.9813 49.778 32.4432 49.3115 31.9754ZM38.417 10.1936C38.3771 9.36559 37.9844 8.70549 36.9896 8.31374C35.9351 7.89759 35.0121 8.21616 33.9695 8.69975C33.6665 7.3365 33.6724 6.11102 33.818 4.86544C34.9642 4.61862 36.0627 4.38041 37.2707 4.11924C37.3265 4.28283 37.4442 4.47512 37.4521 4.66884C37.4741 5.23423 37.7252 5.74079 38.0881 6.23443C38.5585 6.87587 38.8436 7.54601 38.8037 8.29221C38.7858 8.63948 38.9612 8.99393 39.0629 9.34407C39.1366 9.59519 39.2323 9.84344 39.344 10.1663C38.9991 10.1749 38.7599 10.1821 38.417 10.1936Z" fill="#07A358"/>
</svg>
