<svg width="21" height="18" viewBox="0 0 14 12" fill="none" xmlns="http://www.w3.org/2000/svg">
<g id="Group">
<g id="Vector">
<mask id="path-1-inside-1" fill="white">
<path d="M1.39295 0.000297702C1.19897 0.00179766 1.02153 0.0903 0.890704 0.220797C0.767399 0.387292 0.675672 0.553782 0.684694 0.721778C0.804992 4.28268 1.92827 7.11461 3.95077 9.04655C5.97478 10.98 8.88898 12.006 12.5551 12C12.5581 12 12.5611 12 12.5641 12C12.7581 11.9895 12.934 11.8965 13.0663 11.766C13.2001 11.6355 13.2964 11.4615 13.2964 11.2695C13.3024 10.416 13.3084 9.56254 13.3144 8.71056C13.3084 8.52307 13.2137 8.35358 13.0798 8.22758C12.946 8.10158 12.7671 8.01009 12.5731 8.01159C11.734 8.01459 10.6513 7.72959 9.7867 7.5151C9.73708 7.5031 9.68295 7.5181 9.64535 7.5526L8.04239 9.10806C6.06049 7.94409 5.23344 7.1416 4.03348 5.22166L5.63043 3.6707C5.66952 3.6347 5.68606 3.5762 5.67253 3.5252C5.44396 2.67173 5.03345 1.51076 5.10412 0.604786C5.07255 0.429291 4.91466 0.270295 4.79887 0.183298C4.65902 0.0798003 4.48008 -0.00570214 4.27708 0.000297702C3.2741 0.000297702 2.25307 0.000297702 1.39295 0.000297702ZM1.39295 0.30029H4.27858C4.41542 0.30479 4.52519 0.367787 4.62143 0.421786C4.71767 0.493784 4.78684 0.589782 4.8094 0.63778C4.75225 1.60675 5.1357 2.70623 5.35976 3.5162L3.73424 5.09116C3.68461 5.13766 3.67409 5.22016 3.71018 5.27866C4.98232 7.3366 5.86501 8.19158 7.98675 9.42755C8.04239 9.45905 8.11908 9.44854 8.1657 9.40354L9.79573 7.82409C10.6438 8.03559 11.6949 8.31458 12.5776 8.31158C12.6738 8.31158 12.7866 8.36108 12.8738 8.44358C12.9596 8.52457 13.0107 8.62807 13.0152 8.71056C13.0092 9.60154 13.0017 10.5075 12.9971 11.2695C12.9971 11.3595 12.943 11.4645 12.8558 11.55C12.7686 11.6355 12.6498 11.694 12.546 11.7C8.94161 11.7045 6.11462 10.701 4.15828 8.83206C2.19894 6.96011 1.10122 4.21218 0.983934 0.703779C0.991453 0.585282 1.0501 0.510289 1.10122 0.436791C1.18844 0.351293 1.30122 0.328789 1.39295 0.30029Z"/>
</mask>
<path d="M1.39295 0.000297702L1.39295 -0.999732L1.38521 -0.999672L1.39295 0.000297702ZM0.890704 0.220797L0.184483 -0.487195L0.131569 -0.434413L0.0870888 -0.374353L0.890704 0.220797ZM0.684694 0.721778L1.68412 0.688014L1.68379 0.678078L1.68326 0.668149L0.684694 0.721778ZM3.95077 9.04655L4.64152 8.32346L4.6415 8.32344L3.95077 9.04655ZM12.5551 12L12.5551 11L12.5534 11L12.5551 12ZM12.5641 12V13H12.5911L12.6181 12.9985L12.5641 12ZM13.0663 11.766L12.3682 11.05L12.3642 11.054L13.0663 11.766ZM13.2964 11.2695L12.2964 11.2624V11.2695H13.2964ZM13.3144 8.71056L14.3144 8.71762L14.3145 8.69806L14.3139 8.6785L13.3144 8.71056ZM12.5731 8.01159L12.5767 9.01159L12.5808 9.01156L12.5731 8.01159ZM9.7867 7.5151L10.0275 6.5445L10.0217 6.54312L9.7867 7.5151ZM9.64535 7.5526L8.96922 6.81582L8.95896 6.82524L8.94896 6.83494L9.64535 7.5526ZM8.04239 9.10806L7.53597 9.97034L8.19243 10.3559L8.73878 9.82572L8.04239 9.10806ZM4.03348 5.22166L3.33678 4.50429L2.7575 5.06689L3.18548 5.75166L4.03348 5.22166ZM5.63043 3.6707L4.95306 2.93505L4.94327 2.94407L4.93373 2.95334L5.63043 3.6707ZM5.67253 3.5252L6.63908 3.26871L6.63849 3.26651L5.67253 3.5252ZM5.10412 0.604786L6.10109 0.682559L6.1111 0.554304L6.08832 0.427693L5.10412 0.604786ZM4.79887 0.183298L5.39958 -0.6162L5.39375 -0.620513L4.79887 0.183298ZM4.27708 0.000297702L4.27708 1.0003L4.29185 1.0003L4.30662 0.999861L4.27708 0.000297702ZM1.39295 0.30029V-0.69971H1.24118L1.09624 -0.654679L1.39295 0.30029ZM4.27858 0.30029L4.31145 -0.69917L4.29502 -0.69971H4.27858V0.30029ZM4.62143 0.421786L5.22047 -0.378934L5.16795 -0.418221L5.11076 -0.450313L4.62143 0.421786ZM4.8094 0.63778L5.80766 0.696649L5.82264 0.442706L5.71444 0.212475L4.8094 0.63778ZM5.35976 3.5162L6.0556 4.23439L6.48176 3.82149L6.32356 3.2496L5.35976 3.5162ZM3.73424 5.09116L4.418 5.82086L4.42409 5.81516L4.43008 5.80935L3.73424 5.09116ZM3.71018 5.27866L2.8591 5.8037L2.85957 5.80447L3.71018 5.27866ZM7.98675 9.42755L7.48337 10.2917L7.49408 10.2978L7.98675 9.42755ZM8.1657 9.40354L8.86022 10.123L8.86157 10.1217L8.1657 9.40354ZM9.79573 7.82409L10.0377 6.85381L9.49875 6.71941L9.09985 7.10593L9.79573 7.82409ZM12.5776 8.31158L12.5776 7.31157L12.5742 7.31158L12.5776 8.31158ZM12.8738 8.44358L12.1867 9.17006L12.187 9.17039L12.8738 8.44358ZM13.0152 8.71056L14.0152 8.71731L14.0154 8.68662L14.0137 8.65596L13.0152 8.71056ZM12.9971 11.2695L11.9971 11.2636V11.2695H12.9971ZM12.546 11.7L12.5473 12.7L12.5755 12.6999L12.6038 12.6983L12.546 11.7ZM4.15828 8.83206L3.46749 9.55511L3.46751 9.55513L4.15828 8.83206ZM0.983934 0.703779L-0.0140587 0.640457L-0.0171254 0.688789L-0.0155072 0.737192L0.983934 0.703779ZM1.10122 0.436791L0.401186 -0.277314L0.334018 -0.211469L0.280306 -0.134254L1.10122 0.436791ZM1.38521 -0.999672C0.886507 -0.995816 0.468333 -0.770335 0.184483 -0.487195L1.59693 0.928788C1.57472 0.950935 1.51143 0.999411 1.40068 1.00027L1.38521 -0.999672ZM0.0870888 -0.374353C-0.0482407 -0.191621 -0.343326 0.22687 -0.313867 0.775406L1.68326 0.668149C1.68962 0.786636 1.65783 0.863541 1.65134 0.878099C1.64777 0.886103 1.64771 0.884607 1.65534 0.872293C1.66289 0.860095 1.67514 0.841838 1.69432 0.815946L0.0870888 -0.374353ZM-0.314735 0.755541C-0.187983 4.50751 1.00311 7.61379 3.26004 9.76966L4.6415 8.32344C2.85343 6.61543 1.79797 4.05785 1.68412 0.688014L-0.314735 0.755541ZM3.26003 9.76965C5.51719 11.9258 8.7055 13.0063 12.5567 13L12.5534 11C9.07247 11.0057 6.43237 10.0342 4.64152 8.32346L3.26003 9.76965ZM12.5551 13C12.5551 13 12.5551 13 12.5551 13C12.5551 13 12.5551 13 12.5551 13C12.5551 13 12.5551 13 12.5551 13C12.5551 13 12.5551 13 12.5551 13C12.5551 13 12.5551 13 12.5551 13C12.5551 13 12.5551 13 12.5552 13C12.5552 13 12.5552 13 12.5552 13C12.5552 13 12.5552 13 12.5552 13C12.5552 13 12.5552 13 12.5552 13C12.5552 13 12.5552 13 12.5552 13C12.5552 13 12.5552 13 12.5552 13C12.5552 13 12.5553 13 12.5553 13C12.5553 13 12.5553 13 12.5553 13C12.5553 13 12.5553 13 12.5553 13C12.5553 13 12.5553 13 12.5553 13C12.5553 13 12.5553 13 12.5553 13C12.5553 13 12.5553 13 12.5553 13C12.5554 13 12.5554 13 12.5554 13C12.5554 13 12.5554 13 12.5554 13C12.5554 13 12.5554 13 12.5554 13C12.5554 13 12.5554 13 12.5554 13C12.5554 13 12.5554 13 12.5554 13C12.5554 13 12.5554 13 12.5555 13C12.5555 13 12.5555 13 12.5555 13C12.5555 13 12.5555 13 12.5555 13C12.5555 13 12.5555 13 12.5555 13C12.5555 13 12.5555 13 12.5555 13C12.5555 13 12.5555 13 12.5555 13C12.5555 13 12.5556 13 12.5556 13C12.5556 13 12.5556 13 12.5556 13C12.5556 13 12.5556 13 12.5556 13C12.5556 13 12.5556 13 12.5556 13C12.5556 13 12.5556 13 12.5556 13C12.5556 13 12.5556 13 12.5556 13C12.5557 13 12.5557 13 12.5557 13C12.5557 13 12.5557 13 12.5557 13C12.5557 13 12.5557 13 12.5557 13C12.5557 13 12.5557 13 12.5557 13C12.5557 13 12.5557 13 12.5557 13C12.5557 13 12.5557 13 12.5558 13C12.5558 13 12.5558 13 12.5558 13C12.5558 13 12.5558 13 12.5558 13C12.5558 13 12.5558 13 12.5558 13C12.5558 13 12.5558 13 12.5558 13C12.5558 13 12.5558 13 12.5558 13C12.5558 13 12.5559 13 12.5559 13C12.5559 13 12.5559 13 12.5559 13C12.5559 13 12.5559 13 12.5559 13C12.5559 13 12.5559 13 12.5559 13C12.5559 13 12.5559 13 12.5559 13C12.5559 13 12.5559 13 12.5559 13C12.556 13 12.556 13 12.556 13C12.556 13 12.556 13 12.556 13C12.556 13 12.556 13 12.556 13C12.556 13 12.556 13 12.556 13C12.556 13 12.556 13 12.556 13C12.556 13 12.556 13 12.5561 13C12.5561 13 12.5561 13 12.5561 13C12.5561 13 12.5561 13 12.5561 13C12.5561 13 12.5561 13 12.5561 13C12.5561 13 12.5561 13 12.5561 13C12.5561 13 12.5561 13 12.5561 13C12.5561 13 12.5562 13 12.5562 13C12.5562 13 12.5562 13 12.5562 13C12.5562 13 12.5562 13 12.5562 13C12.5562 13 12.5562 13 12.5562 13C12.5562 13 12.5562 13 12.5562 13C12.5562 13 12.5562 13 12.5562 13C12.5563 13 12.5563 13 12.5563 13C12.5563 13 12.5563 13 12.5563 13C12.5563 13 12.5563 13 12.5563 13C12.5563 13 12.5563 13 12.5563 13C12.5563 13 12.5563 13 12.5563 13C12.5563 13 12.5563 13 12.5564 13C12.5564 13 12.5564 13 12.5564 13C12.5564 13 12.5564 13 12.5564 13C12.5564 13 12.5564 13 12.5564 13C12.5564 13 12.5564 13 12.5564 13C12.5564 13 12.5564 13 12.5564 13C12.5564 13 12.5565 13 12.5565 13C12.5565 13 12.5565 13 12.5565 13C12.5565 13 12.5565 13 12.5565 13C12.5565 13 12.5565 13 12.5565 13C12.5565 13 12.5565 13 12.5565 13C12.5565 13 12.5565 13 12.5565 13C12.5566 13 12.5566 13 12.5566 13C12.5566 13 12.5566 13 12.5566 13C12.5566 13 12.5566 13 12.5566 13C12.5566 13 12.5566 13 12.5566 13C12.5566 13 12.5566 13 12.5566 13C12.5566 13 12.5566 13 12.5567 13C12.5567 13 12.5567 13 12.5567 13C12.5567 13 12.5567 13 12.5567 13C12.5567 13 12.5567 13 12.5567 13C12.5567 13 12.5567 13 12.5567 13C12.5567 13 12.5567 13 12.5567 13C12.5567 13 12.5568 13 12.5568 13C12.5568 13 12.5568 13 12.5568 13C12.5568 13 12.5568 13 12.5568 13C12.5568 13 12.5568 13 12.5568 13C12.5568 13 12.5568 13 12.5568 13C12.5568 13 12.5568 13 12.5568 13C12.5569 13 12.5569 13 12.5569 13C12.5569 13 12.5569 13 12.5569 13C12.5569 13 12.5569 13 12.5569 13C12.5569 13 12.5569 13 12.5569 13C12.5569 13 12.5569 13 12.5569 13C12.5569 13 12.5569 13 12.557 13C12.557 13 12.557 13 12.557 13C12.557 13 12.557 13 12.557 13C12.557 13 12.557 13 12.557 13C12.557 13 12.557 13 12.557 13C12.557 13 12.557 13 12.557 13C12.557 13 12.5571 13 12.5571 13C12.5571 13 12.5571 13 12.5571 13C12.5571 13 12.5571 13 12.5571 13C12.5571 13 12.5571 13 12.5571 13C12.5571 13 12.5571 13 12.5571 13C12.5571 13 12.5571 13 12.5571 13C12.5572 13 12.5572 13 12.5572 13C12.5572 13 12.5572 13 12.5572 13C12.5572 13 12.5572 13 12.5572 13C12.5572 13 12.5572 13 12.5572 13C12.5572 13 12.5572 13 12.5572 13C12.5572 13 12.5572 13 12.5573 13C12.5573 13 12.5573 13 12.5573 13C12.5573 13 12.5573 13 12.5573 13C12.5573 13 12.5573 13 12.5573 13C12.5573 13 12.5573 13 12.5573 13C12.5573 13 12.5573 13 12.5573 13C12.5573 13 12.5574 13 12.5574 13C12.5574 13 12.5574 13 12.5574 13C12.5574 13 12.5574 13 12.5574 13C12.5574 13 12.5574 13 12.5574 13C12.5574 13 12.5574 13 12.5574 13C12.5574 13 12.5574 13 12.5574 13C12.5575 13 12.5575 13 12.5575 13C12.5575 13 12.5575 13 12.5575 13C12.5575 13 12.5575 13 12.5575 13C12.5575 13 12.5575 13 12.5575 13C12.5575 13 12.5575 13 12.5575 13C12.5575 13 12.5575 13 12.5576 13C12.5576 13 12.5576 13 12.5576 13C12.5576 13 12.5576 13 12.5576 13C12.5576 13 12.5576 13 12.5576 13C12.5576 13 12.5576 13 12.5576 13C12.5576 13 12.5576 13 12.5576 13C12.5576 13 12.5577 13 12.5577 13C12.5577 13 12.5577 13 12.5577 13C12.5577 13 12.5577 13 12.5577 13C12.5577 13 12.5577 13 12.5577 13C12.5577 13 12.5577 13 12.5577 13C12.5577 13 12.5577 13 12.5577 13C12.5578 13 12.5578 13 12.5578 13C12.5578 13 12.5578 13 12.5578 13C12.5578 13 12.5578 13 12.5578 13C12.5578 13 12.5578 13 12.5578 13C12.5578 13 12.5578 13 12.5578 13C12.5578 13 12.5578 13 12.5579 13C12.5579 13 12.5579 13 12.5579 13C12.5579 13 12.5579 13 12.5579 13C12.5579 13 12.5579 13 12.5579 13C12.5579 13 12.5579 13 12.5579 13C12.5579 13 12.5579 13 12.5579 13C12.5579 13 12.558 13 12.558 13C12.558 13 12.558 13 12.558 13C12.558 13 12.558 13 12.558 13C12.558 13 12.558 13 12.558 13C12.558 13 12.558 13 12.558 13C12.558 13 12.558 13 12.558 13C12.5581 13 12.5581 13 12.5581 13C12.5581 13 12.5581 13 12.5581 13C12.5581 13 12.5581 13 12.5581 13C12.5581 13 12.5581 13 12.5581 13C12.5581 13 12.5581 13 12.5581 13C12.5581 13 12.5581 13 12.5582 13C12.5582 13 12.5582 13 12.5582 13C12.5582 13 12.5582 13 12.5582 13C12.5582 13 12.5582 13 12.5582 13C12.5582 13 12.5582 13 12.5582 13C12.5582 13 12.5582 13 12.5582 13C12.5582 13 12.5583 13 12.5583 13C12.5583 13 12.5583 13 12.5583 13C12.5583 13 12.5583 13 12.5583 13C12.5583 13 12.5583 13 12.5583 13C12.5583 13 12.5583 13 12.5583 13C12.5583 13 12.5583 13 12.5583 13C12.5584 13 12.5584 13 12.5584 13C12.5584 13 12.5584 13 12.5584 13C12.5584 13 12.5584 13 12.5584 13C12.5584 13 12.5584 13 12.5584 13C12.5584 13 12.5584 13 12.5584 13C12.5584 13 12.5584 13 12.5585 13C12.5585 13 12.5585 13 12.5585 13C12.5585 13 12.5585 13 12.5585 13C12.5585 13 12.5585 13 12.5585 13C12.5585 13 12.5585 13 12.5585 13C12.5585 13 12.5585 13 12.5585 13C12.5585 13 12.5586 13 12.5586 13C12.5586 13 12.5586 13 12.5586 13C12.5586 13 12.5586 13 12.5586 13C12.5586 13 12.5586 13 12.5586 13C12.5586 13 12.5586 13 12.5586 13C12.5586 13 12.5586 13 12.5586 13C12.5587 13 12.5587 13 12.5587 13C12.5587 13 12.5587 13 12.5587 13C12.5587 13 12.5587 13 12.5587 13C12.5587 13 12.5587 13 12.5587 13C12.5587 13 12.5587 13 12.5587 13C12.5587 13 12.5587 13 12.5588 13C12.5588 13 12.5588 13 12.5588 13C12.5588 13 12.5588 13 12.5588 13C12.5588 13 12.5588 13 12.5588 13C12.5588 13 12.5588 13 12.5588 13C12.5588 13 12.5588 13 12.5588 13C12.5588 13 12.5589 13 12.5589 13C12.5589 13 12.5589 13 12.5589 13C12.5589 13 12.5589 13 12.5589 13C12.5589 13 12.5589 13 12.5589 13C12.5589 13 12.5589 13 12.5589 13C12.5589 13 12.5589 13 12.5589 13C12.559 13 12.559 13 12.559 13C12.559 13 12.559 13 12.559 13C12.559 13 12.559 13 12.559 13C12.559 13 12.559 13 12.559 13C12.559 13 12.559 13 12.559 13C12.559 13 12.559 13 12.5591 13C12.5591 13 12.5591 13 12.5591 13C12.5591 13 12.5591 13 12.5591 13C12.5591 13 12.5591 13 12.5591 13C12.5591 13 12.5591 13 12.5591 13C12.5591 13 12.5591 13 12.5591 13C12.5591 13 12.5592 13 12.5592 13C12.5592 13 12.5592 13 12.5592 13C12.5592 13 12.5592 13 12.5592 13C12.5592 13 12.5592 13 12.5592 13C12.5592 13 12.5592 13 12.5592 13C12.5592 13 12.5592 13 12.5592 13C12.5593 13 12.5593 13 12.5593 13C12.5593 13 12.5593 13 12.5593 13C12.5593 13 12.5593 13 12.5593 13C12.5593 13 12.5593 13 12.5593 13C12.5593 13 12.5593 13 12.5593 13C12.5593 13 12.5593 13 12.5594 13C12.5594 13 12.5594 13 12.5594 13C12.5594 13 12.5594 13 12.5594 13C12.5594 13 12.5594 13 12.5594 13C12.5594 13 12.5594 13 12.5594 13C12.5594 13 12.5594 13 12.5594 13C12.5594 13 12.5594 13 12.5595 13C12.5595 13 12.5595 13 12.5595 13C12.5595 13 12.5595 13 12.5595 13C12.5595 13 12.5595 13 12.5595 13C12.5595 13 12.5595 13 12.5595 13C12.5595 13 12.5595 13 12.5595 13C12.5595 13 12.5596 13 12.5596 13C12.5596 13 12.5596 13 12.5596 13C12.5596 13 12.5596 13 12.5596 13C12.5596 13 12.5596 13 12.5596 13C12.5596 13 12.5596 13 12.5596 13C12.5596 13 12.5596 13 12.5596 13C12.5597 13 12.5597 13 12.5597 13C12.5597 13 12.5597 13 12.5597 13C12.5597 13 12.5597 13 12.5597 13C12.5597 13 12.5597 13 12.5597 13C12.5597 13 12.5597 13 12.5597 13C12.5597 13 12.5597 13 12.5598 13C12.5598 13 12.5598 13 12.5598 13C12.5598 13 12.5598 13 12.5598 13C12.5598 13 12.5598 13 12.5598 13C12.5598 13 12.5598 13 12.5598 13C12.5598 13 12.5598 13 12.5598 13C12.5598 13 12.5599 13 12.5599 13C12.5599 13 12.5599 13 12.5599 13C12.5599 13 12.5599 13 12.5599 13C12.5599 13 12.5599 13 12.5599 13C12.5599 13 12.5599 13 12.5599 13C12.5599 13 12.5599 13 12.5599 13C12.56 13 12.56 13 12.56 13C12.56 13 12.56 13 12.56 13C12.56 13 12.56 13 12.56 13C12.56 13 12.56 13 12.56 13C12.56 13 12.56 13 12.56 13C12.56 13 12.56 13 12.5601 13C12.5601 13 12.5601 13 12.5601 13C12.5601 13 12.5601 13 12.5601 13C12.5601 13 12.5601 13 12.5601 13C12.5601 13 12.5601 13 12.5601 13C12.5601 13 12.5601 13 12.5601 13C12.5601 13 12.5602 13 12.5602 13C12.5602 13 12.5602 13 12.5602 13C12.5602 13 12.5602 13 12.5602 13C12.5602 13 12.5602 13 12.5602 13C12.5602 13 12.5602 13 12.5602 13C12.5602 13 12.5602 13 12.5602 13C12.5603 13 12.5603 13 12.5603 13C12.5603 13 12.5603 13 12.5603 13C12.5603 13 12.5603 13 12.5603 13C12.5603 13 12.5603 13 12.5603 13C12.5603 13 12.5603 13 12.5603 13C12.5603 13 12.5603 13 12.5604 13C12.5604 13 12.5604 13 12.5604 13C12.5604 13 12.5604 13 12.5604 13C12.5604 13 12.5604 13 12.5604 13C12.5604 13 12.5604 13 12.5604 13C12.5604 13 12.5604 13 12.5604 13C12.5604 13 12.5605 13 12.5605 13C12.5605 13 12.5605 13 12.5605 13C12.5605 13 12.5605 13 12.5605 13C12.5605 13 12.5605 13 12.5605 13C12.5605 13 12.5605 13 12.5605 13C12.5605 13 12.5605 13 12.5605 13C12.5606 13 12.5606 13 12.5606 13C12.5606 13 12.5606 13 12.5606 13C12.5606 13 12.5606 13 12.5606 13C12.5606 13 12.5606 13 12.5606 13C12.5606 13 12.5606 13 12.5606 13C12.5606 13 12.5606 13 12.5607 13C12.5607 13 12.5607 13 12.5607 13C12.5607 13 12.5607 13 12.5607 13C12.5607 13 12.5607 13 12.5607 13C12.5607 13 12.5607 13 12.5607 13C12.5607 13 12.5607 13 12.5607 13C12.5607 13 12.5608 13 12.5608 13C12.5608 13 12.5608 13 12.5608 13C12.5608 13 12.5608 13 12.5608 13C12.5608 13 12.5608 13 12.5608 13C12.5608 13 12.5608 13 12.5608 13C12.5608 13 12.5608 13 12.5608 13C12.5609 13 12.5609 13 12.5609 13C12.5609 13 12.5609 13 12.5609 13C12.5609 13 12.5609 13 12.5609 13C12.5609 13 12.5609 13 12.5609 13C12.5609 13 12.5609 13 12.5609 13C12.5609 13 12.5609 13 12.561 13C12.561 13 12.561 13 12.561 13C12.561 13 12.561 13 12.561 13C12.561 13 12.561 13 12.561 13C12.561 13 12.561 13 12.561 13C12.561 13 12.561 13 12.561 13C12.561 13 12.5611 13 12.5611 13C12.5611 13 12.5611 13 12.5611 13C12.5611 13 12.5611 13 12.5611 13C12.5611 13 12.5611 13 12.5611 13C12.5611 13 12.5611 13 12.5611 13C12.5611 13 12.5611 13 12.5611 13C12.5612 13 12.5612 13 12.5612 13C12.5612 13 12.5612 13 12.5612 13C12.5612 13 12.5612 13 12.5612 13C12.5612 13 12.5612 13 12.5612 13C12.5612 13 12.5612 13 12.5612 13C12.5612 13 12.5612 13 12.5613 13C12.5613 13 12.5613 13 12.5613 13C12.5613 13 12.5613 13 12.5613 13C12.5613 13 12.5613 13 12.5613 13C12.5613 13 12.5613 13 12.5613 13C12.5613 13 12.5613 13 12.5613 13C12.5613 13 12.5614 13 12.5614 13C12.5614 13 12.5614 13 12.5614 13C12.5614 13 12.5614 13 12.5614 13C12.5614 13 12.5614 13 12.5614 13C12.5614 13 12.5614 13 12.5614 13C12.5614 13 12.5614 13 12.5614 13C12.5615 13 12.5615 13 12.5615 13C12.5615 13 12.5615 13 12.5615 13C12.5615 13 12.5615 13 12.5615 13C12.5615 13 12.5615 13 12.5615 13C12.5615 13 12.5615 13 12.5615 13C12.5615 13 12.5615 13 12.5616 13C12.5616 13 12.5616 13 12.5616 13C12.5616 13 12.5616 13 12.5616 13C12.5616 13 12.5616 13 12.5616 13C12.5616 13 12.5616 13 12.5616 13C12.5616 13 12.5616 13 12.5616 13C12.5616 13 12.5617 13 12.5617 13C12.5617 13 12.5617 13 12.5617 13C12.5617 13 12.5617 13 12.5617 13C12.5617 13 12.5617 13 12.5617 13C12.5617 13 12.5617 13 12.5617 13C12.5617 13 12.5617 13 12.5617 13C12.5618 13 12.5618 13 12.5618 13C12.5618 13 12.5618 13 12.5618 13C12.5618 13 12.5618 13 12.5618 13C12.5618 13 12.5618 13 12.5618 13C12.5618 13 12.5618 13 12.5618 13C12.5618 13 12.5618 13 12.5619 13C12.5619 13 12.5619 13 12.5619 13C12.5619 13 12.5619 13 12.5619 13C12.5619 13 12.5619 13 12.5619 13C12.5619 13 12.5619 13 12.5619 13C12.5619 13 12.5619 13 12.5619 13C12.5619 13 12.562 13 12.562 13C12.562 13 12.562 13 12.562 13C12.562 13 12.562 13 12.562 13C12.562 13 12.562 13 12.562 13C12.562 13 12.562 13 12.562 13C12.562 13 12.562 13 12.562 13C12.5621 13 12.5621 13 12.5621 13C12.5621 13 12.5621 13 12.5621 13C12.5621 13 12.5621 13 12.5621 13C12.5621 13 12.5621 13 12.5621 13C12.5621 13 12.5621 13 12.5621 13C12.5621 13 12.5621 13 12.5622 13C12.5622 13 12.5622 13 12.5622 13C12.5622 13 12.5622 13 12.5622 13C12.5622 13 12.5622 13 12.5622 13C12.5622 13 12.5622 13 12.5622 13C12.5622 13 12.5622 13 12.5622 13C12.5622 13 12.5623 13 12.5623 13C12.5623 13 12.5623 13 12.5623 13C12.5623 13 12.5623 13 12.5623 13C12.5623 13 12.5623 13 12.5623 13C12.5623 13 12.5623 13 12.5623 13C12.5623 13 12.5623 13 12.5623 13C12.5624 13 12.5624 13 12.5624 13C12.5624 13 12.5624 13 12.5624 13C12.5624 13 12.5624 13 12.5624 13C12.5624 13 12.5624 13 12.5624 13C12.5624 13 12.5624 13 12.5624 13C12.5624 13 12.5624 13 12.5625 13C12.5625 13 12.5625 13 12.5625 13C12.5625 13 12.5625 13 12.5625 13C12.5625 13 12.5625 13 12.5625 13C12.5625 13 12.5625 13 12.5625 13C12.5625 13 12.5625 13 12.5625 13C12.5625 13 12.5626 13 12.5626 13C12.5626 13 12.5626 13 12.5626 13C12.5626 13 12.5626 13 12.5626 13C12.5626 13 12.5626 13 12.5626 13C12.5626 13 12.5626 13 12.5626 13C12.5626 13 12.5626 13 12.5626 13C12.5627 13 12.5627 13 12.5627 13C12.5627 13 12.5627 13 12.5627 13C12.5627 13 12.5627 13 12.5627 13C12.5627 13 12.5627 13 12.5627 13C12.5627 13 12.5627 13 12.5627 13C12.5627 13 12.5627 13 12.5628 13C12.5628 13 12.5628 13 12.5628 13C12.5628 13 12.5628 13 12.5628 13C12.5628 13 12.5628 13 12.5628 13C12.5628 13 12.5628 13 12.5628 13C12.5628 13 12.5628 13 12.5628 13C12.5628 13 12.5629 13 12.5629 13C12.5629 13 12.5629 13 12.5629 13C12.5629 13 12.5629 13 12.5629 13C12.5629 13 12.5629 13 12.5629 13C12.5629 13 12.5629 13 12.5629 13C12.5629 13 12.5629 13 12.5629 13C12.563 13 12.563 13 12.563 13C12.563 13 12.563 13 12.563 13C12.563 13 12.563 13 12.563 13C12.563 13 12.563 13 12.563 13C12.563 13 12.563 13 12.563 13C12.563 13 12.563 13 12.5631 13C12.5631 13 12.5631 13 12.5631 13C12.5631 13 12.5631 13 12.5631 13C12.5631 13 12.5631 13 12.5631 13C12.5631 13 12.5631 13 12.5631 13C12.5631 13 12.5631 13 12.5631 13C12.5631 13 12.5632 13 12.5632 13C12.5632 13 12.5632 13 12.5632 13C12.5632 13 12.5632 13 12.5632 13C12.5632 13 12.5632 13 12.5632 13C12.5632 13 12.5632 13 12.5632 13C12.5632 13 12.5632 13 12.5632 13C12.5633 13 12.5633 13 12.5633 13C12.5633 13 12.5633 13 12.5633 13C12.5633 13 12.5633 13 12.5633 13C12.5633 13 12.5633 13 12.5633 13C12.5633 13 12.5633 13 12.5633 13C12.5633 13 12.5633 13 12.5634 13C12.5634 13 12.5634 13 12.5634 13C12.5634 13 12.5634 13 12.5634 13C12.5634 13 12.5634 13 12.5634 13C12.5634 13 12.5634 13 12.5634 13C12.5634 13 12.5634 13 12.5634 13C12.5634 13 12.5635 13 12.5635 13C12.5635 13 12.5635 13 12.5635 13C12.5635 13 12.5635 13 12.5635 13C12.5635 13 12.5635 13 12.5635 13C12.5635 13 12.5635 13 12.5635 13C12.5635 13 12.5635 13 12.5635 13C12.5636 13 12.5636 13 12.5636 13C12.5636 13 12.5636 13 12.5636 13C12.5636 13 12.5636 13 12.5636 13C12.5636 13 12.5636 13 12.5636 13C12.5636 13 12.5636 13 12.5636 13C12.5636 13 12.5636 13 12.5637 13C12.5637 13 12.5637 13 12.5637 13C12.5637 13 12.5637 13 12.5637 13C12.5637 13 12.5637 13 12.5637 13C12.5637 13 12.5637 13 12.5637 13C12.5637 13 12.5637 13 12.5637 13C12.5637 13 12.5638 13 12.5638 13C12.5638 13 12.5638 13 12.5638 13C12.5638 13 12.5638 13 12.5638 13C12.5638 13 12.5638 13 12.5638 13C12.5638 13 12.5638 13 12.5638 13C12.5638 13 12.5638 13 12.5638 13C12.5638 13 12.5639 13 12.5639 13C12.5639 13 12.5639 13 12.5639 13C12.5639 13 12.5639 13 12.5639 13C12.5639 13 12.5639 13 12.5639 13C12.5639 13 12.5639 13 12.5639 13C12.5639 13 12.5639 13 12.5639 13C12.564 13 12.564 13 12.564 13C12.564 13 12.564 13 12.564 13C12.564 13 12.564 13 12.564 13C12.564 13 12.564 13 12.564 13C12.564 13 12.564 13 12.564 13C12.564 13 12.564 13 12.5641 13C12.5641 13 12.5641 13 12.5641 13V11C12.5641 11 12.5641 11 12.5641 11C12.564 11 12.564 11 12.564 11C12.564 11 12.564 11 12.564 11C12.564 11 12.564 11 12.564 11C12.564 11 12.564 11 12.564 11C12.564 11 12.564 11 12.564 11C12.564 11 12.564 11 12.5639 11C12.5639 11 12.5639 11 12.5639 11C12.5639 11 12.5639 11 12.5639 11C12.5639 11 12.5639 11 12.5639 11C12.5639 11 12.5639 11 12.5639 11C12.5639 11 12.5639 11 12.5639 11C12.5639 11 12.5638 11 12.5638 11C12.5638 11 12.5638 11 12.5638 11C12.5638 11 12.5638 11 12.5638 11C12.5638 11 12.5638 11 12.5638 11C12.5638 11 12.5638 11 12.5638 11C12.5638 11 12.5638 11 12.5638 11C12.5638 11 12.5637 11 12.5637 11C12.5637 11 12.5637 11 12.5637 11C12.5637 11 12.5637 11 12.5637 11C12.5637 11 12.5637 11 12.5637 11C12.5637 11 12.5637 11 12.5637 11C12.5637 11 12.5637 11 12.5637 11C12.5636 11 12.5636 11 12.5636 11C12.5636 11 12.5636 11 12.5636 11C12.5636 11 12.5636 11 12.5636 11C12.5636 11 12.5636 11 12.5636 11C12.5636 11 12.5636 11 12.5636 11C12.5636 11 12.5636 11 12.5635 11C12.5635 11 12.5635 11 12.5635 11C12.5635 11 12.5635 11 12.5635 11C12.5635 11 12.5635 11 12.5635 11C12.5635 11 12.5635 11 12.5635 11C12.5635 11 12.5635 11 12.5635 11C12.5635 11 12.5634 11 12.5634 11C12.5634 11 12.5634 11 12.5634 11C12.5634 11 12.5634 11 12.5634 11C12.5634 11 12.5634 11 12.5634 11C12.5634 11 12.5634 11 12.5634 11C12.5634 11 12.5634 11 12.5634 11C12.5633 11 12.5633 11 12.5633 11C12.5633 11 12.5633 11 12.5633 11C12.5633 11 12.5633 11 12.5633 11C12.5633 11 12.5633 11 12.5633 11C12.5633 11 12.5633 11 12.5633 11C12.5633 11 12.5633 11 12.5632 11C12.5632 11 12.5632 11 12.5632 11C12.5632 11 12.5632 11 12.5632 11C12.5632 11 12.5632 11 12.5632 11C12.5632 11 12.5632 11 12.5632 11C12.5632 11 12.5632 11 12.5632 11C12.5632 11 12.5631 11 12.5631 11C12.5631 11 12.5631 11 12.5631 11C12.5631 11 12.5631 11 12.5631 11C12.5631 11 12.5631 11 12.5631 11C12.5631 11 12.5631 11 12.5631 11C12.5631 11 12.5631 11 12.5631 11C12.563 11 12.563 11 12.563 11C12.563 11 12.563 11 12.563 11C12.563 11 12.563 11 12.563 11C12.563 11 12.563 11 12.563 11C12.563 11 12.563 11 12.563 11C12.563 11 12.563 11 12.5629 11C12.5629 11 12.5629 11 12.5629 11C12.5629 11 12.5629 11 12.5629 11C12.5629 11 12.5629 11 12.5629 11C12.5629 11 12.5629 11 12.5629 11C12.5629 11 12.5629 11 12.5629 11C12.5629 11 12.5628 11 12.5628 11C12.5628 11 12.5628 11 12.5628 11C12.5628 11 12.5628 11 12.5628 11C12.5628 11 12.5628 11 12.5628 11C12.5628 11 12.5628 11 12.5628 11C12.5628 11 12.5628 11 12.5628 11C12.5627 11 12.5627 11 12.5627 11C12.5627 11 12.5627 11 12.5627 11C12.5627 11 12.5627 11 12.5627 11C12.5627 11 12.5627 11 12.5627 11C12.5627 11 12.5627 11 12.5627 11C12.5627 11 12.5627 11 12.5626 11C12.5626 11 12.5626 11 12.5626 11C12.5626 11 12.5626 11 12.5626 11C12.5626 11 12.5626 11 12.5626 11C12.5626 11 12.5626 11 12.5626 11C12.5626 11 12.5626 11 12.5626 11C12.5626 11 12.5625 11 12.5625 11C12.5625 11 12.5625 11 12.5625 11C12.5625 11 12.5625 11 12.5625 11C12.5625 11 12.5625 11 12.5625 11C12.5625 11 12.5625 11 12.5625 11C12.5625 11 12.5625 11 12.5625 11C12.5624 11 12.5624 11 12.5624 11C12.5624 11 12.5624 11 12.5624 11C12.5624 11 12.5624 11 12.5624 11C12.5624 11 12.5624 11 12.5624 11C12.5624 11 12.5624 11 12.5624 11C12.5624 11 12.5624 11 12.5623 11C12.5623 11 12.5623 11 12.5623 11C12.5623 11 12.5623 11 12.5623 11C12.5623 11 12.5623 11 12.5623 11C12.5623 11 12.5623 11 12.5623 11C12.5623 11 12.5623 11 12.5623 11C12.5623 11 12.5622 11 12.5622 11C12.5622 11 12.5622 11 12.5622 11C12.5622 11 12.5622 11 12.5622 11C12.5622 11 12.5622 11 12.5622 11C12.5622 11 12.5622 11 12.5622 11C12.5622 11 12.5622 11 12.5622 11C12.5621 11 12.5621 11 12.5621 11C12.5621 11 12.5621 11 12.5621 11C12.5621 11 12.5621 11 12.5621 11C12.5621 11 12.5621 11 12.5621 11C12.5621 11 12.5621 11 12.5621 11C12.5621 11 12.5621 11 12.562 11C12.562 11 12.562 11 12.562 11C12.562 11 12.562 11 12.562 11C12.562 11 12.562 11 12.562 11C12.562 11 12.562 11 12.562 11C12.562 11 12.562 11 12.562 11C12.562 11 12.5619 11 12.5619 11C12.5619 11 12.5619 11 12.5619 11C12.5619 11 12.5619 11 12.5619 11C12.5619 11 12.5619 11 12.5619 11C12.5619 11 12.5619 11 12.5619 11C12.5619 11 12.5619 11 12.5619 11C12.5618 11 12.5618 11 12.5618 11C12.5618 11 12.5618 11 12.5618 11C12.5618 11 12.5618 11 12.5618 11C12.5618 11 12.5618 11 12.5618 11C12.5618 11 12.5618 11 12.5618 11C12.5618 11 12.5618 11 12.5617 11C12.5617 11 12.5617 11 12.5617 11C12.5617 11 12.5617 11 12.5617 11C12.5617 11 12.5617 11 12.5617 11C12.5617 11 12.5617 11 12.5617 11C12.5617 11 12.5617 11 12.5617 11C12.5617 11 12.5616 11 12.5616 11C12.5616 11 12.5616 11 12.5616 11C12.5616 11 12.5616 11 12.5616 11C12.5616 11 12.5616 11 12.5616 11C12.5616 11 12.5616 11 12.5616 11C12.5616 11 12.5616 11 12.5616 11C12.5615 11 12.5615 11 12.5615 11C12.5615 11 12.5615 11 12.5615 11C12.5615 11 12.5615 11 12.5615 11C12.5615 11 12.5615 11 12.5615 11C12.5615 11 12.5615 11 12.5615 11C12.5615 11 12.5615 11 12.5614 11C12.5614 11 12.5614 11 12.5614 11C12.5614 11 12.5614 11 12.5614 11C12.5614 11 12.5614 11 12.5614 11C12.5614 11 12.5614 11 12.5614 11C12.5614 11 12.5614 11 12.5614 11C12.5614 11 12.5613 11 12.5613 11C12.5613 11 12.5613 11 12.5613 11C12.5613 11 12.5613 11 12.5613 11C12.5613 11 12.5613 11 12.5613 11C12.5613 11 12.5613 11 12.5613 11C12.5613 11 12.5613 11 12.5613 11C12.5612 11 12.5612 11 12.5612 11C12.5612 11 12.5612 11 12.5612 11C12.5612 11 12.5612 11 12.5612 11C12.5612 11 12.5612 11 12.5612 11C12.5612 11 12.5612 11 12.5612 11C12.5612 11 12.5612 11 12.5611 11C12.5611 11 12.5611 11 12.5611 11C12.5611 11 12.5611 11 12.5611 11C12.5611 11 12.5611 11 12.5611 11C12.5611 11 12.5611 11 12.5611 11C12.5611 11 12.5611 11 12.5611 11C12.5611 11 12.561 11 12.561 11C12.561 11 12.561 11 12.561 11C12.561 11 12.561 11 12.561 11C12.561 11 12.561 11 12.561 11C12.561 11 12.561 11 12.561 11C12.561 11 12.561 11 12.561 11C12.5609 11 12.5609 11 12.5609 11C12.5609 11 12.5609 11 12.5609 11C12.5609 11 12.5609 11 12.5609 11C12.5609 11 12.5609 11 12.5609 11C12.5609 11 12.5609 11 12.5609 11C12.5609 11 12.5609 11 12.5608 11C12.5608 11 12.5608 11 12.5608 11C12.5608 11 12.5608 11 12.5608 11C12.5608 11 12.5608 11 12.5608 11C12.5608 11 12.5608 11 12.5608 11C12.5608 11 12.5608 11 12.5608 11C12.5608 11 12.5607 11 12.5607 11C12.5607 11 12.5607 11 12.5607 11C12.5607 11 12.5607 11 12.5607 11C12.5607 11 12.5607 11 12.5607 11C12.5607 11 12.5607 11 12.5607 11C12.5607 11 12.5607 11 12.5607 11C12.5606 11 12.5606 11 12.5606 11C12.5606 11 12.5606 11 12.5606 11C12.5606 11 12.5606 11 12.5606 11C12.5606 11 12.5606 11 12.5606 11C12.5606 11 12.5606 11 12.5606 11C12.5606 11 12.5606 11 12.5605 11C12.5605 11 12.5605 11 12.5605 11C12.5605 11 12.5605 11 12.5605 11C12.5605 11 12.5605 11 12.5605 11C12.5605 11 12.5605 11 12.5605 11C12.5605 11 12.5605 11 12.5605 11C12.5605 11 12.5604 11 12.5604 11C12.5604 11 12.5604 11 12.5604 11C12.5604 11 12.5604 11 12.5604 11C12.5604 11 12.5604 11 12.5604 11C12.5604 11 12.5604 11 12.5604 11C12.5604 11 12.5604 11 12.5604 11C12.5603 11 12.5603 11 12.5603 11C12.5603 11 12.5603 11 12.5603 11C12.5603 11 12.5603 11 12.5603 11C12.5603 11 12.5603 11 12.5603 11C12.5603 11 12.5603 11 12.5603 11C12.5603 11 12.5603 11 12.5602 11C12.5602 11 12.5602 11 12.5602 11C12.5602 11 12.5602 11 12.5602 11C12.5602 11 12.5602 11 12.5602 11C12.5602 11 12.5602 11 12.5602 11C12.5602 11 12.5602 11 12.5602 11C12.5602 11 12.5601 11 12.5601 11C12.5601 11 12.5601 11 12.5601 11C12.5601 11 12.5601 11 12.5601 11C12.5601 11 12.5601 11 12.5601 11C12.5601 11 12.5601 11 12.5601 11C12.5601 11 12.5601 11 12.5601 11C12.56 11 12.56 11 12.56 11C12.56 11 12.56 11 12.56 11C12.56 11 12.56 11 12.56 11C12.56 11 12.56 11 12.56 11C12.56 11 12.56 11 12.56 11C12.56 11 12.56 11 12.5599 11C12.5599 11 12.5599 11 12.5599 11C12.5599 11 12.5599 11 12.5599 11C12.5599 11 12.5599 11 12.5599 11C12.5599 11 12.5599 11 12.5599 11C12.5599 11 12.5599 11 12.5599 11C12.5599 11 12.5598 11 12.5598 11C12.5598 11 12.5598 11 12.5598 11C12.5598 11 12.5598 11 12.5598 11C12.5598 11 12.5598 11 12.5598 11C12.5598 11 12.5598 11 12.5598 11C12.5598 11 12.5598 11 12.5598 11C12.5597 11 12.5597 11 12.5597 11C12.5597 11 12.5597 11 12.5597 11C12.5597 11 12.5597 11 12.5597 11C12.5597 11 12.5597 11 12.5597 11C12.5597 11 12.5597 11 12.5597 11C12.5597 11 12.5597 11 12.5596 11C12.5596 11 12.5596 11 12.5596 11C12.5596 11 12.5596 11 12.5596 11C12.5596 11 12.5596 11 12.5596 11C12.5596 11 12.5596 11 12.5596 11C12.5596 11 12.5596 11 12.5596 11C12.5596 11 12.5595 11 12.5595 11C12.5595 11 12.5595 11 12.5595 11C12.5595 11 12.5595 11 12.5595 11C12.5595 11 12.5595 11 12.5595 11C12.5595 11 12.5595 11 12.5595 11C12.5595 11 12.5595 11 12.5595 11C12.5594 11 12.5594 11 12.5594 11C12.5594 11 12.5594 11 12.5594 11C12.5594 11 12.5594 11 12.5594 11C12.5594 11 12.5594 11 12.5594 11C12.5594 11 12.5594 11 12.5594 11C12.5594 11 12.5594 11 12.5594 11C12.5593 11 12.5593 11 12.5593 11C12.5593 11 12.5593 11 12.5593 11C12.5593 11 12.5593 11 12.5593 11C12.5593 11 12.5593 11 12.5593 11C12.5593 11 12.5593 11 12.5593 11C12.5593 11 12.5593 11 12.5592 11C12.5592 11 12.5592 11 12.5592 11C12.5592 11 12.5592 11 12.5592 11C12.5592 11 12.5592 11 12.5592 11C12.5592 11 12.5592 11 12.5592 11C12.5592 11 12.5592 11 12.5592 11C12.5592 11 12.5591 11 12.5591 11C12.5591 11 12.5591 11 12.5591 11C12.5591 11 12.5591 11 12.5591 11C12.5591 11 12.5591 11 12.5591 11C12.5591 11 12.5591 11 12.5591 11C12.5591 11 12.5591 11 12.5591 11C12.559 11 12.559 11 12.559 11C12.559 11 12.559 11 12.559 11C12.559 11 12.559 11 12.559 11C12.559 11 12.559 11 12.559 11C12.559 11 12.559 11 12.559 11C12.559 11 12.559 11 12.5589 11C12.5589 11 12.5589 11 12.5589 11C12.5589 11 12.5589 11 12.5589 11C12.5589 11 12.5589 11 12.5589 11C12.5589 11 12.5589 11 12.5589 11C12.5589 11 12.5589 11 12.5589 11C12.5589 11 12.5588 11 12.5588 11C12.5588 11 12.5588 11 12.5588 11C12.5588 11 12.5588 11 12.5588 11C12.5588 11 12.5588 11 12.5588 11C12.5588 11 12.5588 11 12.5588 11C12.5588 11 12.5588 11 12.5588 11C12.5587 11 12.5587 11 12.5587 11C12.5587 11 12.5587 11 12.5587 11C12.5587 11 12.5587 11 12.5587 11C12.5587 11 12.5587 11 12.5587 11C12.5587 11 12.5587 11 12.5587 11C12.5587 11 12.5587 11 12.5586 11C12.5586 11 12.5586 11 12.5586 11C12.5586 11 12.5586 11 12.5586 11C12.5586 11 12.5586 11 12.5586 11C12.5586 11 12.5586 11 12.5586 11C12.5586 11 12.5586 11 12.5586 11C12.5586 11 12.5585 11 12.5585 11C12.5585 11 12.5585 11 12.5585 11C12.5585 11 12.5585 11 12.5585 11C12.5585 11 12.5585 11 12.5585 11C12.5585 11 12.5585 11 12.5585 11C12.5585 11 12.5585 11 12.5585 11C12.5584 11 12.5584 11 12.5584 11C12.5584 11 12.5584 11 12.5584 11C12.5584 11 12.5584 11 12.5584 11C12.5584 11 12.5584 11 12.5584 11C12.5584 11 12.5584 11 12.5584 11C12.5584 11 12.5584 11 12.5583 11C12.5583 11 12.5583 11 12.5583 11C12.5583 11 12.5583 11 12.5583 11C12.5583 11 12.5583 11 12.5583 11C12.5583 11 12.5583 11 12.5583 11C12.5583 11 12.5583 11 12.5583 11C12.5583 11 12.5582 11 12.5582 11C12.5582 11 12.5582 11 12.5582 11C12.5582 11 12.5582 11 12.5582 11C12.5582 11 12.5582 11 12.5582 11C12.5582 11 12.5582 11 12.5582 11C12.5582 11 12.5582 11 12.5582 11C12.5581 11 12.5581 11 12.5581 11C12.5581 11 12.5581 11 12.5581 11C12.5581 11 12.5581 11 12.5581 11C12.5581 11 12.5581 11 12.5581 11C12.5581 11 12.5581 11 12.5581 11C12.5581 11 12.5581 11 12.558 11C12.558 11 12.558 11 12.558 11C12.558 11 12.558 11 12.558 11C12.558 11 12.558 11 12.558 11C12.558 11 12.558 11 12.558 11C12.558 11 12.558 11 12.558 11C12.558 11 12.5579 11 12.5579 11C12.5579 11 12.5579 11 12.5579 11C12.5579 11 12.5579 11 12.5579 11C12.5579 11 12.5579 11 12.5579 11C12.5579 11 12.5579 11 12.5579 11C12.5579 11 12.5579 11 12.5579 11C12.5578 11 12.5578 11 12.5578 11C12.5578 11 12.5578 11 12.5578 11C12.5578 11 12.5578 11 12.5578 11C12.5578 11 12.5578 11 12.5578 11C12.5578 11 12.5578 11 12.5578 11C12.5578 11 12.5578 11 12.5577 11C12.5577 11 12.5577 11 12.5577 11C12.5577 11 12.5577 11 12.5577 11C12.5577 11 12.5577 11 12.5577 11C12.5577 11 12.5577 11 12.5577 11C12.5577 11 12.5577 11 12.5577 11C12.5577 11 12.5576 11 12.5576 11C12.5576 11 12.5576 11 12.5576 11C12.5576 11 12.5576 11 12.5576 11C12.5576 11 12.5576 11 12.5576 11C12.5576 11 12.5576 11 12.5576 11C12.5576 11 12.5576 11 12.5576 11C12.5575 11 12.5575 11 12.5575 11C12.5575 11 12.5575 11 12.5575 11C12.5575 11 12.5575 11 12.5575 11C12.5575 11 12.5575 11 12.5575 11C12.5575 11 12.5575 11 12.5575 11C12.5575 11 12.5575 11 12.5574 11C12.5574 11 12.5574 11 12.5574 11C12.5574 11 12.5574 11 12.5574 11C12.5574 11 12.5574 11 12.5574 11C12.5574 11 12.5574 11 12.5574 11C12.5574 11 12.5574 11 12.5574 11C12.5574 11 12.5573 11 12.5573 11C12.5573 11 12.5573 11 12.5573 11C12.5573 11 12.5573 11 12.5573 11C12.5573 11 12.5573 11 12.5573 11C12.5573 11 12.5573 11 12.5573 11C12.5573 11 12.5573 11 12.5573 11C12.5572 11 12.5572 11 12.5572 11C12.5572 11 12.5572 11 12.5572 11C12.5572 11 12.5572 11 12.5572 11C12.5572 11 12.5572 11 12.5572 11C12.5572 11 12.5572 11 12.5572 11C12.5572 11 12.5572 11 12.5571 11C12.5571 11 12.5571 11 12.5571 11C12.5571 11 12.5571 11 12.5571 11C12.5571 11 12.5571 11 12.5571 11C12.5571 11 12.5571 11 12.5571 11C12.5571 11 12.5571 11 12.5571 11C12.5571 11 12.557 11 12.557 11C12.557 11 12.557 11 12.557 11C12.557 11 12.557 11 12.557 11C12.557 11 12.557 11 12.557 11C12.557 11 12.557 11 12.557 11C12.557 11 12.557 11 12.557 11C12.5569 11 12.5569 11 12.5569 11C12.5569 11 12.5569 11 12.5569 11C12.5569 11 12.5569 11 12.5569 11C12.5569 11 12.5569 11 12.5569 11C12.5569 11 12.5569 11 12.5569 11C12.5569 11 12.5569 11 12.5568 11C12.5568 11 12.5568 11 12.5568 11C12.5568 11 12.5568 11 12.5568 11C12.5568 11 12.5568 11 12.5568 11C12.5568 11 12.5568 11 12.5568 11C12.5568 11 12.5568 11 12.5568 11C12.5568 11 12.5567 11 12.5567 11C12.5567 11 12.5567 11 12.5567 11C12.5567 11 12.5567 11 12.5567 11C12.5567 11 12.5567 11 12.5567 11C12.5567 11 12.5567 11 12.5567 11C12.5567 11 12.5567 11 12.5567 11C12.5566 11 12.5566 11 12.5566 11C12.5566 11 12.5566 11 12.5566 11C12.5566 11 12.5566 11 12.5566 11C12.5566 11 12.5566 11 12.5566 11C12.5566 11 12.5566 11 12.5566 11C12.5566 11 12.5566 11 12.5565 11C12.5565 11 12.5565 11 12.5565 11C12.5565 11 12.5565 11 12.5565 11C12.5565 11 12.5565 11 12.5565 11C12.5565 11 12.5565 11 12.5565 11C12.5565 11 12.5565 11 12.5565 11C12.5565 11 12.5564 11 12.5564 11C12.5564 11 12.5564 11 12.5564 11C12.5564 11 12.5564 11 12.5564 11C12.5564 11 12.5564 11 12.5564 11C12.5564 11 12.5564 11 12.5564 11C12.5564 11 12.5564 11 12.5564 11C12.5563 11 12.5563 11 12.5563 11C12.5563 11 12.5563 11 12.5563 11C12.5563 11 12.5563 11 12.5563 11C12.5563 11 12.5563 11 12.5563 11C12.5563 11 12.5563 11 12.5563 11C12.5563 11 12.5563 11 12.5562 11C12.5562 11 12.5562 11 12.5562 11C12.5562 11 12.5562 11 12.5562 11C12.5562 11 12.5562 11 12.5562 11C12.5562 11 12.5562 11 12.5562 11C12.5562 11 12.5562 11 12.5562 11C12.5562 11 12.5561 11 12.5561 11C12.5561 11 12.5561 11 12.5561 11C12.5561 11 12.5561 11 12.5561 11C12.5561 11 12.5561 11 12.5561 11C12.5561 11 12.5561 11 12.5561 11C12.5561 11 12.5561 11 12.5561 11C12.556 11 12.556 11 12.556 11C12.556 11 12.556 11 12.556 11C12.556 11 12.556 11 12.556 11C12.556 11 12.556 11 12.556 11C12.556 11 12.556 11 12.556 11C12.556 11 12.556 11 12.5559 11C12.5559 11 12.5559 11 12.5559 11C12.5559 11 12.5559 11 12.5559 11C12.5559 11 12.5559 11 12.5559 11C12.5559 11 12.5559 11 12.5559 11C12.5559 11 12.5559 11 12.5559 11C12.5559 11 12.5558 11 12.5558 11C12.5558 11 12.5558 11 12.5558 11C12.5558 11 12.5558 11 12.5558 11C12.5558 11 12.5558 11 12.5558 11C12.5558 11 12.5558 11 12.5558 11C12.5558 11 12.5558 11 12.5558 11C12.5557 11 12.5557 11 12.5557 11C12.5557 11 12.5557 11 12.5557 11C12.5557 11 12.5557 11 12.5557 11C12.5557 11 12.5557 11 12.5557 11C12.5557 11 12.5557 11 12.5557 11C12.5557 11 12.5557 11 12.5556 11C12.5556 11 12.5556 11 12.5556 11C12.5556 11 12.5556 11 12.5556 11C12.5556 11 12.5556 11 12.5556 11C12.5556 11 12.5556 11 12.5556 11C12.5556 11 12.5556 11 12.5556 11C12.5556 11 12.5555 11 12.5555 11C12.5555 11 12.5555 11 12.5555 11C12.5555 11 12.5555 11 12.5555 11C12.5555 11 12.5555 11 12.5555 11C12.5555 11 12.5555 11 12.5555 11C12.5555 11 12.5555 11 12.5555 11C12.5554 11 12.5554 11 12.5554 11C12.5554 11 12.5554 11 12.5554 11C12.5554 11 12.5554 11 12.5554 11C12.5554 11 12.5554 11 12.5554 11C12.5554 11 12.5554 11 12.5554 11C12.5554 11 12.5554 11 12.5553 11C12.5553 11 12.5553 11 12.5553 11C12.5553 11 12.5553 11 12.5553 11C12.5553 11 12.5553 11 12.5553 11C12.5553 11 12.5553 11 12.5553 11C12.5553 11 12.5553 11 12.5553 11C12.5553 11 12.5552 11 12.5552 11C12.5552 11 12.5552 11 12.5552 11C12.5552 11 12.5552 11 12.5552 11C12.5552 11 12.5552 11 12.5552 11C12.5552 11 12.5552 11 12.5552 11C12.5552 11 12.5552 11 12.5552 11C12.5551 11 12.5551 11 12.5551 11C12.5551 11 12.5551 11 12.5551 11C12.5551 11 12.5551 11 12.5551 11C12.5551 11 12.5551 11 12.5551 11C12.5551 11 12.5551 11 12.5551 11C12.5551 11 12.5551 11 12.5551 11V13ZM12.6181 12.9985C13.1008 12.9724 13.4973 12.7454 13.7685 12.478L12.3642 11.054C12.3707 11.0475 12.4153 11.0066 12.51 11.0014L12.6181 12.9985ZM13.7644 12.482C14.0319 12.2212 14.2964 11.8041 14.2964 11.2695H12.2964C12.2964 11.1955 12.3153 11.1382 12.3324 11.1032C12.3484 11.0702 12.3636 11.0544 12.3682 11.05L13.7644 12.482ZM14.2964 11.2765C14.3024 10.4231 14.3084 9.56959 14.3144 8.71762L12.3145 8.7035C12.3084 9.55549 12.3024 10.409 12.2964 11.2624L14.2964 11.2765ZM14.3139 8.6785C14.2975 8.16705 14.0436 7.76144 13.7653 7.49948L12.3944 8.95568C12.3838 8.94572 12.3193 8.87908 12.3149 8.74263L14.3139 8.6785ZM13.7653 7.49948C13.497 7.24686 13.0813 7.00763 12.5654 7.01162L12.5808 9.01156C12.5164 9.01205 12.468 8.99684 12.4398 8.98423C12.4132 8.97226 12.3997 8.96065 12.3944 8.95568L13.7653 7.49948ZM12.5695 7.01159C11.8853 7.01404 10.949 6.77312 10.0275 6.54452L9.54593 8.48568C10.3537 8.68607 11.5828 9.01513 12.5767 9.01158L12.5695 7.01159ZM10.0217 6.54312C9.634 6.44935 9.24142 6.56603 8.96922 6.81582L10.3215 8.28937C10.1245 8.47017 9.84016 8.55685 9.55166 8.48709L10.0217 6.54312ZM8.94896 6.83494L7.346 8.3904L8.73878 9.82572L10.3417 8.27026L8.94896 6.83494ZM8.54881 8.24577C7.58989 7.6826 6.96395 7.23763 6.44081 6.73041C5.91826 6.22375 5.46084 5.61865 4.88147 4.69166L3.18548 5.75166C3.80608 6.74461 4.36217 7.50073 5.0486 8.16629C5.73446 8.83128 6.51298 9.36954 7.53597 9.97034L8.54881 8.24577ZM4.73018 5.93902L6.32713 4.38807L4.93373 2.95334L3.33678 4.50429L4.73018 5.93902ZM6.30779 4.40635C6.62416 4.11505 6.74633 3.67288 6.63908 3.26871L4.70598 3.78169C4.6258 3.47952 4.71489 3.15436 4.95306 2.93505L6.30779 4.40635ZM6.63849 3.26651C6.50418 2.765 6.37023 2.35883 6.24853 1.85145C6.13267 1.36839 6.07825 0.975347 6.10109 0.682559L4.10715 0.527012C4.05932 1.1402 4.17482 1.78063 4.30369 2.31792C4.42673 2.83088 4.61231 3.43193 4.70657 3.78389L6.63849 3.26651ZM6.08832 0.427693C6.03233 0.116513 5.8799 -0.118504 5.76476 -0.26282C5.64382 -0.414403 5.51022 -0.533041 5.39957 -0.616179L4.19817 0.982774C4.19792 0.982586 4.19859 0.983085 4.19988 0.984167C4.20115 0.985238 4.20247 0.98641 4.20364 0.987522C4.20663 0.990352 4.20562 0.989836 4.20139 0.98453C4.19757 0.979738 4.18496 0.963378 4.17006 0.934388C4.15523 0.905557 4.13291 0.85404 4.11993 0.781879L6.08832 0.427693ZM5.39375 -0.620513C5.15035 -0.800652 4.75445 -1.01425 4.24754 -0.999266L4.30662 0.999861C4.25661 1.00134 4.22034 0.990848 4.20385 0.984532C4.18956 0.979055 4.19023 0.976928 4.20398 0.987108L5.39375 -0.620513ZM4.27708 -0.999702C3.27581 -0.999702 2.25136 -0.999702 1.39295 -0.999702V1.0003C2.26006 1.0003 3.26711 1.0003 4.27708 1.0003L4.27708 -0.999702ZM1.39295 1.30029H4.27858V-0.69971H1.39295V1.30029ZM4.24572 1.29975C4.16604 1.29713 4.10932 1.27728 4.08777 1.2685C4.07808 1.26455 4.07536 1.26276 4.08329 1.2669C4.09327 1.27212 4.10384 1.27803 4.1321 1.29389L5.11076 -0.450313C5.04445 -0.487521 4.72866 -0.68545 4.31145 -0.69917L4.24572 1.29975ZM4.02239 1.22251C3.99514 1.20212 3.98 1.18527 3.97136 1.17479C3.96615 1.16847 3.95894 1.15913 3.94996 1.14555C3.9429 1.13487 3.9249 1.10683 3.90435 1.06309L5.71444 0.212475C5.61906 0.0094971 5.44191 -0.213266 5.22047 -0.378934L4.02239 1.22251ZM3.81113 0.578912C3.77424 1.20451 3.88007 1.83045 4.00559 2.36515C4.12762 2.88498 4.29839 3.43012 4.39595 3.78281L6.32356 3.2496C6.19707 2.79231 6.06409 2.38273 5.95266 1.90808C5.84473 1.44831 5.78741 1.04002 5.80766 0.696649L3.81113 0.578912ZM4.66391 2.79801L3.03839 4.37297L4.43008 5.80935L6.0556 4.23439L4.66391 2.79801ZM3.05047 4.36146C2.64731 4.73924 2.57795 5.34797 2.8591 5.8037L4.56125 4.75361C4.67552 4.93883 4.70365 5.13812 4.68196 5.30747C4.66029 5.47663 4.58213 5.66706 4.418 5.82086L3.05047 4.36146ZM2.85957 5.80447C3.51655 6.86725 4.10522 7.67269 4.83365 8.37918C5.56136 9.08497 6.39029 9.65487 7.4834 10.2916L8.4901 8.56347C7.46147 7.96426 6.78818 7.48869 6.22608 6.94351C5.66469 6.39903 5.17595 5.74801 4.56078 4.75284L2.85957 5.80447ZM7.49408 10.2978C7.94652 10.5539 8.50442 10.4665 8.86022 10.123L7.47117 8.68407C7.61522 8.54502 7.78705 8.47466 7.94582 8.45322C8.10443 8.43181 8.2957 8.45332 8.47942 8.55733L7.49408 10.2978ZM8.86157 10.1217L10.4916 8.54225L9.09985 7.10593L7.46982 8.68538L8.86157 10.1217ZM9.55376 8.79438C10.3511 8.99321 11.5443 9.3151 12.581 9.31157L12.5742 7.31158C11.8455 7.31406 10.9366 7.07797 10.0377 6.85381L9.55376 8.79438ZM12.5776 9.31158C12.4601 9.31158 12.3741 9.28315 12.3235 9.26069C12.2698 9.23687 12.2248 9.20614 12.1867 9.17006L13.561 7.71709C13.3306 7.49911 12.9824 7.31158 12.5776 7.31158V9.31158ZM12.187 9.17039C12.1494 9.13488 12.1156 9.09138 12.0876 9.03753C12.0624 8.989 12.0239 8.8971 12.0167 8.76516L14.0137 8.65596C13.9919 8.25691 13.7829 7.9268 13.5607 7.71676L12.187 9.17039ZM12.0152 8.70381C12.0092 9.59193 12.0017 10.5017 11.9972 11.2636L13.9971 11.2754C14.0016 10.5134 14.0091 9.61115 14.0152 8.71731L12.0152 8.70381ZM11.9971 11.2695C11.9971 11.1198 12.0398 11.0133 12.0673 10.9591C12.0969 10.9008 12.1295 10.8616 12.1558 10.8359L13.5558 12.2641C13.7547 12.0692 13.9971 11.7228 13.9971 11.2695H11.9971ZM12.1558 10.8359C12.1902 10.8021 12.2276 10.776 12.2696 10.7556C12.3086 10.7366 12.382 10.7078 12.4883 10.7016L12.6038 12.6983C12.9979 12.6755 13.3345 12.4811 13.5558 12.2641L12.1558 10.8359ZM12.5448 10.7C9.12463 10.7043 6.57192 9.7549 4.84906 8.10899L3.46751 9.55513C5.65732 11.6471 8.7586 12.7047 12.5473 12.7L12.5448 10.7ZM4.84908 8.10901C3.12452 6.46137 2.09429 3.98815 1.98338 0.670367L-0.0155072 0.737192C0.108156 4.43622 1.27336 7.45885 3.46749 9.55511L4.84908 8.10901ZM1.98193 0.767101C1.97893 0.814291 1.97042 0.861306 1.95711 0.906259C1.94399 0.950594 1.92826 0.985983 1.91545 1.01088C1.9033 1.0345 1.89381 1.04849 1.89457 1.04735C1.90016 1.03896 1.89816 1.04231 1.92214 1.00784L0.280306 -0.134254C0.262424 -0.108547 0.0141638 0.195656 -0.0140587 0.640457L1.98193 0.767101ZM1.80126 1.1509C1.71877 1.23176 1.63867 1.26706 1.61124 1.27784C1.59906 1.28263 1.59437 1.28362 1.60838 1.27941C1.61599 1.27713 1.62286 1.27515 1.63767 1.27082C1.65017 1.26718 1.66919 1.26161 1.68965 1.25526L1.09624 -0.654679C1.07156 -0.647012 1.09222 -0.653805 1.03348 -0.636177C0.997824 -0.625476 0.942286 -0.608172 0.879551 -0.583511C0.750993 -0.532976 0.570892 -0.443677 0.401186 -0.277314L1.80126 1.1509Z" fill="#07A358" mask="url(#path-1-inside-1)"/>
</g>
</g>
</svg>
