<svg width="26" height="25" viewBox="0 0 26 25" fill="none" xmlns="http://www.w3.org/2000/svg">
<g id="Group 2">
<circle id="Ellipse 2" cx="12.8574" cy="12.5" r="12.5" fill="#0A0A0A" fill-opacity="0.33"/>
<path id="Vector" d="M9.6042 6.50933C9.68936 6.42775 9.79041 6.36315 9.90155 6.31921C10.0127 6.27528 10.1318 6.25288 10.2519 6.2533C10.3721 6.25373 10.4909 6.27696 10.6018 6.32167C10.7126 6.36638 10.8131 6.43169 10.8977 6.51386L16.9483 12.3799C17.0158 12.4452 17.0692 12.5227 17.1056 12.6079C17.1419 12.6931 17.1605 12.7844 17.1601 12.8765C17.1598 12.9686 17.1405 13.0597 17.1035 13.1447C17.0666 13.2296 17.0125 13.3067 16.9445 13.3716L10.8497 19.195C10.4903 19.5384 9.91302 19.5364 9.55625 19.1905C9.19947 18.8446 9.20157 18.289 9.56095 17.9456L14.871 12.8649L9.59221 7.74718C9.24272 7.40835 9.24484 6.84568 9.6042 6.50933Z" fill="white"/>
</g>
</svg>
