<svg width="62" height="25" viewBox="0 0 62 25" fill="none" xmlns="http://www.w3.org/2000/svg">
<g id="left_and_right">
<g id="slide_left" opacity="0.8">
<circle id="ellipse_left" cx="13.1431" cy="12.5" r="12.5" fill="#0E0D0C" fill-opacity="0.33"/>
<path id="vector_left" d="M15.546 19.3807C15.4591 19.4638 15.3559 19.5297 15.2423 19.5747C15.1287 19.6197 15.0069 19.6428 14.8839 19.6428C14.7609 19.6428 14.6391 19.6197 14.5255 19.5747C14.4119 19.5297 14.3087 19.4638 14.2218 19.3807L8.00492 13.4497C7.93556 13.3836 7.88054 13.3052 7.843 13.2189C7.80546 13.1325 7.78613 13.04 7.78613 12.9465C7.78613 12.853 7.80546 12.7605 7.843 12.6741C7.88054 12.5878 7.93556 12.5093 8.00492 12.4433L14.2218 6.51226C14.5884 6.16253 15.1794 6.16253 15.546 6.51226C15.9125 6.86198 15.9125 7.42583 15.546 7.77555L10.1296 12.9501L15.5535 18.1246C15.9125 18.4672 15.9125 19.0381 15.546 19.3807Z" fill="white"/>
</g>
<g id="slide_right">
<circle id="ellipse_right" cx="48.8574" cy="12.5" r="12.5" fill="#0A0A0A" fill-opacity="0.33"/>
<path id="vector_right" d="M45.6042 6.50933C45.6894 6.42775 45.7904 6.36315 45.9016 6.31921C46.0127 6.27528 46.1318 6.25288 46.2519 6.2533C46.3721 6.25373 46.4909 6.27696 46.6018 6.32167C46.7126 6.36638 46.8131 6.43169 46.8977 6.51386L52.9483 12.3799C53.0158 12.4452 53.0692 12.5227 53.1056 12.6079C53.1419 12.6931 53.1605 12.7844 53.1601 12.8765C53.1598 12.9686 53.1405 13.0597 53.1035 13.1447C53.0666 13.2296 53.0125 13.3067 52.9445 13.3716L46.8497 19.195C46.4903 19.5384 45.913 19.5364 45.5562 19.1905C45.1995 18.8446 45.2016 18.289 45.561 17.9456L50.871 12.8649L45.5922 7.74718C45.2427 7.40835 45.2448 6.84568 45.6042 6.50933Z" fill="white"/>
</g>
</g>
</svg>
