<svg width="26" height="25" viewBox="0 0 26 25" fill="none" xmlns="http://www.w3.org/2000/svg">
<g id="Group 1" opacity="0.8">
<circle id="Ellipse 1" cx="13.1431" cy="12.5" r="12.5" fill="#0E0D0C" fill-opacity="0.33"/>
<path id="Vector" d="M15.546 19.3807C15.4591 19.4638 15.3559 19.5297 15.2423 19.5747C15.1287 19.6197 15.0069 19.6428 14.8839 19.6428C14.7609 19.6428 14.6391 19.6197 14.5255 19.5747C14.4119 19.5297 14.3087 19.4638 14.2218 19.3807L8.00492 13.4497C7.93556 13.3836 7.88054 13.3052 7.843 13.2189C7.80546 13.1325 7.78613 13.04 7.78613 12.9465C7.78613 12.853 7.80546 12.7605 7.843 12.6741C7.88054 12.5878 7.93556 12.5093 8.00492 12.4433L14.2218 6.51226C14.5884 6.16253 15.1794 6.16253 15.546 6.51226C15.9125 6.86198 15.9125 7.42583 15.546 7.77555L10.1296 12.9501L15.5535 18.1246C15.9125 18.4672 15.9125 19.0381 15.546 19.3807Z" fill="white"/>
</g>
</svg>
